Decovar-Regular24WeightMax2.ufo
<glyph name="A" format="1">
  <advance width="1702"/>
  <unicode hex="0041"/>
  <outline>
    <contour>
      <point x="350" y="244" type="qcurve"/>
      <point x="249" y="244"/>
      <point x="249" y="244"/>
      <point x="264" y="278" type="qcurve" smooth="yes"/>
      <point x="279" y="312"/>
      <point x="279" y="312"/>
      <point x="350" y="312" type="qcurve"/>
      <point x="395" y="312"/>
      <point x="544" y="312"/>
      <point x="629" y="312" type="qcurve"/>
      <point x="707" y="312"/>
      <point x="870" y="312"/>
      <point x="940" y="312" type="qcurve"/>
      <point x="990" y="312"/>
      <point x="990" y="312"/>
      <point x="1005" y="278" type="qcurve" smooth="yes"/>
      <point x="1020" y="244"/>
      <point x="1020" y="244"/>
      <point x="965" y="244" type="qcurve" smooth="yes"/>
      <point x="891" y="244"/>
      <point x="715" y="244"/>
      <point x="629" y="244" type="qcurve"/>
      <point x="544" y="244"/>
      <point x="392" y="244"/>
    </contour>
    <contour>
      <point x="350" y="312" type="qcurve"/>
      <point x="279" y="312"/>
      <point x="279" y="312"/>
      <point x="294" y="346" type="qcurve" smooth="yes"/>
      <point x="309" y="380"/>
      <point x="309" y="380"/>
      <point x="350" y="380" type="qcurve"/>
      <point x="406" y="380"/>
      <point x="554" y="380"/>
      <point x="629" y="380" type="qcurve"/>
      <point x="704" y="380"/>
      <point x="847" y="380"/>
      <point x="912" y="380" type="qcurve" smooth="yes"/>
      <point x="960" y="380"/>
      <point x="960" y="380"/>
      <point x="975" y="346" type="qcurve" smooth="yes"/>
      <point x="990" y="312"/>
      <point x="990" y="312"/>
      <point x="940" y="312" type="qcurve" smooth="yes"/>
      <point x="872" y="312"/>
      <point x="709" y="312"/>
      <point x="629" y="312" type="qcurve"/>
      <point x="540" y="312"/>
      <point x="387" y="312"/>
    </contour>
    <contour>
      <point x="339" y="723" type="qcurve"/>
      <point x="306" y="737"/>
      <point x="306" y="737"/>
      <point x="321" y="772" type="qcurve"/>
      <point x="411" y="973"/>
      <point x="483" y="1143"/>
      <point x="505" y="1190" type="qcurve" smooth="yes"/>
      <point x="517" y="1216"/>
      <point x="517" y="1216"/>
      <point x="558" y="1216" type="qcurve"/>
      <point x="598" y="1216"/>
      <point x="598" y="1216"/>
      <point x="574" y="1161" type="qcurve"/>
      <point x="542" y="1092"/>
      <point x="465" y="916"/>
      <point x="386" y="736" type="qcurve"/>
      <point x="374" y="707"/>
      <point x="374" y="707"/>
    </contour>
    <contour>
      <point x="408" y="692" type="qcurve"/>
      <point x="374" y="707"/>
      <point x="374" y="707"/>
      <point x="386" y="736" type="qcurve"/>
      <point x="465" y="916"/>
      <point x="542" y="1092"/>
      <point x="574" y="1161" type="qcurve"/>
      <point x="598" y="1216"/>
      <point x="598" y="1216"/>
      <point x="618" y="1168" type="qcurve"/>
      <point x="638" y="1123"/>
      <point x="638" y="1123"/>
      <point x="627" y="1097" type="qcurve" smooth="yes"/>
      <point x="609" y="1055"/>
      <point x="537" y="896"/>
      <point x="457" y="713" type="qcurve"/>
      <point x="441" y="676"/>
      <point x="441" y="676"/>
    </contour>
    <contour>
      <point x="1258" y="842" type="qcurve"/>
      <point x="1123" y="784"/>
      <point x="1123" y="784"/>
      <point x="1110" y="813" type="qcurve"/>
      <point x="1038" y="971"/>
      <point x="995" y="1067"/>
      <point x="960" y="1145" type="qcurve"/>
      <point x="929" y="1216"/>
      <point x="929" y="1216"/>
      <point x="1080" y="1216" type="qcurve"/>
      <point x="1271" y="1216"/>
      <point x="1271" y="1216"/>
      <point x="1283" y="1191" type="qcurve"/>
      <point x="1324" y="1102"/>
      <point x="1374" y="988"/>
      <point x="1396" y="937" type="qcurve"/>
      <point x="1408" y="910"/>
      <point x="1408" y="910"/>
    </contour>
    <contour>
      <point x="977" y="720" type="qcurve"/>
      <point x="837" y="660"/>
      <point x="837" y="660"/>
      <point x="824" y="690" type="qcurve"/>
      <point x="743" y="876"/>
      <point x="668" y="1054"/>
      <point x="649" y="1097" type="qcurve" smooth="yes"/>
      <point x="638" y="1123"/>
      <point x="638" y="1123"/>
      <point x="678" y="1216" type="qcurve"/>
      <point x="929" y="1216"/>
      <point x="929" y="1216"/>
      <point x="960" y="1145" type="qcurve"/>
      <point x="995" y="1067"/>
      <point x="1038" y="971"/>
      <point x="1110" y="813" type="qcurve"/>
      <point x="1123" y="784"/>
      <point x="1123" y="784"/>
    </contour>
    <component base="TopCrown" xOffset="465"/>
    <component base="CWTermMidWaist" xScale="-0.9144513511998228" xyScale="0.4046958441704308" yxScale="-0.4046958441704308" yScale="-0.9144513511998228" xOffset="850" yOffset="1164"/>
    <component base="CCWTermMidWaist" xScale="-0.916508931755964" xyScale="-0.400014222261586" yxScale="0.400014222261586" yScale="-0.916508931755964" xOffset="1325" yOffset="1540"/>
  </outline>
</glyph>
<glyph name="C" format="1">
  <advance width="1148"/>
  <unicode hex="0043"/>
  <outline>
    <contour>
      <point x="922" y="-27" type="qcurve"/>
      <point x="906" y="-28"/>
      <point x="906" y="-28"/>
      <point x="906" y="9" type="qcurve"/>
      <point x="906" y="46"/>
      <point x="906" y="46"/>
      <point x="929" y="47" type="qcurve"/>
      <point x="947" y="48"/>
      <point x="979" y="53"/>
      <point x="1002" y="58" type="qcurve"/>
      <point x="1023" y="63"/>
      <point x="1023" y="63"/>
      <point x="1023" y="27" type="qcurve"/>
      <point x="1023" y="-11"/>
      <point x="1023" y="-11"/>
      <point x="1002" y="-16" type="qcurve"/>
      <point x="982" y="-20"/>
      <point x="939" y="-26"/>
    </contour>
    <contour>
      <point x="929" y="47" type="qcurve"/>
      <point x="906" y="46"/>
      <point x="906" y="46"/>
      <point x="906" y="81" type="qcurve"/>
      <point x="906" y="118"/>
      <point x="906" y="118"/>
      <point x="927" y="119" type="qcurve"/>
      <point x="942" y="120"/>
      <point x="975" y="124"/>
      <point x="997" y="129" type="qcurve"/>
      <point x="1023" y="136"/>
      <point x="1023" y="136"/>
      <point x="1023" y="100" type="qcurve"/>
      <point x="1023" y="63"/>
      <point x="1023" y="63"/>
      <point x="1002" y="58" type="qcurve"/>
      <point x="979" y="53"/>
      <point x="947" y="48"/>
    </contour>
    <contour>
      <point x="992" y="1234" type="qcurve"/>
      <point x="973" y="1238"/>
      <point x="938" y="1244"/>
      <point x="917" y="1246" type="qcurve"/>
      <point x="902" y="1247"/>
      <point x="902" y="1247"/>
      <point x="902" y="1286" type="qcurve"/>
      <point x="902" y="1324"/>
      <point x="902" y="1324"/>
      <point x="917" y="1323" type="qcurve"/>
      <point x="931" y="1322"/>
      <point x="980" y="1316"/>
      <point x="998" y="1311" type="qcurve"/>
      <point x="1019" y="1305"/>
      <point x="1019" y="1305"/>
      <point x="1019" y="1266" type="qcurve"/>
      <point x="1019" y="1227"/>
      <point x="1019" y="1227"/>
    </contour>
    <contour>
      <point x="998" y="1311" type="qcurve"/>
      <point x="980" y="1316"/>
      <point x="931" y="1322"/>
      <point x="917" y="1323" type="qcurve"/>
      <point x="902" y="1324"/>
      <point x="902" y="1324"/>
      <point x="902" y="1363" type="qcurve"/>
      <point x="902" y="1402"/>
      <point x="902" y="1402"/>
      <point x="920" y="1401" type="qcurve"/>
      <point x="937" y="1400"/>
      <point x="987" y="1391"/>
      <point x="1000" y="1388" type="qcurve"/>
      <point x="1019" y="1384"/>
      <point x="1019" y="1383"/>
      <point x="1019" y="1344" type="qcurve"/>
      <point x="1019" y="1305"/>
      <point x="1019" y="1305"/>
    </contour>
    <contour>
      <point x="782" y="-28" type="qcurve"/>
      <point x="738" y="-26"/>
      <point x="738" y="-26"/>
      <point x="738" y="14" type="qcurve"/>
      <point x="738" y="49"/>
      <point x="738" y="49"/>
      <point x="782" y="45" type="qcurve"/>
      <point x="824" y="45"/>
      <point x="824" y="45"/>
      <point x="824" y="10" type="qcurve"/>
      <point x="824" y="-29"/>
      <point x="824" y="-29"/>
    </contour>
    <contour>
      <point x="782" y="45" type="qcurve"/>
      <point x="738" y="49"/>
      <point x="738" y="49"/>
      <point x="738" y="83" type="qcurve" smooth="yes"/>
      <point x="738" y="123"/>
      <point x="738" y="123"/>
      <point x="785" y="119" type="qcurve"/>
      <point x="824" y="117"/>
      <point x="824" y="117"/>
      <point x="824" y="79" type="qcurve"/>
      <point x="824" y="45"/>
      <point x="824" y="45"/>
    </contour>
    <contour>
      <point x="779" y="1248" type="qcurve"/>
      <point x="738" y="1244"/>
      <point x="738" y="1244"/>
      <point x="738" y="1287" type="qcurve" smooth="yes"/>
      <point x="738" y="1322"/>
      <point x="738" y="1322"/>
      <point x="780" y="1325" type="qcurve"/>
      <point x="821" y="1326"/>
      <point x="821" y="1326"/>
      <point x="821" y="1289" type="qcurve"/>
      <point x="821" y="1249"/>
      <point x="821" y="1249"/>
    </contour>
    <contour>
      <point x="780" y="1325" type="qcurve"/>
      <point x="738" y="1322"/>
      <point x="738" y="1322"/>
      <point x="738" y="1360" type="qcurve"/>
      <point x="738" y="1401"/>
      <point x="738" y="1401"/>
      <point x="779" y="1403" type="qcurve"/>
      <point x="821" y="1403"/>
      <point x="821" y="1403"/>
      <point x="821" y="1362" type="qcurve"/>
      <point x="821" y="1326"/>
      <point x="821" y="1326"/>
    </contour>
    <contour>
      <point x="868" y="-29" type="qcurve"/>
      <point x="824" y="-29"/>
      <point x="824" y="-29"/>
      <point x="824" y="10" type="qcurve"/>
      <point x="824" y="45"/>
      <point x="824" y="45"/>
      <point x="866" y="45" type="qcurve"/>
      <point x="906" y="46"/>
      <point x="906" y="46"/>
      <point x="906" y="10" type="qcurve"/>
      <point x="906" y="-28"/>
      <point x="906" y="-28"/>
    </contour>
    <contour>
      <point x="866" y="45" type="qcurve"/>
      <point x="824" y="45"/>
      <point x="824" y="45"/>
      <point x="824" y="79" type="qcurve"/>
      <point x="824" y="117"/>
      <point x="824" y="117"/>
      <point x="867" y="117" type="qcurve"/>
      <point x="906" y="118"/>
      <point x="906" y="118"/>
      <point x="906" y="82" type="qcurve" smooth="yes"/>
      <point x="906" y="46"/>
      <point x="906" y="46"/>
    </contour>
    <contour>
      <point x="862" y="1248" type="qcurve"/>
      <point x="821" y="1249"/>
      <point x="821" y="1249"/>
      <point x="821" y="1289" type="qcurve"/>
      <point x="821" y="1326"/>
      <point x="821" y="1326"/>
      <point x="860" y="1325" type="qcurve"/>
      <point x="902" y="1324"/>
      <point x="902" y="1324"/>
      <point x="902" y="1286" type="qcurve" smooth="yes"/>
      <point x="902" y="1247"/>
      <point x="902" y="1247"/>
    </contour>
    <contour>
      <point x="860" y="1325" type="qcurve"/>
      <point x="821" y="1326"/>
      <point x="821" y="1326"/>
      <point x="821" y="1362" type="qcurve"/>
      <point x="821" y="1403"/>
      <point x="821" y="1403"/>
      <point x="863" y="1403" type="qcurve"/>
      <point x="902" y="1402"/>
      <point x="902" y="1402"/>
      <point x="902" y="1362" type="qcurve"/>
      <point x="902" y="1324"/>
      <point x="902" y="1324"/>
    </contour>
    <contour>
      <point x="1064" y="0" type="qcurve"/>
      <point x="1023" y="-11"/>
      <point x="1023" y="-11"/>
      <point x="1023" y="27" type="qcurve"/>
      <point x="1023" y="63"/>
      <point x="1023" y="63"/>
      <point x="1065" y="75" type="qcurve"/>
      <point x="1105" y="89"/>
      <point x="1105" y="89"/>
      <point x="1105" y="51" type="qcurve"/>
      <point x="1105" y="12"/>
      <point x="1105" y="12"/>
    </contour>
    <contour>
      <point x="1065" y="75" type="qcurve"/>
      <point x="1023" y="63"/>
      <point x="1023" y="63"/>
      <point x="1023" y="100" type="qcurve"/>
      <point x="1023" y="136"/>
      <point x="1023" y="136"/>
      <point x="1066" y="150" type="qcurve"/>
      <point x="1105" y="165"/>
      <point x="1105" y="165"/>
      <point x="1105" y="128" type="qcurve"/>
      <point x="1105" y="89"/>
      <point x="1105" y="89"/>
    </contour>
    <contour>
      <point x="1147" y="27" type="qcurve"/>
      <point x="1105" y="12"/>
      <point x="1105" y="12"/>
      <point x="1105" y="51" type="qcurve"/>
      <point x="1105" y="89"/>
      <point x="1105" y="89"/>
      <point x="1146" y="108" type="qcurve"/>
      <point x="1187" y="132"/>
      <point x="1187" y="132"/>
      <point x="1187" y="77" type="qcurve"/>
      <point x="1187" y="46"/>
      <point x="1187" y="46"/>
    </contour>
    <contour>
      <point x="1146" y="108" type="qcurve"/>
      <point x="1105" y="89"/>
      <point x="1105" y="89"/>
      <point x="1105" y="128" type="qcurve"/>
      <point x="1105" y="165"/>
      <point x="1105" y="165"/>
      <point x="1144" y="186" type="qcurve"/>
      <point x="1187" y="216"/>
      <point x="1187" y="216"/>
      <point x="1187" y="164" type="qcurve" smooth="yes"/>
      <point x="1187" y="132"/>
      <point x="1187" y="132"/>
    </contour>
    <component base="TopCurvedElement" xOffset="773" yOffset="-3"/>
    <component base="RoundWaistElement270" xOffset="82"/>
    <component base="RoundDualySW" xOffset="85"/>
    <component base="RoundDualyNW" xOffset="85"/>
  </outline>
</glyph>
<glyph name="D" format="1">
  <advance width="1802"/>
  <unicode hex="0044"/>
  <outline>
    <contour>
      <point x="859" y="0" type="qcurve"/>
      <point x="820" y="0"/>
      <point x="820" y="0"/>
      <point x="820" y="34" type="qcurve" smooth="yes"/>
      <point x="820" y="76"/>
      <point x="820" y="76"/>
      <point x="859" y="76" type="qcurve" smooth="yes"/>
      <point x="902" y="76"/>
      <point x="986" y="76"/>
      <point x="1025" y="76" type="qcurve"/>
      <point x="1244" y="76"/>
      <point x="1597" y="351"/>
      <point x="1632" y="569" type="qcurve"/>
      <point x="1636" y="608"/>
      <point x="1636" y="608"/>
      <point x="1679" y="608" type="qcurve"/>
      <point x="1719" y="608"/>
      <point x="1719" y="608"/>
      <point x="1715" y="564" type="qcurve"/>
      <point x="1678" y="304"/>
      <point x="1267" y="0"/>
      <point x="1026" y="0" type="qcurve" smooth="yes"/>
      <point x="985" y="0"/>
      <point x="902" y="0"/>
    </contour>
    <contour>
      <point x="859" y="76" type="qcurve"/>
      <point x="820" y="76"/>
      <point x="820" y="76"/>
      <point x="820" y="114" type="qcurve" smooth="yes"/>
      <point x="820" y="152"/>
      <point x="820" y="152"/>
      <point x="859" y="152" type="qcurve" smooth="yes"/>
      <point x="902" y="152"/>
      <point x="985" y="152"/>
      <point x="1006" y="152" type="qcurve" smooth="yes"/>
      <point x="1222" y="152"/>
      <point x="1515" y="391"/>
      <point x="1545" y="572" type="qcurve"/>
      <point x="1549" y="608"/>
      <point x="1549" y="608"/>
      <point x="1593" y="608" type="qcurve"/>
      <point x="1636" y="608"/>
      <point x="1636" y="608"/>
      <point x="1632" y="569" type="qcurve"/>
      <point x="1597" y="351"/>
      <point x="1244" y="76"/>
      <point x="1025" y="76" type="qcurve" smooth="yes"/>
      <point x="986" y="76"/>
      <point x="902" y="76"/>
    </contour>
    <contour>
      <point x="1680" y="760" type="qcurve"/>
      <point x="1637" y="760"/>
      <point x="1637" y="760"/>
      <point x="1632" y="798" type="qcurve"/>
      <point x="1588" y="1014"/>
      <point x="1245" y="1292"/>
      <point x="1025" y="1292" type="qcurve"/>
      <point x="986" y="1292"/>
      <point x="902" y="1292"/>
      <point x="859" y="1292" type="qcurve" smooth="yes"/>
      <point x="820" y="1292"/>
      <point x="820" y="1292"/>
      <point x="820" y="1334" type="qcurve" smooth="yes"/>
      <point x="820" y="1368"/>
      <point x="820" y="1368"/>
      <point x="859" y="1368" type="qcurve"/>
      <point x="902" y="1368"/>
      <point x="985" y="1368"/>
      <point x="1026" y="1368" type="qcurve" smooth="yes"/>
      <point x="1298" y="1368"/>
      <point x="1682" y="1049"/>
      <point x="1715" y="799" type="qcurve"/>
      <point x="1719" y="760"/>
      <point x="1719" y="760"/>
    </contour>
    <contour>
      <point x="1595" y="760" type="qcurve"/>
      <point x="1549" y="760"/>
      <point x="1549" y="760"/>
      <point x="1542" y="796" type="qcurve"/>
      <point x="1506" y="981"/>
      <point x="1218" y="1216"/>
      <point x="1006" y="1216" type="qcurve" smooth="yes"/>
      <point x="985" y="1216"/>
      <point x="902" y="1216"/>
      <point x="859" y="1216" type="qcurve" smooth="yes"/>
      <point x="820" y="1216"/>
      <point x="820" y="1216"/>
      <point x="820" y="1254" type="qcurve" smooth="yes"/>
      <point x="820" y="1292"/>
      <point x="820" y="1292"/>
      <point x="859" y="1292" type="qcurve"/>
      <point x="902" y="1292"/>
      <point x="986" y="1292"/>
      <point x="1025" y="1292" type="qcurve" smooth="yes"/>
      <point x="1245" y="1292"/>
      <point x="1588" y="1014"/>
      <point x="1632" y="798" type="qcurve"/>
      <point x="1637" y="760"/>
      <point x="1637" y="760"/>
    </contour>
    <component base="CapStemPatternV2" xOffset="-82"/>
    <component base="RoundWaistElement90" xOffset="1549"/>
  </outline>
</glyph>
<glyph name="E" format="1">
  <advance width="1352.0"/>
  <unicode hex="0045"/>
  <outline>
    <contour>
      <point x="860" y="0" type="qcurve" smooth="yes"/>
      <point x="820" y="0"/>
      <point x="820" y="0"/>
      <point x="820" y="38" type="qcurve" smooth="yes"/>
      <point x="820" y="76"/>
      <point x="820" y="76"/>
      <point x="860" y="76" type="qcurve"/>
      <point x="896" y="76"/>
      <point x="955" y="76"/>
      <point x="982" y="76" type="qcurve" smooth="yes"/>
      <point x="1010" y="76"/>
      <point x="1070" y="76"/>
      <point x="1108" y="76" type="qcurve" smooth="yes"/>
      <point x="1148" y="76"/>
      <point x="1148" y="76"/>
      <point x="1148" y="37" type="qcurve" smooth="yes"/>
      <point x="1148" y="0"/>
      <point x="1148" y="0"/>
      <point x="1108" y="0" type="qcurve" smooth="yes"/>
      <point x="1070" y="0"/>
      <point x="1010" y="0"/>
      <point x="982" y="0" type="qcurve" smooth="yes"/>
      <point x="955" y="0"/>
      <point x="896" y="0"/>
    </contour>
    <contour>
      <point x="860" y="76" type="qcurve" smooth="yes"/>
      <point x="820" y="76"/>
      <point x="820" y="76"/>
      <point x="820" y="114" type="qcurve" smooth="yes"/>
      <point x="820" y="152"/>
      <point x="820" y="152"/>
      <point x="860" y="152" type="qcurve"/>
      <point x="896" y="152"/>
      <point x="955" y="152"/>
      <point x="982" y="152" type="qcurve" smooth="yes"/>
      <point x="1010" y="152"/>
      <point x="1070" y="152"/>
      <point x="1108" y="152" type="qcurve" smooth="yes"/>
      <point x="1148" y="152"/>
      <point x="1148" y="152"/>
      <point x="1148" y="113" type="qcurve" smooth="yes"/>
      <point x="1148" y="76"/>
      <point x="1148" y="76"/>
      <point x="1108" y="76" type="qcurve" smooth="yes"/>
      <point x="1070" y="76"/>
      <point x="1010" y="76"/>
      <point x="982" y="76" type="qcurve" smooth="yes"/>
      <point x="955" y="76"/>
      <point x="896" y="76"/>
    </contour>
    <contour>
      <point x="860" y="608" type="qcurve" smooth="yes"/>
      <point x="820" y="608"/>
      <point x="820" y="608"/>
      <point x="820" y="646" type="qcurve" smooth="yes"/>
      <point x="820" y="684"/>
      <point x="820" y="684"/>
      <point x="860" y="684" type="qcurve"/>
      <point x="877" y="684"/>
      <point x="922" y="684"/>
      <point x="945" y="684" type="qcurve" smooth="yes"/>
      <point x="967" y="684"/>
      <point x="1009" y="684"/>
      <point x="1026" y="684" type="qcurve" smooth="yes"/>
      <point x="1066" y="684"/>
      <point x="1066" y="684"/>
      <point x="1066" y="645" type="qcurve" smooth="yes"/>
      <point x="1066" y="608"/>
      <point x="1066" y="608"/>
      <point x="1026" y="608" type="qcurve" smooth="yes"/>
      <point x="1010" y="608"/>
      <point x="968" y="608"/>
      <point x="947" y="608" type="qcurve" smooth="yes"/>
      <point x="923" y="608"/>
      <point x="878" y="608"/>
    </contour>
    <contour>
      <point x="860" y="684" type="qcurve" smooth="yes"/>
      <point x="820" y="684"/>
      <point x="820" y="684"/>
      <point x="820" y="722" type="qcurve" smooth="yes"/>
      <point x="820" y="760"/>
      <point x="820" y="760"/>
      <point x="860" y="760" type="qcurve"/>
      <point x="878" y="760"/>
      <point x="924" y="760"/>
      <point x="947" y="760" type="qcurve" smooth="yes"/>
      <point x="969" y="760"/>
      <point x="1010" y="760"/>
      <point x="1026" y="760" type="qcurve" smooth="yes"/>
      <point x="1066" y="760"/>
      <point x="1066" y="760"/>
      <point x="1066" y="721" type="qcurve" smooth="yes"/>
      <point x="1066" y="684"/>
      <point x="1066" y="684"/>
      <point x="1026" y="684" type="qcurve" smooth="yes"/>
      <point x="1010" y="684"/>
      <point x="968" y="684"/>
      <point x="945" y="684" type="qcurve"/>
      <point x="923" y="684"/>
      <point x="878" y="684"/>
    </contour>
    <contour>
      <point x="860" y="1216" type="qcurve" smooth="yes"/>
      <point x="820" y="1216"/>
      <point x="820" y="1216"/>
      <point x="820" y="1254" type="qcurve" smooth="yes"/>
      <point x="820" y="1292"/>
      <point x="820" y="1292"/>
      <point x="860" y="1292" type="qcurve"/>
      <point x="896" y="1292"/>
      <point x="954" y="1292"/>
      <point x="981" y="1292" type="qcurve" smooth="yes"/>
      <point x="1009" y="1292"/>
      <point x="1070" y="1292"/>
      <point x="1108" y="1292" type="qcurve" smooth="yes"/>
      <point x="1148" y="1292"/>
      <point x="1148" y="1292"/>
      <point x="1148" y="1253" type="qcurve" smooth="yes"/>
      <point x="1148" y="1216"/>
      <point x="1148" y="1216"/>
      <point x="1108" y="1216" type="qcurve" smooth="yes"/>
      <point x="1070" y="1216"/>
      <point x="1009" y="1216"/>
      <point x="981" y="1216" type="qcurve" smooth="yes"/>
      <point x="954" y="1216"/>
      <point x="896" y="1216"/>
    </contour>
    <contour>
      <point x="860" y="1292" type="qcurve" smooth="yes"/>
      <point x="820" y="1292"/>
      <point x="820" y="1292"/>
      <point x="820" y="1330" type="qcurve" smooth="yes"/>
      <point x="820" y="1368"/>
      <point x="820" y="1368"/>
      <point x="860" y="1368" type="qcurve"/>
      <point x="896" y="1368"/>
      <point x="954" y="1368"/>
      <point x="981" y="1368" type="qcurve" smooth="yes"/>
      <point x="1009" y="1368"/>
      <point x="1070" y="1368"/>
      <point x="1108" y="1368" type="qcurve" smooth="yes"/>
      <point x="1148" y="1368"/>
      <point x="1148" y="1368"/>
      <point x="1148" y="1329" type="qcurve" smooth="yes"/>
      <point x="1148" y="1292"/>
      <point x="1148" y="1292"/>
      <point x="1108" y="1292" type="qcurve" smooth="yes"/>
      <point x="1070" y="1292"/>
      <point x="1009" y="1292"/>
      <point x="981" y="1292" type="qcurve" smooth="yes"/>
      <point x="954" y="1292"/>
      <point x="896" y="1292"/>
    </contour>
    <component base="CapStemPatternV2" xOffset="-82"/>
    <component base="RightBotTerm" xOffset="902"/>
    <component base="RightBotTerm" xOffset="820" yOffset="608"/>
    <component base="RightTopTerminal" xOffset="902" yOffset="1216"/>
    <component base="RightTopTerminal" xOffset="820" yOffset="608"/>
  </outline>
</glyph>
<glyph name="F" format="1">
  <advance width="1230.0"/>
  <unicode hex="0046"/>
  <outline>
    <contour>
      <point x="860" y="608" type="qcurve" smooth="yes"/>
      <point x="820" y="608"/>
      <point x="820" y="608"/>
      <point x="820" y="646" type="qcurve" smooth="yes"/>
      <point x="820" y="684"/>
      <point x="820" y="684"/>
      <point x="860" y="684" type="qcurve"/>
      <point x="871" y="684"/>
      <point x="893" y="684"/>
      <point x="904" y="684" type="qcurve" smooth="yes"/>
      <point x="914" y="684"/>
      <point x="934" y="684"/>
      <point x="945" y="684" type="qcurve" smooth="yes"/>
      <point x="985" y="684"/>
      <point x="985" y="684"/>
      <point x="985" y="645" type="qcurve" smooth="yes"/>
      <point x="985" y="608"/>
      <point x="985" y="608"/>
      <point x="945" y="608" type="qcurve" smooth="yes"/>
      <point x="934" y="608"/>
      <point x="914" y="608"/>
      <point x="904" y="608" type="qcurve" smooth="yes"/>
      <point x="893" y="608"/>
      <point x="871" y="608"/>
    </contour>
    <contour>
      <point x="860" y="684" type="qcurve" smooth="yes"/>
      <point x="820" y="684"/>
      <point x="820" y="684"/>
      <point x="820" y="722" type="qcurve" smooth="yes"/>
      <point x="820" y="760"/>
      <point x="820" y="760"/>
      <point x="860" y="760" type="qcurve"/>
      <point x="871" y="760"/>
      <point x="893" y="760"/>
      <point x="904" y="760" type="qcurve" smooth="yes"/>
      <point x="914" y="760"/>
      <point x="934" y="760"/>
      <point x="945" y="760" type="qcurve" smooth="yes"/>
      <point x="985" y="760"/>
      <point x="985" y="760"/>
      <point x="985" y="721" type="qcurve" smooth="yes"/>
      <point x="985" y="684"/>
      <point x="985" y="684"/>
      <point x="945" y="684" type="qcurve" smooth="yes"/>
      <point x="931" y="684"/>
      <point x="915" y="684"/>
      <point x="904" y="684" type="qcurve" smooth="yes"/>
      <point x="897" y="684"/>
      <point x="876" y="684"/>
    </contour>
    <contour>
      <point x="860" y="1216" type="qcurve" smooth="yes"/>
      <point x="820" y="1216"/>
      <point x="820" y="1216"/>
      <point x="820" y="1254" type="qcurve" smooth="yes"/>
      <point x="820" y="1292"/>
      <point x="820" y="1292"/>
      <point x="860" y="1292" type="qcurve"/>
      <point x="881" y="1292"/>
      <point x="920" y="1292"/>
      <point x="939" y="1292" type="qcurve" smooth="yes"/>
      <point x="960" y="1292"/>
      <point x="1003" y="1292"/>
      <point x="1026" y="1292" type="qcurve" smooth="yes"/>
      <point x="1066" y="1292"/>
      <point x="1066" y="1292"/>
      <point x="1066" y="1253" type="qcurve" smooth="yes"/>
      <point x="1066" y="1216"/>
      <point x="1066" y="1216"/>
      <point x="1026" y="1216" type="qcurve" smooth="yes"/>
      <point x="1003" y="1216"/>
      <point x="960" y="1216"/>
      <point x="939" y="1216" type="qcurve" smooth="yes"/>
      <point x="920" y="1216"/>
      <point x="881" y="1216"/>
    </contour>
    <contour>
      <point x="860" y="1292" type="qcurve" smooth="yes"/>
      <point x="820" y="1292"/>
      <point x="820" y="1292"/>
      <point x="820" y="1330" type="qcurve" smooth="yes"/>
      <point x="820" y="1368"/>
      <point x="820" y="1368"/>
      <point x="860" y="1368" type="qcurve"/>
      <point x="881" y="1368"/>
      <point x="920" y="1368"/>
      <point x="939" y="1368" type="qcurve" smooth="yes"/>
      <point x="960" y="1368"/>
      <point x="1003" y="1368"/>
      <point x="1026" y="1368" type="qcurve" smooth="yes"/>
      <point x="1066" y="1368"/>
      <point x="1066" y="1368"/>
      <point x="1066" y="1329" type="qcurve" smooth="yes"/>
      <point x="1066" y="1292"/>
      <point x="1066" y="1292"/>
      <point x="1026" y="1292" type="qcurve" smooth="yes"/>
      <point x="1003" y="1292"/>
      <point x="960" y="1292"/>
      <point x="939" y="1292" type="qcurve" smooth="yes"/>
      <point x="920" y="1292"/>
      <point x="881" y="1292"/>
    </contour>
    <component base="TopElementV2" xOffset="-82"/>
    <component base="BaseTerminal" xOffset="-82"/>
    <component base="MidElement" xOffset="-82"/>
    <component base="WaistElement" xOffset="-82"/>
    <component base="RightBotTerm" xOffset="739" yOffset="608"/>
    <component base="RightTopTerminal" xOffset="820" yOffset="1216"/>
    <component base="RightTopTerminal" xOffset="739" yOffset="608"/>
  </outline>
</glyph>
<glyph name="G" format="1">
  <advance width="1265"/>
  <unicode hex="0047"/>
  <outline>
    <contour>
      <point x="917" y="-28" type="qcurve"/>
      <point x="901" y="-29"/>
      <point x="901" y="-29"/>
      <point x="901" y="8" type="qcurve"/>
      <point x="901" y="44"/>
      <point x="901" y="44"/>
      <point x="920" y="45" type="qcurve"/>
      <point x="942" y="47"/>
      <point x="974" y="52"/>
      <point x="997" y="57" type="qcurve"/>
      <point x="1018" y="62"/>
      <point x="1018" y="62"/>
      <point x="1018" y="26" type="qcurve"/>
      <point x="1018" y="-12"/>
      <point x="1018" y="-12"/>
      <point x="997" y="-17" type="qcurve"/>
      <point x="977" y="-21"/>
      <point x="934" y="-27"/>
    </contour>
    <contour>
      <point x="920" y="45" type="qcurve"/>
      <point x="901" y="44"/>
      <point x="901" y="44"/>
      <point x="901" y="80" type="qcurve"/>
      <point x="901" y="119"/>
      <point x="901" y="119"/>
      <point x="918" y="120" type="qcurve"/>
      <point x="938" y="121"/>
      <point x="970" y="126"/>
      <point x="992" y="130" type="qcurve"/>
      <point x="1018" y="137"/>
      <point x="1018" y="135"/>
      <point x="1018" y="99" type="qcurve"/>
      <point x="1018" y="62"/>
      <point x="1018" y="62"/>
      <point x="997" y="57" type="qcurve"/>
      <point x="974" y="52"/>
      <point x="942" y="47"/>
    </contour>
    <contour>
      <point x="920" y="1248" type="qcurve"/>
      <point x="900" y="1249"/>
      <point x="900" y="1249"/>
      <point x="900" y="1286" type="qcurve"/>
      <point x="900" y="1324"/>
      <point x="900" y="1324"/>
      <point x="920" y="1323" type="qcurve"/>
      <point x="937" y="1322"/>
      <point x="964" y="1318"/>
      <point x="979" y="1315" type="qcurve"/>
      <point x="995" y="1311"/>
      <point x="995" y="1311"/>
      <point x="995" y="1270" type="qcurve"/>
      <point x="995" y="1233"/>
      <point x="995" y="1233"/>
      <point x="978" y="1238" type="qcurve"/>
      <point x="965" y="1242"/>
      <point x="936" y="1247"/>
    </contour>
    <contour>
      <point x="920" y="1323" type="qcurve"/>
      <point x="900" y="1324"/>
      <point x="900" y="1324"/>
      <point x="900" y="1361" type="qcurve"/>
      <point x="900" y="1402"/>
      <point x="900" y="1402"/>
      <point x="916" y="1401" type="qcurve"/>
      <point x="929" y="1400"/>
      <point x="965" y="1396"/>
      <point x="981" y="1393" type="qcurve"/>
      <point x="995" y="1390"/>
      <point x="995" y="1390"/>
      <point x="995" y="1348" type="qcurve"/>
      <point x="995" y="1311"/>
      <point x="995" y="1311"/>
      <point x="979" y="1315" type="qcurve"/>
      <point x="964" y="1318"/>
      <point x="937" y="1322"/>
    </contour>
    <contour>
      <point x="1061" y="149" type="qcurve"/>
      <point x="1018" y="136"/>
      <point x="1018" y="136"/>
      <point x="1018" y="218" type="qcurve"/>
      <point x="1018" y="253"/>
      <point x="1018" y="382"/>
      <point x="1018" y="432" type="qcurve"/>
      <point x="1018" y="500"/>
      <point x="1018" y="500"/>
      <point x="1060" y="500" type="qcurve"/>
      <point x="1100" y="500"/>
      <point x="1100" y="500"/>
      <point x="1100" y="432" type="qcurve"/>
      <point x="1100" y="392"/>
      <point x="1100" y="273"/>
      <point x="1100" y="248" type="qcurve"/>
      <point x="1100" y="165"/>
      <point x="1100" y="165"/>
    </contour>
    <contour>
      <point x="1140" y="186" type="qcurve"/>
      <point x="1100" y="165"/>
      <point x="1100" y="165"/>
      <point x="1100" y="248" type="qcurve"/>
      <point x="1100" y="273"/>
      <point x="1100" y="392"/>
      <point x="1100" y="432" type="qcurve"/>
      <point x="1100" y="500"/>
      <point x="1100" y="500"/>
      <point x="1141" y="500" type="qcurve"/>
      <point x="1182" y="500"/>
      <point x="1182" y="500"/>
      <point x="1182" y="432" type="qcurve"/>
      <point x="1182" y="409"/>
      <point x="1182" y="317"/>
      <point x="1182" y="309" type="qcurve"/>
      <point x="1182" y="215"/>
      <point x="1182" y="215"/>
    </contour>
    <contour>
      <point x="781" y="-29" type="qcurve"/>
      <point x="738" y="-26"/>
      <point x="738" y="-26"/>
      <point x="738" y="13" type="qcurve"/>
      <point x="738" y="49"/>
      <point x="738" y="49"/>
      <point x="781" y="45" type="qcurve"/>
      <point x="820" y="44"/>
      <point x="820" y="44"/>
      <point x="820" y="9" type="qcurve"/>
      <point x="820" y="-30"/>
      <point x="820" y="-30"/>
    </contour>
    <contour>
      <point x="781" y="45" type="qcurve"/>
      <point x="738" y="49"/>
      <point x="738" y="49"/>
      <point x="738" y="82" type="qcurve"/>
      <point x="740" y="123"/>
      <point x="740" y="123"/>
      <point x="782" y="120" type="qcurve"/>
      <point x="820" y="119"/>
      <point x="820" y="119"/>
      <point x="820" y="78" type="qcurve"/>
      <point x="820" y="44"/>
      <point x="820" y="44"/>
    </contour>
    <contour>
      <point x="782" y="1248" type="qcurve"/>
      <point x="738" y="1244"/>
      <point x="738" y="1244"/>
      <point x="738" y="1287" type="qcurve" smooth="yes"/>
      <point x="738" y="1322"/>
      <point x="738" y="1322"/>
      <point x="783" y="1324" type="qcurve"/>
      <point x="820" y="1325"/>
      <point x="820" y="1325"/>
      <point x="820" y="1289" type="qcurve"/>
      <point x="820" y="1250"/>
      <point x="820" y="1250"/>
    </contour>
    <contour>
      <point x="783" y="1324" type="qcurve"/>
      <point x="738" y="1322"/>
      <point x="738" y="1322"/>
      <point x="738" y="1359" type="qcurve"/>
      <point x="738" y="1401"/>
      <point x="738" y="1401"/>
      <point x="782" y="1403" type="qcurve"/>
      <point x="820" y="1403"/>
      <point x="820" y="1403"/>
      <point x="820" y="1361" type="qcurve"/>
      <point x="820" y="1325"/>
      <point x="820" y="1325"/>
    </contour>
    <contour>
      <point x="864" y="-30" type="qcurve"/>
      <point x="820" y="-30"/>
      <point x="820" y="-30"/>
      <point x="820" y="9" type="qcurve"/>
      <point x="820" y="44"/>
      <point x="820" y="44"/>
      <point x="862" y="44" type="qcurve"/>
      <point x="901" y="44"/>
      <point x="901" y="44"/>
      <point x="901" y="9" type="qcurve"/>
      <point x="901" y="-29"/>
      <point x="901" y="-29"/>
    </contour>
    <contour>
      <point x="862" y="44" type="qcurve"/>
      <point x="820" y="44"/>
      <point x="820" y="44"/>
      <point x="820" y="78" type="qcurve"/>
      <point x="820" y="119"/>
      <point x="820" y="119"/>
      <point x="863" y="119" type="qcurve"/>
      <point x="901" y="119"/>
      <point x="901" y="119"/>
      <point x="901" y="81" type="qcurve" smooth="yes"/>
      <point x="901" y="44"/>
      <point x="901" y="44"/>
    </contour>
    <contour>
      <point x="861" y="1250" type="qcurve"/>
      <point x="820" y="1250"/>
      <point x="820" y="1250"/>
      <point x="820" y="1289" type="qcurve"/>
      <point x="820" y="1325"/>
      <point x="820" y="1325"/>
      <point x="861" y="1325" type="qcurve"/>
      <point x="900" y="1324"/>
      <point x="900" y="1324"/>
      <point x="900" y="1286" type="qcurve" smooth="yes"/>
      <point x="900" y="1249"/>
      <point x="900" y="1249"/>
    </contour>
    <contour>
      <point x="861" y="1325" type="qcurve"/>
      <point x="820" y="1325"/>
      <point x="820" y="1325"/>
      <point x="820" y="1361" type="qcurve"/>
      <point x="820" y="1403"/>
      <point x="820" y="1403"/>
      <point x="861" y="1403" type="qcurve"/>
      <point x="900" y="1402"/>
      <point x="900" y="1402"/>
      <point x="900" y="1361" type="qcurve"/>
      <point x="900" y="1324"/>
      <point x="900" y="1324"/>
    </contour>
    <contour>
      <point x="1059" y="-1" type="qcurve"/>
      <point x="1018" y="-11"/>
      <point x="1018" y="-11"/>
      <point x="1018" y="24" type="qcurve"/>
      <point x="1018" y="62"/>
      <point x="1018" y="62"/>
      <point x="1060" y="74" type="qcurve"/>
      <point x="1100" y="88"/>
      <point x="1100" y="88"/>
      <point x="1100" y="50" type="qcurve"/>
      <point x="1100" y="11"/>
      <point x="1100" y="11"/>
    </contour>
    <contour>
      <point x="1060" y="74" type="qcurve"/>
      <point x="1018" y="62"/>
      <point x="1018" y="62"/>
      <point x="1018" y="99" type="qcurve"/>
      <point x="1018" y="136"/>
      <point x="1018" y="136"/>
      <point x="1061" y="149" type="qcurve"/>
      <point x="1100" y="165"/>
      <point x="1100" y="165"/>
      <point x="1100" y="127" type="qcurve"/>
      <point x="1100" y="88"/>
      <point x="1100" y="88"/>
    </contour>
    <contour>
      <point x="1141" y="27" type="qcurve"/>
      <point x="1100" y="11"/>
      <point x="1100" y="11"/>
      <point x="1100" y="50" type="qcurve"/>
      <point x="1100" y="88"/>
      <point x="1100" y="88"/>
      <point x="1141" y="107" type="qcurve"/>
      <point x="1182" y="131"/>
      <point x="1182" y="131"/>
      <point x="1182" y="76" type="qcurve"/>
      <point x="1182" y="45"/>
      <point x="1182" y="45"/>
    </contour>
    <contour>
      <point x="1141" y="107" type="qcurve"/>
      <point x="1100" y="88"/>
      <point x="1100" y="88"/>
      <point x="1100" y="127" type="qcurve"/>
      <point x="1100" y="165"/>
      <point x="1100" y="165"/>
      <point x="1140" y="186" type="qcurve"/>
      <point x="1182" y="215"/>
      <point x="1182" y="215"/>
      <point x="1182" y="163" type="qcurve" smooth="yes"/>
      <point x="1182" y="131"/>
      <point x="1182" y="131"/>
    </contour>
    <component base="TopTerminalV3" xScale="0.25" xOffset="957" yOffset="-716"/>
    <component base="TopCurvedElement" xOffset="749" yOffset="3"/>
    <component base="RoundWaistElement270" xOffset="82"/>
    <component base="RoundDualySW" xOffset="85"/>
    <component base="RoundDualyNW" xOffset="85"/>
  </outline>
</glyph>
<glyph name="K" format="1">
  <advance width="1987"/>
  <unicode hex="004B"/>
  <outline>
    <contour>
      <point x="328" y="152" type="qcurve" smooth="yes"/>
      <point x="164" y="152"/>
      <point x="164" y="152"/>
      <point x="164" y="190" type="qcurve" smooth="yes"/>
      <point x="164" y="228"/>
      <point x="164" y="265"/>
      <point x="164" y="380" type="qcurve" smooth="yes"/>
      <point x="164" y="491"/>
      <point x="164" y="548"/>
      <point x="164" y="586" type="qcurve" smooth="yes"/>
      <point x="164" y="624"/>
      <point x="164" y="624"/>
      <point x="328" y="624" type="qcurve" smooth="yes"/>
      <point x="492" y="624"/>
      <point x="492" y="624"/>
      <point x="492" y="586" type="qcurve" smooth="yes"/>
      <point x="492" y="548"/>
      <point x="492" y="490"/>
      <point x="492" y="380" type="qcurve" smooth="yes"/>
      <point x="492" y="263"/>
      <point x="492" y="228"/>
      <point x="492" y="190" type="qcurve" smooth="yes"/>
      <point x="492" y="152"/>
      <point x="492" y="152"/>
    </contour>
    <contour>
      <point x="328" y="776" type="qcurve" smooth="yes"/>
      <point x="164" y="776"/>
      <point x="164" y="776"/>
      <point x="164" y="814" type="qcurve" smooth="yes"/>
      <point x="164" y="852"/>
      <point x="164" y="877"/>
      <point x="164" y="992" type="qcurve" smooth="yes"/>
      <point x="164" y="1103"/>
      <point x="164" y="1140"/>
      <point x="164" y="1178" type="qcurve" smooth="yes"/>
      <point x="164" y="1216"/>
      <point x="164" y="1216"/>
      <point x="328" y="1216" type="qcurve" smooth="yes"/>
      <point x="492" y="1216"/>
      <point x="492" y="1216"/>
      <point x="492" y="1178" type="qcurve" smooth="yes"/>
      <point x="492" y="1140"/>
      <point x="492" y="1102"/>
      <point x="492" y="992" type="qcurve" smooth="yes"/>
      <point x="492" y="875"/>
      <point x="492" y="852"/>
      <point x="492" y="814" type="qcurve" smooth="yes"/>
      <point x="492" y="776"/>
      <point x="492" y="776"/>
    </contour>
    <contour>
      <point x="656" y="152" type="qcurve" smooth="yes"/>
      <point x="492" y="152"/>
      <point x="492" y="152"/>
      <point x="492" y="190" type="qcurve" smooth="yes"/>
      <point x="492" y="228"/>
      <point x="492" y="265"/>
      <point x="492" y="380" type="qcurve" smooth="yes"/>
      <point x="492" y="491"/>
      <point x="492" y="548"/>
      <point x="492" y="586" type="qcurve" smooth="yes"/>
      <point x="492" y="624"/>
      <point x="492" y="624"/>
      <point x="656" y="624" type="qcurve"/>
      <point x="820" y="624"/>
      <point x="820" y="624"/>
      <point x="820" y="586" type="qcurve" smooth="yes"/>
      <point x="820" y="548"/>
      <point x="820" y="490"/>
      <point x="820" y="380" type="qcurve" smooth="yes"/>
      <point x="820" y="263"/>
      <point x="820" y="228"/>
      <point x="820" y="190" type="qcurve" smooth="yes"/>
      <point x="820" y="152"/>
      <point x="820" y="152"/>
    </contour>
    <contour>
      <point x="656" y="776" type="qcurve" smooth="yes"/>
      <point x="492" y="776"/>
      <point x="492" y="776"/>
      <point x="492" y="814" type="qcurve" smooth="yes"/>
      <point x="492" y="852"/>
      <point x="492" y="877"/>
      <point x="492" y="992" type="qcurve" smooth="yes"/>
      <point x="492" y="1103"/>
      <point x="492" y="1140"/>
      <point x="492" y="1178" type="qcurve" smooth="yes"/>
      <point x="492" y="1216"/>
      <point x="492" y="1216"/>
      <point x="656" y="1216" type="qcurve" smooth="yes"/>
      <point x="820" y="1216"/>
      <point x="820" y="1216"/>
      <point x="820" y="1178" type="qcurve" smooth="yes"/>
      <point x="820" y="1140"/>
      <point x="820" y="1102"/>
      <point x="820" y="992" type="qcurve" smooth="yes"/>
      <point x="820" y="875"/>
      <point x="820" y="852"/>
      <point x="820" y="814" type="qcurve" smooth="yes"/>
      <point x="820" y="776"/>
      <point x="820" y="776"/>
    </contour>
    <contour>
      <point x="1448" y="87" type="qcurve" smooth="yes"/>
      <point x="1420" y="113"/>
      <point x="1365" y="166"/>
      <point x="1287" y="244" type="qcurve" smooth="yes"/>
      <point x="1205" y="327"/>
      <point x="993" y="538"/>
      <point x="966" y="565" type="qcurve" smooth="yes"/>
      <point x="940" y="591"/>
      <point x="940" y="591"/>
      <point x="968" y="619" type="qcurve" smooth="yes"/>
      <point x="995" y="646"/>
      <point x="995" y="646"/>
      <point x="1022" y="620" type="qcurve" smooth="yes"/>
      <point x="1048" y="593"/>
      <point x="1261" y="381"/>
      <point x="1343" y="299" type="qcurve" smooth="yes"/>
      <point x="1421" y="221"/>
      <point x="1475" y="168"/>
      <point x="1503" y="142" type="qcurve" smooth="yes"/>
      <point x="1530" y="116"/>
      <point x="1530" y="116"/>
      <point x="1502" y="88" type="qcurve" smooth="yes"/>
      <point x="1475" y="61"/>
      <point x="1475" y="61"/>
    </contour>
    <contour>
      <point x="973" y="780" type="qcurve" smooth="yes"/>
      <point x="947" y="806"/>
      <point x="947" y="806"/>
      <point x="973" y="832" type="qcurve" smooth="yes"/>
      <point x="999" y="859"/>
      <point x="1105" y="964"/>
      <point x="1186" y="1046" type="qcurve" smooth="yes"/>
      <point x="1265" y="1124"/>
      <point x="1363" y="1222"/>
      <point x="1390" y="1249" type="qcurve" smooth="yes"/>
      <point x="1416" y="1276"/>
      <point x="1415" y="1276"/>
      <point x="1442" y="1249" type="qcurve" smooth="yes"/>
      <point x="1468" y="1223"/>
      <point x="1468" y="1223"/>
      <point x="1442" y="1197" type="qcurve" smooth="yes"/>
      <point x="1415" y="1170"/>
      <point x="1316" y="1071"/>
      <point x="1239" y="993" type="qcurve" smooth="yes"/>
      <point x="1156" y="911"/>
      <point x="1051" y="806"/>
      <point x="1025" y="780" type="qcurve" smooth="yes"/>
      <point x="999" y="754"/>
      <point x="999" y="754"/>
    </contour>
    <contour>
      <point x="1503" y="142" type="qcurve" smooth="yes"/>
      <point x="1475" y="168"/>
      <point x="1420" y="221"/>
      <point x="1343" y="299" type="qcurve" smooth="yes"/>
      <point x="1260" y="382"/>
      <point x="1048" y="593"/>
      <point x="1022" y="620" type="qcurve" smooth="yes"/>
      <point x="995" y="646"/>
      <point x="995" y="646"/>
      <point x="1023" y="674" type="qcurve" smooth="yes"/>
      <point x="1383" y="1034"/>
      <point x="1383" y="1034"/>
      <point x="1411" y="1009" type="qcurve" smooth="yes"/>
      <point x="1427" y="995"/>
      <point x="1646" y="768"/>
      <point x="1728" y="686" type="qcurve" smooth="yes"/>
      <point x="1806" y="608"/>
      <point x="1860" y="555"/>
      <point x="1888" y="529" type="qcurve" smooth="yes"/>
      <point x="1915" y="503"/>
      <point x="1915" y="503"/>
      <point x="1557" y="143" type="qcurve" smooth="yes"/>
      <point x="1530" y="116"/>
      <point x="1530" y="116"/>
    </contour>
    <contour>
      <point x="1025" y="728" type="qcurve" smooth="yes"/>
      <point x="999" y="754"/>
      <point x="999" y="754"/>
      <point x="1025" y="780" type="qcurve" smooth="yes"/>
      <point x="1051" y="806"/>
      <point x="1156" y="911"/>
      <point x="1239" y="993" type="qcurve"/>
      <point x="1316" y="1071"/>
      <point x="1414" y="1169"/>
      <point x="1442" y="1197" type="qcurve" smooth="yes"/>
      <point x="1468" y="1223"/>
      <point x="1468" y="1223"/>
      <point x="1494" y="1197" type="qcurve" smooth="yes"/>
      <point x="1520" y="1171"/>
      <point x="1520" y="1171"/>
      <point x="1494" y="1145" type="qcurve" smooth="yes"/>
      <point x="1467" y="1118"/>
      <point x="1368" y="1019"/>
      <point x="1291" y="941" type="qcurve" smooth="yes"/>
      <point x="1208" y="859"/>
      <point x="1103" y="754"/>
      <point x="1077" y="728" type="qcurve" smooth="yes"/>
      <point x="1051" y="702"/>
      <point x="1051" y="702"/>
    </contour>
    <contour>
      <point x="857" y="622" type="qcurve"/>
      <point x="820" y="624"/>
      <point x="820" y="624"/>
      <point x="820" y="662" type="qcurve"/>
      <point x="820" y="700"/>
      <point x="820" y="700"/>
      <point x="856" y="700" type="qcurve" smooth="yes"/>
      <point x="889" y="700"/>
      <point x="889" y="700"/>
      <point x="889" y="660" type="qcurve"/>
      <point x="889" y="618"/>
      <point x="889" y="618"/>
    </contour>
    <contour>
      <point x="856" y="700" type="qcurve" smooth="yes"/>
      <point x="820" y="700"/>
      <point x="820" y="700"/>
      <point x="820" y="738" type="qcurve"/>
      <point x="820" y="776"/>
      <point x="820" y="776"/>
      <point x="856" y="778" type="qcurve"/>
      <point x="889" y="782"/>
      <point x="889" y="782"/>
      <point x="889" y="738" type="qcurve"/>
      <point x="889" y="700"/>
      <point x="889" y="700"/>
    </contour>
    <contour>
      <point x="918" y="610" type="qcurve"/>
      <point x="889" y="618"/>
      <point x="889" y="618"/>
      <point x="889" y="660" type="qcurve"/>
      <point x="889" y="700"/>
      <point x="889" y="700"/>
      <point x="952" y="683" type="qcurve"/>
      <point x="995" y="646"/>
      <point x="995" y="646"/>
      <point x="968" y="619" type="qcurve"/>
      <point x="940" y="591"/>
      <point x="940" y="591"/>
    </contour>
    <contour>
      <point x="1023" y="674" type="qcurve"/>
      <point x="995" y="646"/>
      <point x="995" y="646"/>
      <point x="952" y="683" type="qcurve"/>
      <point x="889" y="700"/>
      <point x="889" y="700"/>
      <point x="952" y="721" type="qcurve"/>
      <point x="999" y="754"/>
      <point x="999" y="754"/>
      <point x="1025" y="728" type="qcurve"/>
      <point x="1051" y="702"/>
      <point x="1051" y="702"/>
    </contour>
    <contour>
      <point x="952" y="721" type="qcurve"/>
      <point x="889" y="700"/>
      <point x="889" y="700"/>
      <point x="889" y="738" type="qcurve"/>
      <point x="889" y="782"/>
      <point x="889" y="782"/>
      <point x="918" y="790" type="qcurve"/>
      <point x="947" y="806"/>
      <point x="947" y="806"/>
      <point x="973" y="780" type="qcurve"/>
      <point x="999" y="754"/>
      <point x="999" y="754"/>
    </contour>
    <component base="CWTerm" xScale="0.7071067811865476" xyScale="-0.7071067811865475" yxScale="0.7071067811865475" yScale="0.7071067811865476" xOffset="428" yOffset="537"/>
    <component base="CCWTerm" xScale="-0.7071067811865474" xyScale="-0.7071067811865477" yxScale="0.7071067811865477" yScale="-0.7071067811865474" xOffset="1177" yOffset="1490"/>
    <component base="TopTerminalV3" xOffset="-82"/>
    <component base="WaistElement" xOffset="-82" yOffset="16"/>
    <component base="BaseTerminal" xOffset="-82"/>
  </outline>
</glyph>
<glyph name="L" format="1">
  <advance width="1328"/>
  <unicode hex="004C"/>
  <outline>
    <contour>
      <point x="889" y="0" type="qcurve"/>
      <point x="826" y="0"/>
      <point x="826" y="0"/>
      <point x="826" y="38" type="qcurve"/>
      <point x="826" y="76"/>
      <point x="826" y="76"/>
      <point x="889" y="76" type="qcurve"/>
      <point x="956" y="76"/>
      <point x="1018" y="76"/>
      <point x="1082" y="76" type="qcurve"/>
      <point x="1154" y="76"/>
      <point x="1154" y="76"/>
      <point x="1154" y="38" type="qcurve"/>
      <point x="1154" y="0"/>
      <point x="1154" y="0"/>
      <point x="1082" y="0" type="qcurve"/>
      <point x="1018" y="0"/>
      <point x="956" y="0"/>
    </contour>
    <contour>
      <point x="889" y="76" type="qcurve"/>
      <point x="826" y="76"/>
      <point x="826" y="76"/>
      <point x="826" y="114" type="qcurve"/>
      <point x="826" y="152"/>
      <point x="826" y="152"/>
      <point x="889" y="152" type="qcurve"/>
      <point x="956" y="152"/>
      <point x="1018" y="152"/>
      <point x="1082" y="152" type="qcurve"/>
      <point x="1154" y="152"/>
      <point x="1154" y="152"/>
      <point x="1154" y="114" type="qcurve"/>
      <point x="1154" y="76"/>
      <point x="1154" y="76"/>
      <point x="1082" y="76" type="qcurve"/>
      <point x="1018" y="76"/>
      <point x="956" y="76"/>
    </contour>
    <component base="BaseElementV2" xOffset="-82"/>
    <component base="TopTerminalV3" xOffset="-82"/>
    <component base="MidElement" xOffset="-82"/>
    <component base="WaistElement" xOffset="-82"/>
    <component base="RightBotTerm" xOffset="908"/>
  </outline>
</glyph>
<glyph name="M" format="1">
  <advance width="2710"/>
  <unicode hex="004D"/>
  <outline>
    <contour>
      <point x="206" y="760" type="qcurve"/>
      <point x="164" y="760"/>
      <point x="164" y="760"/>
      <point x="164" y="830" type="qcurve"/>
      <point x="164" y="879"/>
      <point x="164" y="1005"/>
      <point x="164" y="1066" type="qcurve" smooth="yes"/>
      <point x="164" y="1116"/>
      <point x="164" y="1216"/>
      <point x="164" y="1285" type="qcurve"/>
      <point x="164" y="1292"/>
      <point x="164" y="1292"/>
      <point x="205" y="1292" type="qcurve"/>
      <point x="246" y="1292"/>
      <point x="246" y="1292"/>
      <point x="246" y="1285" type="qcurve"/>
      <point x="246" y="1277"/>
      <point x="246" y="1168"/>
      <point x="246" y="1062" type="qcurve" smooth="yes"/>
      <point x="246" y="984"/>
      <point x="246" y="885"/>
      <point x="246" y="830" type="qcurve"/>
      <point x="246" y="760"/>
      <point x="246" y="760"/>
    </contour>
    <contour>
      <point x="964" y="839" type="qcurve"/>
      <point x="828" y="777"/>
      <point x="828" y="777"/>
      <point x="800" y="833" type="qcurve"/>
      <point x="766" y="907"/>
      <point x="731" y="980"/>
      <point x="704" y="1036" type="qcurve"/>
      <point x="656" y="1136"/>
      <point x="595" y="1257"/>
      <point x="579" y="1288" type="qcurve"/>
      <point x="539" y="1368"/>
      <point x="539" y="1368"/>
      <point x="735" y="1368" type="qcurve"/>
      <point x="901" y="1368"/>
      <point x="901" y="1368"/>
      <point x="923" y="1317" type="qcurve"/>
      <point x="938" y="1282"/>
      <point x="979" y="1183"/>
      <point x="1004" y="1130" type="qcurve"/>
      <point x="1029" y="1072"/>
      <point x="1046" y="1038"/>
      <point x="1085" y="958" type="qcurve"/>
      <point x="1111" y="907"/>
      <point x="1111" y="907"/>
    </contour>
    <contour>
      <point x="1641" y="693" type="qcurve"/>
      <point x="1609" y="708"/>
      <point x="1609" y="708"/>
      <point x="1657" y="805" type="qcurve"/>
      <point x="1674" y="841"/>
      <point x="1734" y="967"/>
      <point x="1785" y="1078" type="qcurve" smooth="yes"/>
      <point x="1810" y="1132"/>
      <point x="1858" y="1231"/>
      <point x="1894" y="1317" type="qcurve"/>
      <point x="1916" y="1368"/>
      <point x="1916" y="1368"/>
      <point x="1937" y="1368" type="qcurve"/>
      <point x="1966" y="1368"/>
      <point x="1966" y="1368"/>
      <point x="1966" y="1318" type="qcurve"/>
      <point x="1966" y="1277"/>
      <point x="1966" y="1277"/>
      <point x="1859" y="1055" type="qcurve"/>
      <point x="1837" y="1008"/>
      <point x="1740" y="810"/>
      <point x="1726" y="780" type="qcurve"/>
      <point x="1676" y="677"/>
      <point x="1676" y="677"/>
    </contour>
    <contour>
      <point x="2376" y="760" type="qcurve"/>
      <point x="2216" y="760"/>
      <point x="2216" y="760"/>
      <point x="2216" y="829" type="qcurve"/>
      <point x="2216" y="912"/>
      <point x="2216" y="984"/>
      <point x="2216" y="1062" type="qcurve" smooth="yes"/>
      <point x="2216" y="1168"/>
      <point x="2216" y="1247"/>
      <point x="2216" y="1262" type="qcurve"/>
      <point x="2216" y="1278"/>
      <point x="2216" y="1277"/>
      <point x="2380" y="1277" type="qcurve"/>
      <point x="2546" y="1277"/>
      <point x="2546" y="1277"/>
      <point x="2546" y="1262" type="qcurve"/>
      <point x="2546" y="1216"/>
      <point x="2546" y="1116"/>
      <point x="2546" y="1066" type="qcurve" smooth="yes"/>
      <point x="2546" y="1005"/>
      <point x="2546" y="879"/>
      <point x="2546" y="830" type="qcurve"/>
      <point x="2546" y="760"/>
      <point x="2546" y="760"/>
    </contour>
    <contour>
      <point x="286" y="760" type="qcurve"/>
      <point x="246" y="760"/>
      <point x="246" y="760"/>
      <point x="246" y="830" type="qcurve"/>
      <point x="246" y="918"/>
      <point x="246" y="1115"/>
      <point x="246" y="1182" type="qcurve"/>
      <point x="246" y="1292"/>
      <point x="246" y="1292"/>
      <point x="292" y="1191" type="qcurve"/>
      <point x="328" y="1114"/>
      <point x="328" y="1114"/>
      <point x="328" y="1005" type="qcurve"/>
      <point x="328" y="953"/>
      <point x="328" y="864"/>
      <point x="328" y="830" type="qcurve"/>
      <point x="328" y="760"/>
      <point x="328" y="760"/>
    </contour>
    <contour>
      <point x="686" y="710" type="qcurve"/>
      <point x="545" y="645"/>
      <point x="545" y="645"/>
      <point x="520" y="700" type="qcurve"/>
      <point x="490" y="764"/>
      <point x="323" y="1125"/>
      <point x="292" y="1191" type="qcurve"/>
      <point x="246" y="1292"/>
      <point x="246" y="1292"/>
      <point x="246" y="1368" type="qcurve"/>
      <point x="539" y="1368"/>
      <point x="539" y="1368"/>
      <point x="637" y="1174" type="qcurve"/>
      <point x="662" y="1124"/>
      <point x="766" y="908"/>
      <point x="800" y="833" type="qcurve"/>
      <point x="828" y="777"/>
      <point x="828" y="777"/>
    </contour>
    <contour>
      <point x="822" y="152" type="qcurve"/>
      <point x="779" y="152"/>
      <point x="779" y="152"/>
      <point x="704" y="314" type="qcurve"/>
      <point x="662" y="401"/>
      <point x="652" y="421"/>
      <point x="643" y="441" type="qcurve"/>
      <point x="607" y="513"/>
      <point x="608" y="513"/>
      <point x="746" y="578" type="qcurve"/>
      <point x="891" y="644"/>
      <point x="891" y="644"/>
      <point x="926" y="569" type="qcurve"/>
      <point x="938" y="545"/>
      <point x="971" y="476"/>
      <point x="1053" y="302" type="qcurve"/>
      <point x="1123" y="152"/>
      <point x="1123" y="152"/>
    </contour>
    <contour>
      <point x="1352" y="152" type="qcurve"/>
      <point x="1123" y="152"/>
      <point x="1123" y="152"/>
      <point x="1053" y="302" type="qcurve"/>
      <point x="979" y="459"/>
      <point x="939" y="543"/>
      <point x="926" y="569" type="qcurve"/>
      <point x="891" y="644"/>
      <point x="891" y="644"/>
      <point x="1030" y="709" type="qcurve"/>
      <point x="1173" y="775"/>
      <point x="1173" y="775"/>
      <point x="1209" y="698" type="qcurve"/>
      <point x="1222" y="671"/>
      <point x="1279" y="540"/>
      <point x="1300" y="488" type="qcurve"/>
      <point x="1390" y="245"/>
      <point x="1390" y="245"/>
    </contour>
    <contour>
      <point x="1409" y="199" type="qcurve"/>
      <point x="1390" y="245"/>
      <point x="1390" y="245"/>
      <point x="1408" y="287" type="qcurve"/>
      <point x="1435" y="341"/>
      <point x="1494" y="470"/>
      <point x="1513" y="508" type="qcurve"/>
      <point x="1547" y="576"/>
      <point x="1547" y="576"/>
      <point x="1580" y="560" type="qcurve"/>
      <point x="1614" y="544"/>
      <point x="1614" y="544"/>
      <point x="1582" y="479" type="qcurve"/>
      <point x="1565" y="446"/>
      <point x="1533" y="375"/>
      <point x="1451" y="201" type="qcurve"/>
      <point x="1428" y="152"/>
      <point x="1428" y="152"/>
    </contour>
    <contour>
      <point x="1470" y="152" type="qcurve"/>
      <point x="1428" y="152"/>
      <point x="1428" y="152"/>
      <point x="1451" y="201" type="qcurve"/>
      <point x="1533" y="375"/>
      <point x="1565" y="446"/>
      <point x="1582" y="479" type="qcurve"/>
      <point x="1614" y="544"/>
      <point x="1614" y="544"/>
      <point x="1647" y="528" type="qcurve"/>
      <point x="1681" y="513"/>
      <point x="1681" y="513"/>
      <point x="1648" y="443" type="qcurve"/>
      <point x="1639" y="423"/>
      <point x="1630" y="401"/>
      <point x="1588" y="314" type="qcurve"/>
      <point x="1512" y="152"/>
      <point x="1512" y="152"/>
    </contour>
    <contour>
      <point x="1708" y="662" type="qcurve"/>
      <point x="1676" y="677"/>
      <point x="1676" y="677"/>
      <point x="1726" y="780" type="qcurve"/>
      <point x="1740" y="810"/>
      <point x="1835" y="1004"/>
      <point x="1859" y="1055" type="qcurve"/>
      <point x="1884" y="1107"/>
      <point x="1884" y="1107"/>
      <point x="1884" y="1032" type="qcurve"/>
      <point x="1884" y="953"/>
      <point x="1884" y="953"/>
      <point x="1861" y="898" type="qcurve"/>
      <point x="1852" y="879"/>
      <point x="1799" y="767"/>
      <point x="1790" y="747" type="qcurve"/>
      <point x="1743" y="646"/>
      <point x="1743" y="646"/>
    </contour>
    <contour>
      <point x="2042" y="760" type="qcurve"/>
      <point x="1884" y="760"/>
      <point x="1884" y="760"/>
      <point x="1884" y="830" type="qcurve"/>
      <point x="1884" y="864"/>
      <point x="1884" y="953"/>
      <point x="1884" y="1005" type="qcurve"/>
      <point x="1884" y="1107"/>
      <point x="1884" y="1107"/>
      <point x="1966" y="1277" type="qcurve"/>
      <point x="2215" y="1277"/>
      <point x="2216" y="1277"/>
      <point x="2216" y="1182" type="qcurve"/>
      <point x="2216" y="1115"/>
      <point x="2216" y="913"/>
      <point x="2216" y="830" type="qcurve"/>
      <point x="2216" y="760"/>
      <point x="2216" y="760"/>
    </contour>
    <contour>
      <point x="876" y="0" type="qcurve" smooth="yes"/>
      <point x="848" y="0"/>
      <point x="848" y="0"/>
      <point x="831" y="39" type="qcurve"/>
      <point x="812" y="80"/>
      <point x="812" y="80"/>
      <point x="856" y="80" type="qcurve"/>
      <point x="1390" y="80"/>
      <point x="1390" y="80"/>
      <point x="1390" y="39" type="qcurve" smooth="yes"/>
      <point x="1390" y="0"/>
      <point x="1390" y="0"/>
    </contour>
    <contour>
      <point x="856" y="80" type="qcurve"/>
      <point x="812" y="80"/>
      <point x="812" y="80"/>
      <point x="796" y="116" type="qcurve"/>
      <point x="779" y="152"/>
      <point x="779" y="152"/>
      <point x="822" y="152" type="qcurve"/>
      <point x="1352" y="152"/>
      <point x="1352" y="152"/>
      <point x="1370" y="118" type="qcurve"/>
      <point x="1390" y="80"/>
      <point x="1390" y="80"/>
    </contour>
    <contour>
      <point x="1416" y="0" type="qcurve" smooth="yes"/>
      <point x="1390" y="0"/>
      <point x="1390" y="0"/>
      <point x="1390" y="39" type="qcurve" smooth="yes"/>
      <point x="1390" y="80"/>
      <point x="1390" y="80"/>
      <point x="1436" y="80" type="qcurve"/>
      <point x="1479" y="80"/>
      <point x="1479" y="80"/>
      <point x="1461" y="39" type="qcurve"/>
      <point x="1444" y="0"/>
      <point x="1444" y="0"/>
    </contour>
    <contour>
      <point x="1436" y="80" type="qcurve"/>
      <point x="1390" y="80"/>
      <point x="1390" y="80"/>
      <point x="1410" y="118" type="qcurve"/>
      <point x="1428" y="152"/>
      <point x="1428" y="152"/>
      <point x="1470" y="152" type="qcurve"/>
      <point x="1512" y="152"/>
      <point x="1512" y="152"/>
      <point x="1495" y="116" type="qcurve"/>
      <point x="1479" y="80"/>
      <point x="1479" y="80"/>
    </contour>
    <contour>
      <point x="1390" y="80" type="qcurve"/>
      <point x="1352" y="152"/>
      <point x="1352" y="152"/>
      <point x="1371" y="199" type="qcurve"/>
      <point x="1390" y="245"/>
      <point x="1390" y="245"/>
      <point x="1409" y="199" type="qcurve"/>
      <point x="1428" y="152"/>
      <point x="1428" y="152"/>
    </contour>
    <contour>
      <point x="205" y="1292" type="qcurve" smooth="yes"/>
      <point x="164" y="1292"/>
      <point x="164" y="1292"/>
      <point x="164" y="1330" type="qcurve"/>
      <point x="164" y="1368"/>
      <point x="164" y="1368"/>
      <point x="205" y="1368" type="qcurve" smooth="yes"/>
      <point x="246" y="1368"/>
      <point x="246" y="1368"/>
      <point x="246" y="1330" type="qcurve"/>
      <point x="246" y="1292"/>
      <point x="246" y="1292"/>
    </contour>
    <contour>
      <point x="2253" y="1277" type="qcurve" smooth="yes"/>
      <point x="1966" y="1277"/>
      <point x="1966" y="1277"/>
      <point x="1966" y="1330" type="qcurve"/>
      <point x="1966" y="1368"/>
      <point x="1966" y="1368"/>
      <point x="2253" y="1368" type="qcurve" smooth="yes"/>
      <point x="2546" y="1368"/>
      <point x="2546" y="1368"/>
      <point x="2546" y="1330" type="qcurve"/>
      <point x="2546" y="1277"/>
      <point x="2546" y="1277"/>
    </contour>
    <contour>
      <point x="205" y="152" type="qcurve" smooth="yes"/>
      <point x="164" y="152"/>
      <point x="164" y="152"/>
      <point x="164" y="190" type="qcurve" smooth="yes"/>
      <point x="164" y="228"/>
      <point x="164" y="265"/>
      <point x="164" y="380" type="qcurve" smooth="yes"/>
      <point x="164" y="491"/>
      <point x="164" y="532"/>
      <point x="164" y="570" type="qcurve" smooth="yes"/>
      <point x="164" y="608"/>
      <point x="164" y="608"/>
      <point x="205" y="608" type="qcurve" smooth="yes"/>
      <point x="246" y="608"/>
      <point x="246" y="608"/>
      <point x="246" y="570" type="qcurve" smooth="yes"/>
      <point x="246" y="532"/>
      <point x="246" y="490"/>
      <point x="246" y="380" type="qcurve" smooth="yes"/>
      <point x="246" y="263"/>
      <point x="246" y="228"/>
      <point x="246" y="190" type="qcurve" smooth="yes"/>
      <point x="246" y="152"/>
      <point x="246" y="152"/>
    </contour>
    <contour>
      <point x="287" y="152" type="qcurve" smooth="yes"/>
      <point x="246" y="152"/>
      <point x="246" y="152"/>
      <point x="246" y="190" type="qcurve" smooth="yes"/>
      <point x="246" y="228"/>
      <point x="246" y="265"/>
      <point x="246" y="380" type="qcurve" smooth="yes"/>
      <point x="246" y="491"/>
      <point x="246" y="532"/>
      <point x="246" y="570" type="qcurve" smooth="yes"/>
      <point x="246" y="608"/>
      <point x="246" y="608"/>
      <point x="287" y="608" type="qcurve"/>
      <point x="328" y="608"/>
      <point x="328" y="608"/>
      <point x="328" y="570" type="qcurve" smooth="yes"/>
      <point x="328" y="532"/>
      <point x="328" y="490"/>
      <point x="328" y="380" type="qcurve" smooth="yes"/>
      <point x="328" y="263"/>
      <point x="328" y="228"/>
      <point x="328" y="190" type="qcurve" smooth="yes"/>
      <point x="328" y="152"/>
      <point x="328" y="152"/>
    </contour>
    <contour>
      <point x="205" y="0" type="qcurve" smooth="yes"/>
      <point x="164" y="0"/>
      <point x="164" y="0"/>
      <point x="164" y="38" type="qcurve"/>
      <point x="164" y="76"/>
      <point x="164" y="76"/>
      <point x="205" y="76" type="qcurve" smooth="yes"/>
      <point x="246" y="76"/>
      <point x="246" y="76"/>
      <point x="246" y="38" type="qcurve"/>
      <point x="246" y="0"/>
      <point x="246" y="0"/>
    </contour>
    <contour>
      <point x="205" y="76" type="qcurve" smooth="yes"/>
      <point x="164" y="76"/>
      <point x="164" y="76"/>
      <point x="164" y="114" type="qcurve"/>
      <point x="164" y="152"/>
      <point x="164" y="152"/>
      <point x="205" y="152" type="qcurve" smooth="yes"/>
      <point x="246" y="152"/>
      <point x="246" y="152"/>
      <point x="246" y="114" type="qcurve"/>
      <point x="246" y="76"/>
      <point x="246" y="76"/>
    </contour>
    <contour>
      <point x="287" y="0" type="qcurve" smooth="yes"/>
      <point x="246" y="0"/>
      <point x="246" y="0"/>
      <point x="246" y="38" type="qcurve"/>
      <point x="246" y="76"/>
      <point x="246" y="76"/>
      <point x="287" y="76" type="qcurve" smooth="yes"/>
      <point x="328" y="76"/>
      <point x="328" y="76"/>
      <point x="328" y="38" type="qcurve"/>
      <point x="328" y="0"/>
      <point x="328" y="0"/>
    </contour>
    <contour>
      <point x="287" y="76" type="qcurve" smooth="yes"/>
      <point x="246" y="76"/>
      <point x="246" y="76"/>
      <point x="246" y="114" type="qcurve"/>
      <point x="246" y="152"/>
      <point x="246" y="152"/>
      <point x="287" y="152" type="qcurve" smooth="yes"/>
      <point x="328" y="152"/>
      <point x="328" y="152"/>
      <point x="328" y="114" type="qcurve"/>
      <point x="328" y="76"/>
      <point x="328" y="76"/>
    </contour>
    <contour>
      <point x="205" y="608" type="qcurve" smooth="yes"/>
      <point x="164" y="608"/>
      <point x="164" y="608"/>
      <point x="164" y="646" type="qcurve"/>
      <point x="164" y="684"/>
      <point x="164" y="684"/>
      <point x="205" y="684" type="qcurve" smooth="yes"/>
      <point x="246" y="684"/>
      <point x="246" y="684"/>
      <point x="246" y="646" type="qcurve"/>
      <point x="246" y="608"/>
      <point x="246" y="608"/>
    </contour>
    <contour>
      <point x="205" y="684" type="qcurve" smooth="yes"/>
      <point x="164" y="684"/>
      <point x="164" y="684"/>
      <point x="164" y="722" type="qcurve"/>
      <point x="164" y="760"/>
      <point x="164" y="760"/>
      <point x="205" y="760" type="qcurve" smooth="yes"/>
      <point x="246" y="760"/>
      <point x="246" y="760"/>
      <point x="246" y="722" type="qcurve"/>
      <point x="246" y="684"/>
      <point x="246" y="684"/>
    </contour>
    <contour>
      <point x="287" y="608" type="qcurve" smooth="yes"/>
      <point x="246" y="608"/>
      <point x="246" y="608"/>
      <point x="246" y="646" type="qcurve"/>
      <point x="246" y="684"/>
      <point x="246" y="684"/>
      <point x="287" y="684" type="qcurve" smooth="yes"/>
      <point x="328" y="684"/>
      <point x="328" y="684"/>
      <point x="328" y="646" type="qcurve"/>
      <point x="328" y="608"/>
      <point x="328" y="608"/>
    </contour>
    <contour>
      <point x="287" y="684" type="qcurve" smooth="yes"/>
      <point x="246" y="684"/>
      <point x="246" y="684"/>
      <point x="246" y="722" type="qcurve"/>
      <point x="246" y="760"/>
      <point x="246" y="760"/>
      <point x="287" y="760" type="qcurve" smooth="yes"/>
      <point x="328" y="760"/>
      <point x="328" y="760"/>
      <point x="328" y="722" type="qcurve"/>
      <point x="328" y="684"/>
      <point x="328" y="684"/>
    </contour>
    <component base="BaseTerminal" xOffset="1638"/>
    <component base="WaistElement" xOffset="1638"/>
    <component base="MidStemBot" xOffset="1638"/>
    <component base="CCWWaist" xScale="0.9063077870366499" xyScale="0.42261826174069944" yxScale="-0.42261826174069944" yScale="0.9063077870366499" xOffset="706" yOffset="-116"/>
    <component base="CWWaist" xScale="0.9063077870366499" xyScale="-0.42261826174069944" yxScale="0.42261826174069944" yScale="0.9063077870366499" xOffset="1129" yOffset="96"/>
  </outline>
</glyph>
<glyph name="N" format="1">
  <advance width="2016"/>
  <unicode hex="004E"/>
  <outline>
    <contour>
      <point x="286" y="760" type="qcurve"/>
      <point x="246" y="760"/>
      <point x="246" y="760"/>
      <point x="246" y="830" type="qcurve"/>
      <point x="246" y="866"/>
      <point x="246" y="1109"/>
      <point x="246" y="1206" type="qcurve"/>
      <point x="246" y="1287"/>
      <point x="246" y="1287"/>
      <point x="289" y="1287" type="qcurve"/>
      <point x="328" y="1287"/>
      <point x="328" y="1287"/>
      <point x="328" y="1252" type="qcurve"/>
      <point x="328" y="1050"/>
      <point x="328" y="1050"/>
      <point x="328" y="999" type="qcurve"/>
      <point x="328" y="952"/>
      <point x="328" y="866"/>
      <point x="328" y="830" type="qcurve"/>
      <point x="328" y="760"/>
      <point x="328" y="760"/>
    </contour>
    <contour>
      <point x="1079" y="930" type="qcurve"/>
      <point x="959" y="825"/>
      <point x="959" y="825"/>
      <point x="911" y="877" type="qcurve"/>
      <point x="828" y="972"/>
      <point x="570" y="1276"/>
      <point x="562" y="1287" type="qcurve"/>
      <point x="246" y="1287"/>
      <point x="246" y="1287"/>
      <point x="246" y="1329" type="qcurve"/>
      <point x="246" y="1368"/>
      <point x="246" y="1368"/>
      <point x="566" y="1368" type="qcurve"/>
      <point x="903" y="1368"/>
      <point x="903" y="1368"/>
      <point x="934" y="1335" type="qcurve"/>
      <point x="989" y="1279"/>
      <point x="1109" y="1147"/>
      <point x="1167" y="1091" type="qcurve"/>
      <point x="1210" y="1046"/>
      <point x="1210" y="1046"/>
    </contour>
    <contour>
      <point x="1750" y="0" type="qcurve"/>
      <point x="1297" y="0"/>
      <point x="1299" y="-1"/>
      <point x="1260" y="38" type="qcurve"/>
      <point x="1195" y="104"/>
      <point x="1043" y="267"/>
      <point x="996" y="314" type="qcurve"/>
      <point x="816" y="495"/>
      <point x="816" y="495"/>
      <point x="942" y="609" type="qcurve"/>
      <point x="1061" y="712"/>
      <point x="1061" y="712"/>
      <point x="1106" y="661" type="qcurve"/>
      <point x="1189" y="563"/>
      <point x="1548" y="188"/>
      <point x="1644" y="81" type="qcurve"/>
      <point x="1770" y="81"/>
      <point x="1770" y="81"/>
      <point x="1770" y="41" type="qcurve"/>
      <point x="1770" y="0"/>
      <point x="1770" y="0"/>
    </contour>
    <contour>
      <point x="1688" y="81" type="qcurve"/>
      <point x="1688" y="93"/>
      <point x="1688" y="215"/>
      <point x="1688" y="261" type="qcurve"/>
      <point x="1688" y="276"/>
      <point x="1688" y="322"/>
      <point x="1688" y="369" type="qcurve" smooth="yes"/>
      <point x="1688" y="416"/>
      <point x="1688" y="502"/>
      <point x="1688" y="538" type="qcurve"/>
      <point x="1688" y="608"/>
      <point x="1688" y="608"/>
      <point x="1730" y="608" type="qcurve"/>
      <point x="1770" y="608"/>
      <point x="1770" y="608"/>
      <point x="1770" y="538" type="qcurve"/>
      <point x="1770" y="502"/>
      <point x="1770" y="259"/>
      <point x="1770" y="162" type="qcurve"/>
      <point x="1770" y="81"/>
      <point x="1770" y="81"/>
    </contour>
    <contour>
      <point x="204" y="760" type="qcurve"/>
      <point x="164" y="760"/>
      <point x="164" y="760"/>
      <point x="164" y="830" type="qcurve"/>
      <point x="164" y="866"/>
      <point x="164" y="1201"/>
      <point x="164" y="1271" type="qcurve"/>
      <point x="164" y="1287"/>
      <point x="164" y="1287"/>
      <point x="205" y="1287" type="qcurve"/>
      <point x="246" y="1287"/>
      <point x="246" y="1287"/>
      <point x="246" y="1271" type="qcurve"/>
      <point x="246" y="1206"/>
      <point x="246" y="866"/>
      <point x="246" y="830" type="qcurve"/>
      <point x="246" y="760"/>
      <point x="246" y="760"/>
    </contour>
    <contour>
      <point x="838" y="716" type="qcurve"/>
      <point x="714" y="608"/>
      <point x="714" y="608"/>
      <point x="666" y="661" type="qcurve"/>
      <point x="584" y="753"/>
      <point x="434" y="934"/>
      <point x="373" y="1005" type="qcurve"/>
      <point x="328" y="1056"/>
      <point x="328" y="1055"/>
      <point x="328" y="1165" type="qcurve"/>
      <point x="328" y="1287"/>
      <point x="328" y="1287"/>
      <point x="562" y="1287" type="qcurve"/>
      <point x="682" y="1144"/>
      <point x="829" y="972"/>
      <point x="911" y="877" type="qcurve"/>
      <point x="959" y="825"/>
      <point x="959" y="825"/>
    </contour>
    <contour>
      <point x="1688" y="261" type="qcurve"/>
      <point x="1688" y="81"/>
      <point x="1688" y="81"/>
      <point x="1644" y="81" type="qcurve"/>
      <point x="1549" y="187"/>
      <point x="1189" y="563"/>
      <point x="1106" y="661" type="qcurve"/>
      <point x="1061" y="712"/>
      <point x="1061" y="712"/>
      <point x="1185" y="823" type="qcurve"/>
      <point x="1310" y="933"/>
      <point x="1310" y="933"/>
      <point x="1363" y="875" type="qcurve"/>
      <point x="1452" y="779"/>
      <point x="1613" y="609"/>
      <point x="1656" y="563" type="qcurve"/>
      <point x="1688" y="532"/>
      <point x="1688" y="532"/>
    </contour>
    <contour>
      <point x="1811" y="81" type="qcurve"/>
      <point x="1770" y="81"/>
      <point x="1770" y="81"/>
      <point x="1770" y="99" type="qcurve"/>
      <point x="1770" y="167"/>
      <point x="1770" y="502"/>
      <point x="1770" y="538" type="qcurve"/>
      <point x="1770" y="608"/>
      <point x="1770" y="608"/>
      <point x="1812" y="608" type="qcurve"/>
      <point x="1852" y="608"/>
      <point x="1852" y="608"/>
      <point x="1852" y="538" type="qcurve"/>
      <point x="1852" y="502"/>
      <point x="1852" y="167"/>
      <point x="1852" y="99" type="qcurve"/>
      <point x="1852" y="81"/>
      <point x="1852" y="81"/>
    </contour>
    <contour>
      <point x="205" y="1287" type="qcurve" smooth="yes"/>
      <point x="164" y="1287"/>
      <point x="164" y="1287"/>
      <point x="164" y="1330" type="qcurve"/>
      <point x="164" y="1368"/>
      <point x="164" y="1368"/>
      <point x="205" y="1368" type="qcurve" smooth="yes"/>
      <point x="246" y="1368"/>
      <point x="246" y="1368"/>
      <point x="246" y="1330" type="qcurve"/>
      <point x="246" y="1287"/>
      <point x="246" y="1287"/>
    </contour>
    <contour>
      <point x="1811" y="0" type="qcurve" smooth="yes"/>
      <point x="1770" y="0"/>
      <point x="1770" y="0"/>
      <point x="1770" y="41" type="qcurve"/>
      <point x="1770" y="81"/>
      <point x="1770" y="81"/>
      <point x="1811" y="81" type="qcurve" smooth="yes"/>
      <point x="1852" y="81"/>
      <point x="1852" y="81"/>
      <point x="1852" y="41" type="qcurve"/>
      <point x="1852" y="0"/>
      <point x="1852" y="0"/>
    </contour>
    <contour>
      <point x="205" y="0" type="qcurve" smooth="yes"/>
      <point x="164" y="0"/>
      <point x="164" y="0"/>
      <point x="164" y="38" type="qcurve"/>
      <point x="164" y="76"/>
      <point x="164" y="76"/>
      <point x="205" y="76" type="qcurve" smooth="yes"/>
      <point x="246" y="76"/>
      <point x="246" y="76"/>
      <point x="246" y="38" type="qcurve"/>
      <point x="246" y="0"/>
      <point x="246" y="0"/>
    </contour>
    <contour>
      <point x="205" y="76" type="qcurve" smooth="yes"/>
      <point x="164" y="76"/>
      <point x="164" y="76"/>
      <point x="164" y="114" type="qcurve"/>
      <point x="164" y="152"/>
      <point x="164" y="152"/>
      <point x="205" y="152" type="qcurve" smooth="yes"/>
      <point x="246" y="152"/>
      <point x="246" y="152"/>
      <point x="246" y="114" type="qcurve"/>
      <point x="246" y="76"/>
      <point x="246" y="76"/>
    </contour>
    <contour>
      <point x="287" y="0" type="qcurve" smooth="yes"/>
      <point x="246" y="0"/>
      <point x="246" y="0"/>
      <point x="246" y="38" type="qcurve"/>
      <point x="246" y="76"/>
      <point x="246" y="76"/>
      <point x="287" y="76" type="qcurve" smooth="yes"/>
      <point x="328" y="76"/>
      <point x="328" y="76"/>
      <point x="328" y="38" type="qcurve"/>
      <point x="328" y="0"/>
      <point x="328" y="0"/>
    </contour>
    <contour>
      <point x="287" y="76" type="qcurve" smooth="yes"/>
      <point x="246" y="76"/>
      <point x="246" y="76"/>
      <point x="246" y="114" type="qcurve"/>
      <point x="246" y="152"/>
      <point x="246" y="152"/>
      <point x="287" y="152" type="qcurve" smooth="yes"/>
      <point x="328" y="152"/>
      <point x="328" y="152"/>
      <point x="328" y="114" type="qcurve"/>
      <point x="328" y="76"/>
      <point x="328" y="76"/>
    </contour>
    <contour>
      <point x="1729" y="1216" type="qcurve" smooth="yes"/>
      <point x="1688" y="1216"/>
      <point x="1688" y="1216"/>
      <point x="1688" y="1254" type="qcurve"/>
      <point x="1688" y="1292"/>
      <point x="1688" y="1292"/>
      <point x="1729" y="1292" type="qcurve" smooth="yes"/>
      <point x="1770" y="1292"/>
      <point x="1770" y="1292"/>
      <point x="1770" y="1254" type="qcurve"/>
      <point x="1770" y="1216"/>
      <point x="1770" y="1216"/>
    </contour>
    <contour>
      <point x="1729" y="1292" type="qcurve" smooth="yes"/>
      <point x="1688" y="1292"/>
      <point x="1688" y="1292"/>
      <point x="1688" y="1330" type="qcurve"/>
      <point x="1688" y="1368"/>
      <point x="1688" y="1368"/>
      <point x="1729" y="1368" type="qcurve" smooth="yes"/>
      <point x="1770" y="1368"/>
      <point x="1770" y="1368"/>
      <point x="1770" y="1330" type="qcurve"/>
      <point x="1770" y="1292"/>
      <point x="1770" y="1292"/>
    </contour>
    <contour>
      <point x="1811" y="1216" type="qcurve" smooth="yes"/>
      <point x="1770" y="1216"/>
      <point x="1770" y="1216"/>
      <point x="1770" y="1254" type="qcurve"/>
      <point x="1770" y="1292"/>
      <point x="1770" y="1292"/>
      <point x="1811" y="1292" type="qcurve" smooth="yes"/>
      <point x="1852" y="1292"/>
      <point x="1852" y="1292"/>
      <point x="1852" y="1254" type="qcurve"/>
      <point x="1852" y="1216"/>
      <point x="1852" y="1216"/>
    </contour>
    <contour>
      <point x="1811" y="1292" type="qcurve" smooth="yes"/>
      <point x="1770" y="1292"/>
      <point x="1770" y="1292"/>
      <point x="1770" y="1330" type="qcurve"/>
      <point x="1770" y="1368"/>
      <point x="1770" y="1368"/>
      <point x="1811" y="1368" type="qcurve" smooth="yes"/>
      <point x="1852" y="1368"/>
      <point x="1852" y="1368"/>
      <point x="1852" y="1330" type="qcurve"/>
      <point x="1852" y="1292"/>
      <point x="1852" y="1292"/>
    </contour>
    <contour>
      <point x="205" y="152" type="qcurve" smooth="yes"/>
      <point x="164" y="152"/>
      <point x="164" y="152"/>
      <point x="164" y="190" type="qcurve" smooth="yes"/>
      <point x="164" y="228"/>
      <point x="164" y="265"/>
      <point x="164" y="380" type="qcurve" smooth="yes"/>
      <point x="164" y="491"/>
      <point x="164" y="532"/>
      <point x="164" y="570" type="qcurve" smooth="yes"/>
      <point x="164" y="608"/>
      <point x="164" y="608"/>
      <point x="205" y="608" type="qcurve" smooth="yes"/>
      <point x="246" y="608"/>
      <point x="246" y="608"/>
      <point x="246" y="570" type="qcurve" smooth="yes"/>
      <point x="246" y="532"/>
      <point x="246" y="490"/>
      <point x="246" y="380" type="qcurve" smooth="yes"/>
      <point x="246" y="263"/>
      <point x="246" y="228"/>
      <point x="246" y="190" type="qcurve" smooth="yes"/>
      <point x="246" y="152"/>
      <point x="246" y="152"/>
    </contour>
    <contour>
      <point x="287" y="152" type="qcurve" smooth="yes"/>
      <point x="246" y="152"/>
      <point x="246" y="152"/>
      <point x="246" y="190" type="qcurve" smooth="yes"/>
      <point x="246" y="228"/>
      <point x="246" y="265"/>
      <point x="246" y="380" type="qcurve" smooth="yes"/>
      <point x="246" y="491"/>
      <point x="246" y="532"/>
      <point x="246" y="570" type="qcurve" smooth="yes"/>
      <point x="246" y="608"/>
      <point x="246" y="608"/>
      <point x="287" y="608" type="qcurve"/>
      <point x="328" y="608"/>
      <point x="328" y="608"/>
      <point x="328" y="570" type="qcurve" smooth="yes"/>
      <point x="328" y="532"/>
      <point x="328" y="490"/>
      <point x="328" y="380" type="qcurve" smooth="yes"/>
      <point x="328" y="263"/>
      <point x="328" y="228"/>
      <point x="328" y="190" type="qcurve" smooth="yes"/>
      <point x="328" y="152"/>
      <point x="328" y="152"/>
    </contour>
    <contour>
      <point x="1729" y="760" type="qcurve" smooth="yes"/>
      <point x="1688" y="760"/>
      <point x="1688" y="760"/>
      <point x="1688" y="798" type="qcurve" smooth="yes"/>
      <point x="1688" y="836"/>
      <point x="1688" y="877"/>
      <point x="1688" y="992" type="qcurve" smooth="yes"/>
      <point x="1688" y="1103"/>
      <point x="1688" y="1140"/>
      <point x="1688" y="1178" type="qcurve" smooth="yes"/>
      <point x="1688" y="1216"/>
      <point x="1688" y="1216"/>
      <point x="1729" y="1216" type="qcurve" smooth="yes"/>
      <point x="1770" y="1216"/>
      <point x="1770" y="1216"/>
      <point x="1770" y="1178" type="qcurve" smooth="yes"/>
      <point x="1770" y="1140"/>
      <point x="1770" y="1102"/>
      <point x="1770" y="992" type="qcurve" smooth="yes"/>
      <point x="1770" y="875"/>
      <point x="1770" y="836"/>
      <point x="1770" y="798" type="qcurve" smooth="yes"/>
      <point x="1770" y="760"/>
      <point x="1770" y="760"/>
    </contour>
    <contour>
      <point x="1811" y="760" type="qcurve" smooth="yes"/>
      <point x="1770" y="760"/>
      <point x="1770" y="760"/>
      <point x="1770" y="798" type="qcurve" smooth="yes"/>
      <point x="1770" y="836"/>
      <point x="1770" y="877"/>
      <point x="1770" y="992" type="qcurve" smooth="yes"/>
      <point x="1770" y="1103"/>
      <point x="1770" y="1140"/>
      <point x="1770" y="1178" type="qcurve" smooth="yes"/>
      <point x="1770" y="1216"/>
      <point x="1770" y="1216"/>
      <point x="1811" y="1216" type="qcurve" smooth="yes"/>
      <point x="1852" y="1216"/>
      <point x="1852" y="1216"/>
      <point x="1852" y="1178" type="qcurve" smooth="yes"/>
      <point x="1852" y="1140"/>
      <point x="1852" y="1102"/>
      <point x="1852" y="992" type="qcurve" smooth="yes"/>
      <point x="1852" y="875"/>
      <point x="1852" y="836"/>
      <point x="1852" y="798" type="qcurve" smooth="yes"/>
      <point x="1852" y="760"/>
      <point x="1852" y="760"/>
    </contour>
    <contour>
      <point x="205" y="608" type="qcurve" smooth="yes"/>
      <point x="164" y="608"/>
      <point x="164" y="608"/>
      <point x="164" y="646" type="qcurve"/>
      <point x="164" y="684"/>
      <point x="164" y="684"/>
      <point x="205" y="684" type="qcurve" smooth="yes"/>
      <point x="246" y="684"/>
      <point x="246" y="684"/>
      <point x="246" y="646" type="qcurve"/>
      <point x="246" y="608"/>
      <point x="246" y="608"/>
    </contour>
    <contour>
      <point x="205" y="684" type="qcurve" smooth="yes"/>
      <point x="164" y="684"/>
      <point x="164" y="684"/>
      <point x="164" y="722" type="qcurve"/>
      <point x="164" y="760"/>
      <point x="164" y="760"/>
      <point x="205" y="760" type="qcurve" smooth="yes"/>
      <point x="246" y="760"/>
      <point x="246" y="760"/>
      <point x="246" y="722" type="qcurve"/>
      <point x="246" y="684"/>
      <point x="246" y="684"/>
    </contour>
    <contour>
      <point x="287" y="608" type="qcurve" smooth="yes"/>
      <point x="246" y="608"/>
      <point x="246" y="608"/>
      <point x="246" y="646" type="qcurve"/>
      <point x="246" y="684"/>
      <point x="246" y="684"/>
      <point x="287" y="684" type="qcurve" smooth="yes"/>
      <point x="328" y="684"/>
      <point x="328" y="684"/>
      <point x="328" y="646" type="qcurve"/>
      <point x="328" y="608"/>
      <point x="328" y="608"/>
    </contour>
    <contour>
      <point x="287" y="684" type="qcurve" smooth="yes"/>
      <point x="246" y="684"/>
      <point x="246" y="684"/>
      <point x="246" y="722" type="qcurve"/>
      <point x="246" y="760"/>
      <point x="246" y="760"/>
      <point x="287" y="760" type="qcurve" smooth="yes"/>
      <point x="328" y="760"/>
      <point x="328" y="760"/>
      <point x="328" y="722" type="qcurve"/>
      <point x="328" y="684"/>
      <point x="328" y="684"/>
    </contour>
    <contour>
      <point x="1729" y="608" type="qcurve" smooth="yes"/>
      <point x="1688" y="608"/>
      <point x="1688" y="608"/>
      <point x="1688" y="646" type="qcurve"/>
      <point x="1688" y="684"/>
      <point x="1688" y="684"/>
      <point x="1729" y="684" type="qcurve" smooth="yes"/>
      <point x="1770" y="684"/>
      <point x="1770" y="684"/>
      <point x="1770" y="646" type="qcurve"/>
      <point x="1770" y="608"/>
      <point x="1770" y="608"/>
    </contour>
    <contour>
      <point x="1729" y="684" type="qcurve" smooth="yes"/>
      <point x="1688" y="684"/>
      <point x="1688" y="684"/>
      <point x="1688" y="722" type="qcurve"/>
      <point x="1688" y="760"/>
      <point x="1688" y="760"/>
      <point x="1729" y="760" type="qcurve" smooth="yes"/>
      <point x="1770" y="760"/>
      <point x="1770" y="760"/>
      <point x="1770" y="722" type="qcurve"/>
      <point x="1770" y="684"/>
      <point x="1770" y="684"/>
    </contour>
    <contour>
      <point x="1811" y="608" type="qcurve" smooth="yes"/>
      <point x="1770" y="608"/>
      <point x="1770" y="608"/>
      <point x="1770" y="646" type="qcurve"/>
      <point x="1770" y="684"/>
      <point x="1770" y="684"/>
      <point x="1811" y="684" type="qcurve" smooth="yes"/>
      <point x="1852" y="684"/>
      <point x="1852" y="684"/>
      <point x="1852" y="646" type="qcurve"/>
      <point x="1852" y="608"/>
      <point x="1852" y="608"/>
    </contour>
    <contour>
      <point x="1811" y="684" type="qcurve" smooth="yes"/>
      <point x="1770" y="684"/>
      <point x="1770" y="684"/>
      <point x="1770" y="722" type="qcurve"/>
      <point x="1770" y="760"/>
      <point x="1770" y="760"/>
      <point x="1811" y="760" type="qcurve" smooth="yes"/>
      <point x="1852" y="760"/>
      <point x="1852" y="760"/>
      <point x="1852" y="722" type="qcurve"/>
      <point x="1852" y="684"/>
      <point x="1852" y="684"/>
    </contour>
    <component base="WaistElement" xScale="0.7493523459427383" xyScale="0.6621714744913996" yxScale="-0.6621714744913996" yScale="0.7493523459427383" xOffset="1033" yOffset="-124"/>
  </outline>
</glyph>
<glyph name="Q" format="1">
  <advance width="1665"/>
  <unicode hex="0051"/>
  <outline>
    <contour>
      <point x="805" y="-262" type="qcurve"/>
      <point x="763" y="-262"/>
      <point x="763" y="-262"/>
      <point x="763" y="-198" type="qcurve"/>
      <point x="763" y="-182"/>
      <point x="763" y="-154"/>
      <point x="763" y="-135" type="qcurve" smooth="yes"/>
      <point x="763" y="-114"/>
      <point x="763" y="-97"/>
      <point x="763" y="-66" type="qcurve"/>
      <point x="763" y="-25"/>
      <point x="763" y="-25"/>
      <point x="804" y="-28" type="qcurve"/>
      <point x="845" y="-29"/>
      <point x="845" y="-29"/>
      <point x="845" y="-66" type="qcurve"/>
      <point x="845" y="-98"/>
      <point x="845" y="-117"/>
      <point x="845" y="-138" type="qcurve" smooth="yes"/>
      <point x="845" y="-156"/>
      <point x="845" y="-183"/>
      <point x="845" y="-198" type="qcurve"/>
      <point x="845" y="-262"/>
      <point x="845" y="-262"/>
    </contour>
    <contour>
      <point x="887" y="-262" type="qcurve"/>
      <point x="845" y="-262"/>
      <point x="845" y="-262"/>
      <point x="845" y="-198" type="qcurve"/>
      <point x="845" y="-183"/>
      <point x="845" y="-157"/>
      <point x="845" y="-139" type="qcurve" smooth="yes"/>
      <point x="845" y="-118"/>
      <point x="845" y="-98"/>
      <point x="845" y="-66" type="qcurve"/>
      <point x="845" y="-29"/>
      <point x="845" y="-29"/>
      <point x="886" y="-28" type="qcurve"/>
      <point x="927" y="-25"/>
      <point x="927" y="-25"/>
      <point x="927" y="-66" type="qcurve"/>
      <point x="927" y="-98"/>
      <point x="927" y="-114"/>
      <point x="927" y="-135" type="qcurve" smooth="yes"/>
      <point x="927" y="-154"/>
      <point x="927" y="-182"/>
      <point x="927" y="-198" type="qcurve"/>
      <point x="927" y="-262"/>
      <point x="927" y="-262"/>
    </contour>
    <contour>
      <point x="804" y="-413" type="qcurve" smooth="yes"/>
      <point x="763" y="-413"/>
      <point x="763" y="-413"/>
      <point x="763" y="-375" type="qcurve"/>
      <point x="763" y="-337"/>
      <point x="763" y="-337"/>
      <point x="804" y="-337" type="qcurve" smooth="yes"/>
      <point x="845" y="-337"/>
      <point x="845" y="-337"/>
      <point x="845" y="-375" type="qcurve"/>
      <point x="845" y="-413"/>
      <point x="845" y="-413"/>
    </contour>
    <contour>
      <point x="804" y="-337" type="qcurve" smooth="yes"/>
      <point x="763" y="-337"/>
      <point x="763" y="-337"/>
      <point x="763" y="-299" type="qcurve"/>
      <point x="763" y="-261"/>
      <point x="763" y="-261"/>
      <point x="804" y="-261" type="qcurve" smooth="yes"/>
      <point x="845" y="-261"/>
      <point x="845" y="-261"/>
      <point x="845" y="-299" type="qcurve"/>
      <point x="845" y="-337"/>
      <point x="845" y="-337"/>
    </contour>
    <contour>
      <point x="886" y="-413" type="qcurve" smooth="yes"/>
      <point x="845" y="-413"/>
      <point x="845" y="-413"/>
      <point x="845" y="-375" type="qcurve"/>
      <point x="845" y="-337"/>
      <point x="845" y="-337"/>
      <point x="886" y="-337" type="qcurve" smooth="yes"/>
      <point x="927" y="-337"/>
      <point x="927" y="-337"/>
      <point x="927" y="-375" type="qcurve"/>
      <point x="927" y="-413"/>
      <point x="927" y="-413"/>
    </contour>
    <contour>
      <point x="886" y="-337" type="qcurve" smooth="yes"/>
      <point x="845" y="-337"/>
      <point x="845" y="-337"/>
      <point x="845" y="-299" type="qcurve"/>
      <point x="845" y="-261"/>
      <point x="845" y="-261"/>
      <point x="886" y="-261" type="qcurve" smooth="yes"/>
      <point x="927" y="-261"/>
      <point x="927" y="-261"/>
      <point x="927" y="-299" type="qcurve"/>
      <point x="927" y="-337"/>
      <point x="927" y="-337"/>
    </contour>
    <component base="O"/>
  </outline>
</glyph>
<glyph name="R" format="1">
  <advance width="1484"/>
  <unicode hex="0052"/>
  <outline>
    <contour>
      <point x="328" y="152" type="qcurve" smooth="yes"/>
      <point x="164" y="152"/>
      <point x="164" y="152"/>
      <point x="164" y="190" type="qcurve" smooth="yes"/>
      <point x="164" y="228"/>
      <point x="164" y="247"/>
      <point x="164" y="308" type="qcurve"/>
      <point x="164" y="368"/>
      <point x="164" y="386"/>
      <point x="164" y="424" type="qcurve" smooth="yes"/>
      <point x="164" y="462"/>
      <point x="164" y="462"/>
      <point x="328" y="462" type="qcurve" smooth="yes"/>
      <point x="492" y="462"/>
      <point x="492" y="462"/>
      <point x="492" y="424" type="qcurve" smooth="yes"/>
      <point x="492" y="386"/>
      <point x="492" y="368"/>
      <point x="492" y="308" type="qcurve"/>
      <point x="492" y="247"/>
      <point x="492" y="228"/>
      <point x="492" y="190" type="qcurve" smooth="yes"/>
      <point x="492" y="152"/>
      <point x="492" y="152"/>
    </contour>
    <contour>
      <point x="328" y="614" type="qcurve" smooth="yes"/>
      <point x="164" y="614"/>
      <point x="164" y="614"/>
      <point x="164" y="652" type="qcurve" smooth="yes"/>
      <point x="164" y="690"/>
      <point x="164" y="801"/>
      <point x="164" y="916" type="qcurve" smooth="yes"/>
      <point x="164" y="1026"/>
      <point x="164" y="1140"/>
      <point x="164" y="1178" type="qcurve" smooth="yes"/>
      <point x="164" y="1216"/>
      <point x="164" y="1216"/>
      <point x="328" y="1216" type="qcurve" smooth="yes"/>
      <point x="492" y="1216"/>
      <point x="492" y="1216"/>
      <point x="492" y="1178" type="qcurve" smooth="yes"/>
      <point x="492" y="1140"/>
      <point x="492" y="1026"/>
      <point x="492" y="916" type="qcurve" smooth="yes"/>
      <point x="492" y="801"/>
      <point x="492" y="690"/>
      <point x="492" y="652" type="qcurve" smooth="yes"/>
      <point x="492" y="614"/>
      <point x="492" y="614"/>
    </contour>
    <contour>
      <point x="656" y="152" type="qcurve" smooth="yes"/>
      <point x="492" y="152"/>
      <point x="492" y="152"/>
      <point x="492" y="190" type="qcurve" smooth="yes"/>
      <point x="492" y="228"/>
      <point x="492" y="247"/>
      <point x="492" y="308" type="qcurve"/>
      <point x="492" y="368"/>
      <point x="492" y="386"/>
      <point x="492" y="424" type="qcurve" smooth="yes"/>
      <point x="492" y="462"/>
      <point x="492" y="462"/>
      <point x="656" y="462" type="qcurve" smooth="yes"/>
      <point x="820" y="462"/>
      <point x="820" y="462"/>
      <point x="820" y="424" type="qcurve" smooth="yes"/>
      <point x="820" y="386"/>
      <point x="820" y="368"/>
      <point x="820" y="308" type="qcurve"/>
      <point x="820" y="247"/>
      <point x="820" y="228"/>
      <point x="820" y="190" type="qcurve" smooth="yes"/>
      <point x="820" y="152"/>
      <point x="820" y="152"/>
    </contour>
    <contour>
      <point x="656" y="614" type="qcurve" smooth="yes"/>
      <point x="492" y="614"/>
      <point x="492" y="614"/>
      <point x="492" y="652" type="qcurve" smooth="yes"/>
      <point x="492" y="690"/>
      <point x="492" y="801"/>
      <point x="492" y="916" type="qcurve" smooth="yes"/>
      <point x="492" y="1026"/>
      <point x="492" y="1140"/>
      <point x="492" y="1178" type="qcurve" smooth="yes"/>
      <point x="492" y="1216"/>
      <point x="492" y="1216"/>
      <point x="656" y="1216" type="qcurve" smooth="yes"/>
      <point x="820" y="1216"/>
      <point x="820" y="1216"/>
      <point x="820" y="1178" type="qcurve" smooth="yes"/>
      <point x="820" y="1140"/>
      <point x="820" y="1026"/>
      <point x="820" y="916" type="qcurve" smooth="yes"/>
      <point x="820" y="801"/>
      <point x="820" y="690"/>
      <point x="820" y="652" type="qcurve" smooth="yes"/>
      <point x="820" y="614"/>
      <point x="820" y="614"/>
    </contour>
    <contour>
      <point x="827" y="462" type="qcurve"/>
      <point x="820" y="462"/>
      <point x="820" y="462"/>
      <point x="820" y="500" type="qcurve"/>
      <point x="820" y="538"/>
      <point x="820" y="538"/>
      <point x="827" y="538" type="qcurve"/>
      <point x="830" y="538"/>
      <point x="846" y="538"/>
      <point x="852" y="538" type="qcurve"/>
      <point x="858" y="538"/>
      <point x="900" y="540"/>
      <point x="917" y="542" type="qcurve"/>
      <point x="934" y="544"/>
      <point x="934" y="544"/>
      <point x="956" y="510" type="qcurve"/>
      <point x="978" y="476"/>
      <point x="978" y="476"/>
      <point x="965" y="474" type="qcurve"/>
      <point x="936" y="468"/>
      <point x="875" y="462"/>
      <point x="844" y="462" type="qcurve" smooth="yes"/>
      <point x="842" y="462"/>
      <point x="829" y="462"/>
    </contour>
    <contour>
      <point x="827" y="538" type="qcurve"/>
      <point x="820" y="538"/>
      <point x="820" y="538"/>
      <point x="820" y="578" type="qcurve"/>
      <point x="820" y="614"/>
      <point x="820" y="614"/>
      <point x="827" y="614" type="qcurve"/>
      <point x="829" y="614"/>
      <point x="841" y="614"/>
      <point x="847" y="614" type="qcurve"/>
      <point x="855" y="614"/>
      <point x="863" y="614"/>
      <point x="875" y="615" type="qcurve"/>
      <point x="887" y="616"/>
      <point x="887" y="616"/>
      <point x="911" y="579" type="qcurve"/>
      <point x="934" y="544"/>
      <point x="934" y="544"/>
      <point x="917" y="542" type="qcurve"/>
      <point x="900" y="540"/>
      <point x="858" y="538"/>
      <point x="852" y="538" type="qcurve"/>
      <point x="846" y="538"/>
      <point x="832" y="538"/>
    </contour>
    <contour>
      <point x="1224" y="928" type="qcurve" smooth="yes"/>
      <point x="1182" y="928"/>
      <point x="1182" y="928"/>
      <point x="1182" y="935" type="qcurve" smooth="yes"/>
      <point x="1182" y="1046"/>
      <point x="987" y="1216"/>
      <point x="842" y="1216" type="qcurve"/>
      <point x="840" y="1216"/>
      <point x="829" y="1216"/>
      <point x="827" y="1216" type="qcurve"/>
      <point x="820" y="1216"/>
      <point x="820" y="1216"/>
      <point x="820" y="1252" type="qcurve"/>
      <point x="820" y="1292"/>
      <point x="820" y="1292"/>
      <point x="827" y="1292" type="qcurve"/>
      <point x="829" y="1292"/>
      <point x="840" y="1292"/>
      <point x="842" y="1292" type="qcurve"/>
      <point x="1019" y="1292"/>
      <point x="1265" y="1080"/>
      <point x="1265" y="936" type="qcurve"/>
      <point x="1265" y="928"/>
      <point x="1265" y="928"/>
    </contour>
    <contour>
      <point x="1307" y="928" type="qcurve" smooth="yes"/>
      <point x="1265" y="928"/>
      <point x="1265" y="928"/>
      <point x="1265" y="936" type="qcurve"/>
      <point x="1265" y="1080"/>
      <point x="1019" y="1292"/>
      <point x="842" y="1292" type="qcurve"/>
      <point x="840" y="1292"/>
      <point x="829" y="1292"/>
      <point x="827" y="1292" type="qcurve"/>
      <point x="820" y="1292"/>
      <point x="820" y="1292"/>
      <point x="820" y="1330" type="qcurve"/>
      <point x="820" y="1368"/>
      <point x="820" y="1368"/>
      <point x="827" y="1368" type="qcurve"/>
      <point x="829" y="1368"/>
      <point x="842" y="1368"/>
      <point x="844" y="1368" type="qcurve" smooth="yes"/>
      <point x="1064" y="1368"/>
      <point x="1349" y="1115"/>
      <point x="1349" y="943" type="qcurve"/>
      <point x="1349" y="928"/>
      <point x="1349" y="928"/>
    </contour>
    <contour>
      <point x="1269" y="124" type="qcurve"/>
      <point x="1237" y="102"/>
      <point x="1237" y="102"/>
      <point x="1210" y="139" type="qcurve"/>
      <point x="1186" y="174"/>
      <point x="1093" y="314"/>
      <point x="1006" y="437" type="qcurve"/>
      <point x="978" y="476"/>
      <point x="978" y="476"/>
      <point x="1017" y="486" type="qcurve"/>
      <point x="1055" y="499"/>
      <point x="1055" y="499"/>
      <point x="1082" y="461" type="qcurve"/>
      <point x="1158" y="354"/>
      <point x="1247" y="227"/>
      <point x="1277" y="183" type="qcurve"/>
      <point x="1301" y="147"/>
      <point x="1301" y="147"/>
    </contour>
    <contour>
      <point x="1094" y="609" type="qcurve"/>
      <point x="1076" y="599"/>
      <point x="1076" y="599"/>
      <point x="1054" y="630" type="qcurve" smooth="yes"/>
      <point x="1031" y="663"/>
      <point x="1031" y="663"/>
      <point x="1048" y="673" type="qcurve"/>
      <point x="1101" y="703"/>
      <point x="1182" y="834"/>
      <point x="1182" y="901" type="qcurve" smooth="yes"/>
      <point x="1182" y="908"/>
      <point x="1182" y="908"/>
      <point x="1224" y="908" type="qcurve" smooth="yes"/>
      <point x="1265" y="908"/>
      <point x="1265" y="908"/>
      <point x="1265" y="900" type="qcurve"/>
      <point x="1265" y="813"/>
      <point x="1170" y="658"/>
    </contour>
    <contour>
      <point x="1333" y="169" type="qcurve"/>
      <point x="1301" y="147"/>
      <point x="1301" y="147"/>
      <point x="1277" y="183" type="qcurve"/>
      <point x="1247" y="227"/>
      <point x="1158" y="354"/>
      <point x="1082" y="461" type="qcurve"/>
      <point x="1055" y="499"/>
      <point x="1055" y="499"/>
      <point x="1091" y="514" type="qcurve"/>
      <point x="1124" y="531"/>
      <point x="1124" y="531"/>
      <point x="1154" y="489" type="qcurve"/>
      <point x="1227" y="387"/>
      <point x="1311" y="264"/>
      <point x="1334" y="234" type="qcurve"/>
      <point x="1364" y="191"/>
      <point x="1364" y="191"/>
    </contour>
    <contour>
      <point x="1139" y="541" type="qcurve"/>
      <point x="1124" y="531"/>
      <point x="1124" y="531"/>
      <point x="1099" y="565" type="qcurve"/>
      <point x="1076" y="599"/>
      <point x="1076" y="599"/>
      <point x="1094" y="609" type="qcurve"/>
      <point x="1170" y="658"/>
      <point x="1265" y="813"/>
      <point x="1265" y="900" type="qcurve"/>
      <point x="1265" y="908"/>
      <point x="1265" y="908"/>
      <point x="1307" y="908" type="qcurve" smooth="yes"/>
      <point x="1349" y="908"/>
      <point x="1349" y="908"/>
      <point x="1349" y="893" type="qcurve"/>
      <point x="1349" y="786"/>
      <point x="1235" y="598"/>
    </contour>
    <contour>
      <point x="973" y="554" type="qcurve"/>
      <point x="934" y="544"/>
      <point x="934" y="544"/>
      <point x="911" y="579" type="qcurve"/>
      <point x="887" y="616"/>
      <point x="887" y="616"/>
      <point x="927" y="623" type="qcurve"/>
      <point x="964" y="634"/>
      <point x="963" y="634"/>
      <point x="982" y="606" type="qcurve" smooth="yes"/>
      <point x="1009" y="567"/>
      <point x="1009" y="567"/>
    </contour>
    <contour>
      <point x="1017" y="486" type="qcurve"/>
      <point x="978" y="476"/>
      <point x="978" y="476"/>
      <point x="956" y="510" type="qcurve"/>
      <point x="934" y="544"/>
      <point x="934" y="544"/>
      <point x="973" y="554" type="qcurve"/>
      <point x="1009" y="567"/>
      <point x="1009" y="567"/>
      <point x="1030" y="534" type="qcurve"/>
      <point x="1055" y="499"/>
      <point x="1055" y="499"/>
    </contour>
    <contour>
      <point x="1043" y="581" type="qcurve"/>
      <point x="1009" y="567"/>
      <point x="1009" y="567"/>
      <point x="982" y="606" type="qcurve" smooth="yes"/>
      <point x="963" y="634"/>
      <point x="964" y="634"/>
      <point x="999" y="646" type="qcurve"/>
      <point x="1031" y="663"/>
      <point x="1031" y="663"/>
      <point x="1054" y="630" type="qcurve"/>
      <point x="1076" y="599"/>
      <point x="1076" y="599"/>
    </contour>
    <contour>
      <point x="1091" y="514" type="qcurve"/>
      <point x="1055" y="499"/>
      <point x="1055" y="499"/>
      <point x="1030" y="534" type="qcurve"/>
      <point x="1009" y="567"/>
      <point x="1009" y="567"/>
      <point x="1043" y="581" type="qcurve"/>
      <point x="1076" y="599"/>
      <point x="1076" y="599"/>
      <point x="1099" y="565" type="qcurve"/>
      <point x="1124" y="531"/>
      <point x="1124" y="531"/>
    </contour>
    <contour>
      <point x="1224" y="908" type="qcurve"/>
      <point x="1182" y="908"/>
      <point x="1182" y="908"/>
      <point x="1182" y="913" type="qcurve"/>
      <point x="1182" y="918"/>
      <point x="1182" y="918"/>
      <point x="1224" y="918" type="qcurve" smooth="yes"/>
      <point x="1265" y="918"/>
      <point x="1265" y="918"/>
      <point x="1265" y="913" type="qcurve"/>
      <point x="1265" y="908"/>
      <point x="1265" y="908"/>
    </contour>
    <contour>
      <point x="1224" y="918" type="qcurve" smooth="yes"/>
      <point x="1182" y="918"/>
      <point x="1182" y="918"/>
      <point x="1182" y="923" type="qcurve" smooth="yes"/>
      <point x="1182" y="928"/>
      <point x="1182" y="928"/>
      <point x="1224" y="928" type="qcurve" smooth="yes"/>
      <point x="1265" y="928"/>
      <point x="1265" y="928"/>
      <point x="1265" y="923" type="qcurve"/>
      <point x="1265" y="918"/>
      <point x="1265" y="918"/>
    </contour>
    <contour>
      <point x="1307" y="908" type="qcurve"/>
      <point x="1265" y="908"/>
      <point x="1265" y="908"/>
      <point x="1265" y="913" type="qcurve"/>
      <point x="1265" y="918"/>
      <point x="1265" y="918"/>
      <point x="1307" y="918" type="qcurve" smooth="yes"/>
      <point x="1349" y="918"/>
      <point x="1349" y="918"/>
      <point x="1349" y="913" type="qcurve"/>
      <point x="1349" y="908"/>
      <point x="1349" y="908"/>
    </contour>
    <contour>
      <point x="1307" y="918" type="qcurve" smooth="yes"/>
      <point x="1265" y="918"/>
      <point x="1265" y="918"/>
      <point x="1265" y="923" type="qcurve"/>
      <point x="1265" y="928"/>
      <point x="1265" y="928"/>
      <point x="1307" y="928" type="qcurve" smooth="yes"/>
      <point x="1349" y="928"/>
      <point x="1349" y="928"/>
      <point x="1349" y="923" type="qcurve"/>
      <point x="1349" y="918"/>
      <point x="1349" y="918"/>
    </contour>
    <contour>
      <point x="1333" y="169" type="qcurve"/>
      <point x="1364" y="191"/>
      <point x="1364" y="191"/>
      <point x="1386" y="161" type="qcurve"/>
      <point x="1407" y="131"/>
      <point x="1407" y="131"/>
      <point x="1375" y="109" type="qcurve" smooth="yes"/>
      <point x="1343" y="86"/>
      <point x="1343" y="86"/>
      <point x="1322" y="117" type="qcurve"/>
      <point x="1301" y="147"/>
      <point x="1301" y="147"/>
    </contour>
    <contour>
      <point x="1375" y="109" type="qcurve" smooth="yes"/>
      <point x="1407" y="131"/>
      <point x="1407" y="131"/>
      <point x="1428" y="101" type="qcurve"/>
      <point x="1449" y="70"/>
      <point x="1449" y="70"/>
      <point x="1418" y="48" type="qcurve" smooth="yes"/>
      <point x="1386" y="26"/>
      <point x="1386" y="26"/>
      <point x="1364" y="56" type="qcurve"/>
      <point x="1343" y="86"/>
      <point x="1343" y="86"/>
    </contour>
    <contour>
      <point x="1269" y="124" type="qcurve"/>
      <point x="1301" y="147"/>
      <point x="1301" y="147"/>
      <point x="1322" y="117" type="qcurve"/>
      <point x="1343" y="86"/>
      <point x="1343" y="86"/>
      <point x="1311" y="64" type="qcurve" smooth="yes"/>
      <point x="1279" y="42"/>
      <point x="1279" y="42"/>
      <point x="1258" y="72" type="qcurve"/>
      <point x="1237" y="102"/>
      <point x="1237" y="102"/>
    </contour>
    <contour>
      <point x="1311" y="64" type="qcurve" smooth="yes"/>
      <point x="1343" y="86"/>
      <point x="1343" y="86"/>
      <point x="1364" y="56" type="qcurve"/>
      <point x="1386" y="26"/>
      <point x="1386" y="26"/>
      <point x="1354" y="3" type="qcurve" smooth="yes"/>
      <point x="1322" y="-19"/>
      <point x="1322" y="-19"/>
      <point x="1300" y="11" type="qcurve"/>
      <point x="1279" y="42"/>
      <point x="1279" y="42"/>
    </contour>
    <component base="WaistElement" xOffset="-82" yOffset="-146"/>
    <component base="BaseTerminal" xOffset="-82"/>
    <component base="TopElementV2" xOffset="-82"/>
  </outline>
</glyph>
<glyph name="S" format="1">
  <advance width="1147"/>
  <unicode hex="0053"/>
  <outline>
    <contour>
      <point x="309" y="479" type="qcurve"/>
      <point x="149" y="580"/>
      <point x="8" y="802"/>
      <point x="8" y="991" type="qcurve"/>
      <point x="14" y="1038"/>
      <point x="14" y="1038"/>
      <point x="162" y="1038" type="qcurve"/>
      <point x="279" y="1038"/>
      <point x="279" y="1038"/>
      <point x="279" y="1028" type="qcurve"/>
      <point x="283" y="942"/>
      <point x="365" y="830"/>
      <point x="471" y="764" type="qcurve"/>
      <point x="495" y="750"/>
      <point x="495" y="750"/>
      <point x="476" y="716" type="qcurve"/>
      <point x="329" y="464"/>
      <point x="329" y="464"/>
    </contour>
    <contour>
      <point x="471" y="764" type="qcurve"/>
      <point x="365" y="830"/>
      <point x="283" y="942"/>
      <point x="279" y="1028" type="qcurve"/>
      <point x="279" y="1038"/>
      <point x="279" y="1038"/>
      <point x="318" y="1038" type="qcurve"/>
      <point x="358" y="1038"/>
      <point x="358" y="1038"/>
      <point x="358" y="1038" type="qcurve"/>
      <point x="365" y="1038"/>
      <point x="466" y="1038"/>
      <point x="661" y="1038" type="qcurve"/>
      <point x="661" y="1038"/>
      <point x="661" y="1038"/>
      <point x="515" y="784" type="qcurve"/>
      <point x="495" y="750"/>
      <point x="495" y="750"/>
    </contour>
    <contour>
      <point x="161" y="1058" type="qcurve"/>
      <point x="20" y="1058"/>
      <point x="20" y="1058"/>
      <point x="25" y="1075" type="qcurve"/>
      <point x="68" y="1212"/>
      <point x="332" y="1396"/>
      <point x="581" y="1407" type="qcurve"/>
      <point x="603" y="1408"/>
      <point x="603" y="1408"/>
      <point x="603" y="1372" type="qcurve"/>
      <point x="603" y="1338"/>
      <point x="603" y="1338"/>
      <point x="584" y="1337" type="qcurve"/>
      <point x="471" y="1329"/>
      <point x="292" y="1185"/>
      <point x="280" y="1069" type="qcurve"/>
      <point x="279" y="1058"/>
      <point x="279" y="1058"/>
    </contour>
    <contour>
      <point x="318" y="1058" type="qcurve"/>
      <point x="279" y="1058"/>
      <point x="279" y="1058"/>
      <point x="280" y="1069" type="qcurve"/>
      <point x="292" y="1185"/>
      <point x="471" y="1329"/>
      <point x="584" y="1337" type="qcurve"/>
      <point x="603" y="1338"/>
      <point x="603" y="1338"/>
      <point x="603" y="1298" type="qcurve"/>
      <point x="603" y="1260"/>
      <point x="603" y="1260"/>
      <point x="591" y="1260" type="qcurve"/>
      <point x="508" y="1260"/>
      <point x="493" y="1110"/>
      <point x="587" y="1068" type="qcurve"/>
      <point x="610" y="1058"/>
      <point x="610" y="1058"/>
    </contour>
    <contour>
      <point x="499" y="33" type="qcurve"/>
      <point x="493" y="33"/>
      <point x="493" y="33"/>
      <point x="493" y="68" type="qcurve"/>
      <point x="493" y="106"/>
      <point x="493" y="106"/>
      <point x="499" y="106" type="qcurve"/>
      <point x="575" y="116"/>
      <point x="602" y="280"/>
      <point x="529" y="341" type="qcurve"/>
      <point x="521" y="348"/>
      <point x="521" y="348"/>
      <point x="817" y="348" type="qcurve"/>
      <point x="856" y="348"/>
      <point x="856" y="348"/>
      <point x="855" y="337" type="qcurve"/>
      <point x="845" y="202"/>
      <point x="650" y="40"/>
    </contour>
    <contour>
      <point x="514" y="-38" type="qcurve"/>
      <point x="493" y="-39"/>
      <point x="493" y="-39"/>
      <point x="493" y="-1" type="qcurve"/>
      <point x="493" y="33"/>
      <point x="493" y="33"/>
      <point x="499" y="33" type="qcurve"/>
      <point x="650" y="40"/>
      <point x="845" y="202"/>
      <point x="855" y="337" type="qcurve"/>
      <point x="856" y="348"/>
      <point x="856" y="348"/>
      <point x="895" y="348" type="qcurve"/>
      <point x="1121" y="348"/>
      <point x="1121" y="348"/>
      <point x="1117" y="333" type="qcurve"/>
      <point x="1069" y="164"/>
      <point x="730" y="-37"/>
    </contour>
    <contour>
      <point x="817" y="379" type="qcurve"/>
      <point x="777" y="379"/>
      <point x="762" y="379"/>
      <point x="760" y="379" type="qcurve"/>
      <point x="742" y="379"/>
      <point x="586" y="379"/>
      <point x="476" y="379" type="qcurve"/>
      <point x="461" y="389"/>
      <point x="461" y="389"/>
      <point x="604" y="637" type="qcurve"/>
      <point x="626" y="675"/>
      <point x="626" y="675"/>
      <point x="655" y="658" type="qcurve"/>
      <point x="751" y="604"/>
      <point x="847" y="492"/>
      <point x="856" y="395" type="qcurve"/>
      <point x="856" y="379"/>
      <point x="856" y="379"/>
    </contour>
    <contour>
      <point x="893" y="379" type="qcurve"/>
      <point x="856" y="379"/>
      <point x="856" y="379"/>
      <point x="856" y="395" type="qcurve"/>
      <point x="847" y="492"/>
      <point x="751" y="604"/>
      <point x="655" y="658" type="qcurve"/>
      <point x="626" y="675"/>
      <point x="626" y="675"/>
      <point x="647" y="711" type="qcurve"/>
      <point x="792" y="963"/>
      <point x="792" y="963"/>
      <point x="816" y="949" type="qcurve"/>
      <point x="945" y="869"/>
      <point x="1129" y="632"/>
      <point x="1137" y="438" type="qcurve"/>
      <point x="1131" y="379"/>
      <point x="1131" y="379"/>
    </contour>
    <contour>
      <point x="162" y="1038" type="qcurve"/>
      <point x="14" y="1038"/>
      <point x="14" y="1038"/>
      <point x="15" y="1043" type="qcurve"/>
      <point x="16" y="1048"/>
      <point x="16" y="1048"/>
      <point x="162" y="1048" type="qcurve" smooth="yes"/>
      <point x="279" y="1048"/>
      <point x="279" y="1048"/>
      <point x="279" y="1043" type="qcurve"/>
      <point x="279" y="1038"/>
      <point x="279" y="1038"/>
    </contour>
    <contour>
      <point x="162" y="1048" type="qcurve" smooth="yes"/>
      <point x="16" y="1048"/>
      <point x="16" y="1048"/>
      <point x="18" y="1053" type="qcurve"/>
      <point x="20" y="1058"/>
      <point x="20" y="1058"/>
      <point x="162" y="1058" type="qcurve" smooth="yes"/>
      <point x="279" y="1058"/>
      <point x="279" y="1058"/>
      <point x="279" y="1053" type="qcurve"/>
      <point x="279" y="1048"/>
      <point x="279" y="1048"/>
    </contour>
    <contour>
      <point x="430" y="1038" type="qcurve"/>
      <point x="279" y="1038"/>
      <point x="279" y="1038"/>
      <point x="279" y="1043" type="qcurve"/>
      <point x="279" y="1048"/>
      <point x="279" y="1048"/>
      <point x="430" y="1048" type="qcurve" smooth="yes"/>
      <point x="637" y="1048"/>
      <point x="637" y="1048"/>
      <point x="648" y="1043" type="qcurve"/>
      <point x="661" y="1038"/>
      <point x="661" y="1038"/>
    </contour>
    <contour>
      <point x="430" y="1048" type="qcurve" smooth="yes"/>
      <point x="279" y="1048"/>
      <point x="279" y="1048"/>
      <point x="279" y="1053" type="qcurve"/>
      <point x="279" y="1058"/>
      <point x="279" y="1058"/>
      <point x="430" y="1058" type="qcurve" smooth="yes"/>
      <point x="610" y="1058"/>
      <point x="610" y="1058"/>
      <point x="623" y="1053" type="qcurve"/>
      <point x="637" y="1048"/>
      <point x="637" y="1048"/>
    </contour>
    <contour>
      <point x="301" y="-37" type="qcurve"/>
      <point x="243" y="-32"/>
      <point x="243" y="-32"/>
      <point x="243" y="4" type="qcurve"/>
      <point x="243" y="40"/>
      <point x="243" y="40"/>
      <point x="300" y="35" type="qcurve"/>
      <point x="353" y="33"/>
      <point x="353" y="33"/>
      <point x="353" y="-1" type="qcurve"/>
      <point x="353" y="-39"/>
      <point x="353" y="-39"/>
    </contour>
    <contour>
      <point x="300" y="35" type="qcurve"/>
      <point x="243" y="40"/>
      <point x="243" y="40"/>
      <point x="243" y="77" type="qcurve"/>
      <point x="243" y="115"/>
      <point x="243" y="115"/>
      <point x="301" y="109" type="qcurve"/>
      <point x="353" y="106"/>
      <point x="353" y="106"/>
      <point x="353" y="68" type="qcurve"/>
      <point x="353" y="33"/>
      <point x="353" y="33"/>
    </contour>
    <contour>
      <point x="384" y="-39" type="qcurve"/>
      <point x="353" y="-39"/>
      <point x="353" y="-39"/>
      <point x="353" y="-1" type="qcurve"/>
      <point x="353" y="33"/>
      <point x="353" y="33"/>
      <point x="388" y="33" type="qcurve"/>
      <point x="423" y="33"/>
      <point x="423" y="33"/>
      <point x="423" y="-1" type="qcurve"/>
      <point x="423" y="-39"/>
      <point x="423" y="-39"/>
    </contour>
    <contour>
      <point x="388" y="33" type="qcurve"/>
      <point x="353" y="33"/>
      <point x="353" y="33"/>
      <point x="353" y="68" type="qcurve"/>
      <point x="353" y="106"/>
      <point x="353" y="106"/>
      <point x="388" y="106" type="qcurve"/>
      <point x="423" y="106"/>
      <point x="423" y="106"/>
      <point x="423" y="68" type="qcurve"/>
      <point x="423" y="33"/>
      <point x="423" y="33"/>
    </contour>
    <contour>
      <point x="458" y="-39" type="qcurve"/>
      <point x="423" y="-39"/>
      <point x="423" y="-39"/>
      <point x="423" y="-1" type="qcurve"/>
      <point x="423" y="33"/>
      <point x="423" y="33"/>
      <point x="458" y="33" type="qcurve"/>
      <point x="493" y="33"/>
      <point x="493" y="33"/>
      <point x="493" y="-1" type="qcurve"/>
      <point x="493" y="-39"/>
      <point x="493" y="-39"/>
    </contour>
    <contour>
      <point x="458" y="33" type="qcurve"/>
      <point x="423" y="33"/>
      <point x="423" y="33"/>
      <point x="423" y="68" type="qcurve"/>
      <point x="423" y="106"/>
      <point x="423" y="106"/>
      <point x="458" y="106" type="qcurve"/>
      <point x="493" y="106"/>
      <point x="493" y="106"/>
      <point x="493" y="68" type="qcurve"/>
      <point x="493" y="33"/>
      <point x="493" y="33"/>
    </contour>
    <contour>
      <point x="638" y="1261" type="qcurve"/>
      <point x="603" y="1260"/>
      <point x="603" y="1260"/>
      <point x="603" y="1299" type="qcurve"/>
      <point x="603" y="1338"/>
      <point x="603" y="1338"/>
      <point x="638" y="1338" type="qcurve"/>
      <point x="673" y="1338"/>
      <point x="673" y="1338"/>
      <point x="673" y="1299" type="qcurve"/>
      <point x="673" y="1262"/>
      <point x="673" y="1262"/>
    </contour>
    <contour>
      <point x="638" y="1338" type="qcurve"/>
      <point x="603" y="1338"/>
      <point x="603" y="1338"/>
      <point x="603" y="1372" type="qcurve"/>
      <point x="603" y="1408"/>
      <point x="603" y="1408"/>
      <point x="638" y="1409" type="qcurve"/>
      <point x="673" y="1409"/>
      <point x="673" y="1409"/>
      <point x="673" y="1372" type="qcurve"/>
      <point x="673" y="1338"/>
      <point x="673" y="1338"/>
    </contour>
    <contour>
      <point x="709" y="1261" type="qcurve"/>
      <point x="673" y="1262"/>
      <point x="673" y="1262"/>
      <point x="673" y="1299" type="qcurve"/>
      <point x="673" y="1338"/>
      <point x="673" y="1338"/>
      <point x="708" y="1338" type="qcurve"/>
      <point x="743" y="1336"/>
      <point x="743" y="1336"/>
      <point x="743" y="1299" type="qcurve"/>
      <point x="743" y="1259"/>
      <point x="743" y="1259"/>
    </contour>
    <contour>
      <point x="708" y="1338" type="qcurve"/>
      <point x="673" y="1338"/>
      <point x="673" y="1338"/>
      <point x="673" y="1372" type="qcurve"/>
      <point x="673" y="1409"/>
      <point x="673" y="1409"/>
      <point x="711" y="1409" type="qcurve"/>
      <point x="743" y="1409"/>
      <point x="743" y="1409"/>
      <point x="743" y="1372" type="qcurve"/>
      <point x="743" y="1336"/>
      <point x="743" y="1336"/>
    </contour>
    <contour>
      <point x="772" y="1255" type="qcurve"/>
      <point x="743" y="1259"/>
      <point x="743" y="1259"/>
      <point x="743" y="1298" type="qcurve"/>
      <point x="743" y="1336"/>
      <point x="743" y="1336"/>
      <point x="773" y="1332" type="qcurve"/>
      <point x="802" y="1325"/>
      <point x="802" y="1325"/>
      <point x="802" y="1288" type="qcurve"/>
      <point x="802" y="1247"/>
      <point x="802" y="1247"/>
    </contour>
    <contour>
      <point x="773" y="1332" type="qcurve"/>
      <point x="743" y="1336"/>
      <point x="743" y="1336"/>
      <point x="743" y="1372" type="qcurve"/>
      <point x="743" y="1409"/>
      <point x="743" y="1409"/>
      <point x="773" y="1407" type="qcurve"/>
      <point x="802" y="1404"/>
      <point x="802" y="1404"/>
      <point x="802" y="1363" type="qcurve"/>
      <point x="802" y="1325"/>
      <point x="802" y="1325"/>
    </contour>
    <contour>
      <point x="694" y="348" type="qcurve"/>
      <point x="521" y="348"/>
      <point x="521" y="348"/>
      <point x="510" y="356" type="qcurve"/>
      <point x="499" y="363"/>
      <point x="499" y="363"/>
      <point x="694" y="363" type="qcurve" smooth="yes"/>
      <point x="856" y="363"/>
      <point x="856" y="363"/>
      <point x="856" y="356" type="qcurve"/>
      <point x="856" y="348"/>
      <point x="856" y="348"/>
    </contour>
    <contour>
      <point x="694" y="363" type="qcurve" smooth="yes"/>
      <point x="499" y="363"/>
      <point x="499" y="363"/>
      <point x="488" y="371" type="qcurve"/>
      <point x="475" y="379"/>
      <point x="475" y="379"/>
      <point x="694" y="379" type="qcurve" smooth="yes"/>
      <point x="856" y="379"/>
      <point x="856" y="379"/>
      <point x="856" y="371" type="qcurve"/>
      <point x="856" y="363"/>
      <point x="856" y="363"/>
    </contour>
    <contour>
      <point x="986" y="348" type="qcurve"/>
      <point x="856" y="348"/>
      <point x="856" y="348"/>
      <point x="856" y="356" type="qcurve"/>
      <point x="856" y="363"/>
      <point x="856" y="363"/>
      <point x="986" y="363" type="qcurve" smooth="yes"/>
      <point x="1126" y="363"/>
      <point x="1126" y="363"/>
      <point x="1124" y="355" type="qcurve"/>
      <point x="1121" y="348"/>
      <point x="1121" y="348"/>
    </contour>
    <contour>
      <point x="986" y="363" type="qcurve" smooth="yes"/>
      <point x="856" y="363"/>
      <point x="856" y="363"/>
      <point x="856" y="371" type="qcurve"/>
      <point x="856" y="379"/>
      <point x="856" y="379"/>
      <point x="986" y="379" type="qcurve" smooth="yes"/>
      <point x="1131" y="379"/>
      <point x="1131" y="379"/>
      <point x="1128" y="371" type="qcurve"/>
      <point x="1126" y="363"/>
      <point x="1126" y="363"/>
    </contour>
    <component base="BaseLeftCurvedElement" xOffset="63" yOffset="-10"/>
    <component base="TopCurvedElement" xOffset="556" yOffset="17"/>
    <component base="WaistElement" xScale="0.5000000000000001" xyScale="0.8660254037844386" yxScale="-0.8660254037844386" yScale="0.5000000000000001" xOffset="865" yOffset="-128"/>
  </outline>
</glyph>
<glyph name="T" format="1">
  <advance width="1530"/>
  <unicode hex="0054"/>
  <outline>
    <contour>
      <point x="211" y="1216" type="qcurve"/>
      <point x="174" y="1216"/>
      <point x="174" y="1216"/>
      <point x="174" y="1254" type="qcurve"/>
      <point x="174" y="1292"/>
      <point x="174" y="1292"/>
      <point x="211" y="1292" type="qcurve"/>
      <point x="222" y="1292"/>
      <point x="279" y="1292"/>
      <point x="302" y="1292" type="qcurve"/>
      <point x="328" y="1292"/>
      <point x="388" y="1292"/>
      <point x="399" y="1292" type="qcurve"/>
      <point x="437" y="1292"/>
      <point x="437" y="1292"/>
      <point x="437" y="1255" type="qcurve"/>
      <point x="437" y="1216"/>
      <point x="437" y="1216"/>
      <point x="399" y="1216" type="qcurve"/>
      <point x="388" y="1216"/>
      <point x="330" y="1216"/>
      <point x="303" y="1216" type="qcurve"/>
      <point x="281" y="1216"/>
      <point x="223" y="1216"/>
    </contour>
    <contour>
      <point x="211" y="1292" type="qcurve"/>
      <point x="174" y="1292"/>
      <point x="174" y="1292"/>
      <point x="174" y="1330" type="qcurve"/>
      <point x="174" y="1368"/>
      <point x="174" y="1368"/>
      <point x="211" y="1368" type="qcurve"/>
      <point x="223" y="1368"/>
      <point x="278" y="1368"/>
      <point x="302" y="1368" type="qcurve" smooth="yes"/>
      <point x="327" y="1368"/>
      <point x="388" y="1368"/>
      <point x="399" y="1368" type="qcurve"/>
      <point x="437" y="1368"/>
      <point x="437" y="1368"/>
      <point x="437" y="1331" type="qcurve"/>
      <point x="437" y="1292"/>
      <point x="437" y="1292"/>
      <point x="399" y="1292" type="qcurve"/>
      <point x="388" y="1292"/>
      <point x="328" y="1292"/>
      <point x="302" y="1292" type="qcurve"/>
      <point x="279" y="1292"/>
      <point x="222" y="1292"/>
    </contour>
    <contour>
      <point x="1130" y="1216" type="qcurve"/>
      <point x="1093" y="1216"/>
      <point x="1093" y="1216"/>
      <point x="1093" y="1254" type="qcurve"/>
      <point x="1093" y="1292"/>
      <point x="1093" y="1292"/>
      <point x="1130" y="1292" type="qcurve"/>
      <point x="1141" y="1292"/>
      <point x="1194" y="1292"/>
      <point x="1224" y="1292" type="qcurve"/>
      <point x="1253" y="1292"/>
      <point x="1307" y="1292"/>
      <point x="1318" y="1292" type="qcurve"/>
      <point x="1356" y="1292"/>
      <point x="1356" y="1292"/>
      <point x="1356" y="1255" type="qcurve"/>
      <point x="1356" y="1216"/>
      <point x="1356" y="1216"/>
      <point x="1318" y="1216" type="qcurve"/>
      <point x="1307" y="1216"/>
      <point x="1252" y="1216"/>
      <point x="1225" y="1216" type="qcurve"/>
      <point x="1193" y="1216"/>
      <point x="1141" y="1216"/>
    </contour>
    <contour>
      <point x="1130" y="1292" type="qcurve"/>
      <point x="1093" y="1292"/>
      <point x="1093" y="1292"/>
      <point x="1093" y="1330" type="qcurve"/>
      <point x="1093" y="1368"/>
      <point x="1093" y="1368"/>
      <point x="1130" y="1368" type="qcurve"/>
      <point x="1142" y="1368"/>
      <point x="1195" y="1368"/>
      <point x="1225" y="1368" type="qcurve" smooth="yes"/>
      <point x="1254" y="1368"/>
      <point x="1307" y="1368"/>
      <point x="1318" y="1368" type="qcurve"/>
      <point x="1356" y="1368"/>
      <point x="1356" y="1368"/>
      <point x="1356" y="1331" type="qcurve"/>
      <point x="1356" y="1292"/>
      <point x="1356" y="1292"/>
      <point x="1318" y="1292" type="qcurve"/>
      <point x="1307" y="1292"/>
      <point x="1256" y="1292"/>
      <point x="1224" y="1292" type="qcurve"/>
      <point x="1197" y="1292"/>
      <point x="1142" y="1292"/>
    </contour>
    <component base="BaseTerminal" xOffset="191"/>
    <component base="RightTopTerminal" xOffset="1110" yOffset="1216"/>
    <component base="LeftTopTerm" xOffset="-236" yOffset="1216"/>
    <component base="WaistElement" xOffset="191"/>
    <component base="TopElementV1" xOffset="191" yOffset="1216"/>
    <component base="MidElement" xOffset="191"/>
  </outline>
</glyph>
<glyph name="U" format="1">
  <advance width="1813.0"/>
  <unicode hex="0055"/>
  <outline>
    <contour>
      <point x="1033" y="-24" type="qcurve"/>
      <point x="628" y="3"/>
      <point x="151" y="263"/>
      <point x="151" y="518" type="qcurve"/>
      <point x="151" y="608"/>
      <point x="151" y="608"/>
      <point x="315" y="608" type="qcurve"/>
      <point x="479" y="608"/>
      <point x="479" y="608"/>
      <point x="479" y="505" type="qcurve"/>
      <point x="479" y="304"/>
      <point x="762" y="99"/>
      <point x="1031" y="56" type="qcurve"/>
      <point x="1071" y="49"/>
      <point x="1071" y="49"/>
      <point x="1071" y="12" type="qcurve" smooth="yes"/>
      <point x="1071" y="-26"/>
      <point x="1071" y="-26"/>
    </contour>
    <contour>
      <point x="1031" y="56" type="qcurve"/>
      <point x="762" y="99"/>
      <point x="479" y="304"/>
      <point x="479" y="505" type="qcurve"/>
      <point x="479" y="608"/>
      <point x="479" y="608"/>
      <point x="642" y="608" type="qcurve"/>
      <point x="806" y="608"/>
      <point x="806" y="608"/>
      <point x="806" y="492" type="qcurve"/>
      <point x="806" y="341"/>
      <point x="907" y="174"/>
      <point x="1037" y="129" type="qcurve"/>
      <point x="1071" y="123"/>
      <point x="1071" y="123"/>
      <point x="1071" y="87" type="qcurve" smooth="yes"/>
      <point x="1071" y="49"/>
      <point x="1071" y="49"/>
    </contour>
    <contour>
      <point x="1290" y="-18" type="qcurve"/>
      <point x="1235" y="-26"/>
      <point x="1235" y="-26"/>
      <point x="1235" y="12" type="qcurve" smooth="yes"/>
      <point x="1235" y="48"/>
      <point x="1235" y="48"/>
      <point x="1288" y="58" type="qcurve"/>
      <point x="1438" y="101"/>
      <point x="1581" y="309"/>
      <point x="1581" y="505" type="qcurve"/>
      <point x="1581" y="608"/>
      <point x="1581" y="608"/>
      <point x="1622" y="608" type="qcurve"/>
      <point x="1663" y="608"/>
      <point x="1663" y="608"/>
      <point x="1663" y="518" type="qcurve"/>
      <point x="1663" y="248"/>
      <point x="1472" y="21"/>
    </contour>
    <contour>
      <point x="1288" y="58" type="qcurve"/>
      <point x="1235" y="48"/>
      <point x="1235" y="48"/>
      <point x="1235" y="83" type="qcurve"/>
      <point x="1235" y="123"/>
      <point x="1235" y="123"/>
      <point x="1282" y="133" type="qcurve"/>
      <point x="1399" y="174"/>
      <point x="1499" y="341"/>
      <point x="1499" y="492" type="qcurve"/>
      <point x="1499" y="608"/>
      <point x="1499" y="608"/>
      <point x="1540" y="608" type="qcurve"/>
      <point x="1581" y="608"/>
      <point x="1581" y="608"/>
      <point x="1581" y="505" type="qcurve"/>
      <point x="1581" y="309"/>
      <point x="1438" y="101"/>
    </contour>
    <contour>
      <point x="1540" y="608" type="qcurve" smooth="yes"/>
      <point x="1499" y="608"/>
      <point x="1499" y="608"/>
      <point x="1499" y="646" type="qcurve"/>
      <point x="1499" y="684"/>
      <point x="1499" y="684"/>
      <point x="1540" y="684" type="qcurve" smooth="yes"/>
      <point x="1581" y="684"/>
      <point x="1581" y="684"/>
      <point x="1581" y="646" type="qcurve"/>
      <point x="1581" y="608"/>
      <point x="1581" y="608"/>
    </contour>
    <contour>
      <point x="1540" y="684" type="qcurve" smooth="yes"/>
      <point x="1499" y="684"/>
      <point x="1499" y="684"/>
      <point x="1499" y="722" type="qcurve"/>
      <point x="1499" y="760"/>
      <point x="1499" y="760"/>
      <point x="1540" y="760" type="qcurve" smooth="yes"/>
      <point x="1581" y="760"/>
      <point x="1581" y="760"/>
      <point x="1581" y="722" type="qcurve"/>
      <point x="1581" y="684"/>
      <point x="1581" y="684"/>
    </contour>
    <contour>
      <point x="1622" y="608" type="qcurve" smooth="yes"/>
      <point x="1581" y="608"/>
      <point x="1581" y="608"/>
      <point x="1581" y="646" type="qcurve"/>
      <point x="1581" y="684"/>
      <point x="1581" y="684"/>
      <point x="1622" y="684" type="qcurve" smooth="yes"/>
      <point x="1663" y="684"/>
      <point x="1663" y="684"/>
      <point x="1663" y="646" type="qcurve"/>
      <point x="1663" y="608"/>
      <point x="1663" y="608"/>
    </contour>
    <contour>
      <point x="1622" y="684" type="qcurve" smooth="yes"/>
      <point x="1581" y="684"/>
      <point x="1581" y="684"/>
      <point x="1581" y="722" type="qcurve"/>
      <point x="1581" y="760"/>
      <point x="1581" y="760"/>
      <point x="1622" y="760" type="qcurve" smooth="yes"/>
      <point x="1663" y="760"/>
      <point x="1663" y="760"/>
      <point x="1663" y="722" type="qcurve"/>
      <point x="1663" y="684"/>
      <point x="1663" y="684"/>
    </contour>
    <contour>
      <point x="1540" y="1216" type="qcurve" smooth="yes"/>
      <point x="1499" y="1216"/>
      <point x="1499" y="1216"/>
      <point x="1499" y="1254" type="qcurve"/>
      <point x="1499" y="1292"/>
      <point x="1499" y="1292"/>
      <point x="1540" y="1292" type="qcurve" smooth="yes"/>
      <point x="1581" y="1292"/>
      <point x="1581" y="1292"/>
      <point x="1581" y="1254" type="qcurve"/>
      <point x="1581" y="1216"/>
      <point x="1581" y="1216"/>
    </contour>
    <contour>
      <point x="1540" y="1292" type="qcurve" smooth="yes"/>
      <point x="1499" y="1292"/>
      <point x="1499" y="1292"/>
      <point x="1499" y="1330" type="qcurve"/>
      <point x="1499" y="1368"/>
      <point x="1499" y="1368"/>
      <point x="1540" y="1368" type="qcurve" smooth="yes"/>
      <point x="1581" y="1368"/>
      <point x="1581" y="1368"/>
      <point x="1581" y="1330" type="qcurve"/>
      <point x="1581" y="1292"/>
      <point x="1581" y="1292"/>
    </contour>
    <contour>
      <point x="1622" y="1216" type="qcurve" smooth="yes"/>
      <point x="1581" y="1216"/>
      <point x="1581" y="1216"/>
      <point x="1581" y="1254" type="qcurve"/>
      <point x="1581" y="1292"/>
      <point x="1581" y="1292"/>
      <point x="1622" y="1292" type="qcurve" smooth="yes"/>
      <point x="1663" y="1292"/>
      <point x="1663" y="1292"/>
      <point x="1663" y="1254" type="qcurve"/>
      <point x="1663" y="1216"/>
      <point x="1663" y="1216"/>
    </contour>
    <contour>
      <point x="1622" y="1292" type="qcurve" smooth="yes"/>
      <point x="1581" y="1292"/>
      <point x="1581" y="1292"/>
      <point x="1581" y="1330" type="qcurve"/>
      <point x="1581" y="1368"/>
      <point x="1581" y="1368"/>
      <point x="1622" y="1368" type="qcurve" smooth="yes"/>
      <point x="1663" y="1368"/>
      <point x="1663" y="1368"/>
      <point x="1663" y="1330" type="qcurve"/>
      <point x="1663" y="1292"/>
      <point x="1663" y="1292"/>
    </contour>
    <contour>
      <point x="1540" y="760" type="qcurve" smooth="yes"/>
      <point x="1499" y="760"/>
      <point x="1499" y="760"/>
      <point x="1499" y="798" type="qcurve" smooth="yes"/>
      <point x="1499" y="836"/>
      <point x="1499" y="877"/>
      <point x="1499" y="992" type="qcurve" smooth="yes"/>
      <point x="1499" y="1103"/>
      <point x="1499" y="1140"/>
      <point x="1499" y="1178" type="qcurve" smooth="yes"/>
      <point x="1499" y="1216"/>
      <point x="1499" y="1216"/>
      <point x="1540" y="1216" type="qcurve" smooth="yes"/>
      <point x="1581" y="1216"/>
      <point x="1581" y="1216"/>
      <point x="1581" y="1178" type="qcurve" smooth="yes"/>
      <point x="1581" y="1140"/>
      <point x="1581" y="1102"/>
      <point x="1581" y="992" type="qcurve" smooth="yes"/>
      <point x="1581" y="875"/>
      <point x="1581" y="836"/>
      <point x="1581" y="798" type="qcurve" smooth="yes"/>
      <point x="1581" y="760"/>
      <point x="1581" y="760"/>
    </contour>
    <contour>
      <point x="1622" y="760" type="qcurve" smooth="yes"/>
      <point x="1581" y="760"/>
      <point x="1581" y="760"/>
      <point x="1581" y="798" type="qcurve" smooth="yes"/>
      <point x="1581" y="836"/>
      <point x="1581" y="877"/>
      <point x="1581" y="992" type="qcurve" smooth="yes"/>
      <point x="1581" y="1103"/>
      <point x="1581" y="1140"/>
      <point x="1581" y="1178" type="qcurve" smooth="yes"/>
      <point x="1581" y="1216"/>
      <point x="1581" y="1216"/>
      <point x="1622" y="1216" type="qcurve" smooth="yes"/>
      <point x="1663" y="1216"/>
      <point x="1663" y="1216"/>
      <point x="1663" y="1178" type="qcurve" smooth="yes"/>
      <point x="1663" y="1140"/>
      <point x="1663" y="1102"/>
      <point x="1663" y="992" type="qcurve" smooth="yes"/>
      <point x="1663" y="875"/>
      <point x="1663" y="836"/>
      <point x="1663" y="798" type="qcurve" smooth="yes"/>
      <point x="1663" y="760"/>
      <point x="1663" y="760"/>
    </contour>
    <component base="TopTerminalV3" xOffset="-96"/>
    <component base="WaistElement" xOffset="-96"/>
    <component base="MidStemTop" xOffset="-96"/>
    <component base="RoundWaistElement180" xOffset="1071" yOffset="-1"/>
  </outline>
</glyph>
<glyph name="V" format="1">
  <advance width="1726"/>
  <unicode hex="0056"/>
  <outline>
    <contour>
      <point x="629" y="152" type="qcurve"/>
      <point x="458" y="152"/>
      <point x="458" y="152"/>
      <point x="442" y="185" type="qcurve" smooth="yes"/>
      <point x="422" y="226"/>
      <point x="337" y="398"/>
      <point x="317" y="447" type="qcurve"/>
      <point x="301" y="482"/>
      <point x="301" y="482"/>
      <point x="440" y="543" type="qcurve"/>
      <point x="586" y="606"/>
      <point x="586" y="606"/>
      <point x="601" y="570" type="qcurve"/>
      <point x="615" y="537"/>
      <point x="729" y="302"/>
      <point x="752" y="251" type="qcurve"/>
      <point x="796" y="152"/>
      <point x="796" y="152"/>
    </contour>
    <contour>
      <point x="1051" y="152" type="qcurve"/>
      <point x="796" y="152"/>
      <point x="796" y="152"/>
      <point x="752" y="251" type="qcurve"/>
      <point x="729" y="302"/>
      <point x="616" y="535"/>
      <point x="601" y="570" type="qcurve"/>
      <point x="586" y="606"/>
      <point x="586" y="606"/>
      <point x="739" y="672" type="qcurve"/>
      <point x="872" y="729"/>
      <point x="872" y="729"/>
      <point x="887" y="693" type="qcurve"/>
      <point x="944" y="559"/>
      <point x="1053" y="327"/>
      <point x="1069" y="291" type="qcurve" smooth="yes"/>
      <point x="1089" y="245"/>
      <point x="1089" y="245"/>
    </contour>
    <contour>
      <point x="1169" y="152" type="qcurve"/>
      <point x="1127" y="152"/>
      <point x="1127" y="152"/>
      <point x="1164" y="233" type="qcurve" smooth="yes"/>
      <point x="1187" y="284"/>
      <point x="1279" y="489"/>
      <point x="1340" y="624" type="qcurve"/>
      <point x="1355" y="659"/>
      <point x="1355" y="659"/>
      <point x="1389" y="644" type="qcurve"/>
      <point x="1423" y="629"/>
      <point x="1423" y="629"/>
      <point x="1408" y="595" type="qcurve"/>
      <point x="1336" y="434"/>
      <point x="1246" y="226"/>
      <point x="1226" y="185" type="qcurve" smooth="yes"/>
      <point x="1210" y="152"/>
      <point x="1210" y="152"/>
    </contour>
    <contour>
      <point x="1108" y="199" type="qcurve"/>
      <point x="1089" y="245"/>
      <point x="1089" y="245"/>
      <point x="1108" y="291" type="qcurve" smooth="yes"/>
      <point x="1125" y="331"/>
      <point x="1211" y="518"/>
      <point x="1272" y="654" type="qcurve"/>
      <point x="1287" y="688"/>
      <point x="1287" y="688"/>
      <point x="1322" y="673" type="qcurve"/>
      <point x="1355" y="659"/>
      <point x="1355" y="659"/>
      <point x="1340" y="624" type="qcurve"/>
      <point x="1279" y="489"/>
      <point x="1187" y="284"/>
      <point x="1164" y="233" type="qcurve" smooth="yes"/>
      <point x="1127" y="152"/>
      <point x="1127" y="152"/>
    </contour>
    <component base="BaseCrown" xOffset="458"/>
    <component base="CWTermMidWaist" xScale="0.9167228629799683" xyScale="-0.3995237070435358" yxScale="0.3995237070435358" yScale="0.9167228629799683" xOffset="882" yOffset="199"/>
    <component base="CCWTermMidWaist" xScale="0.9184885575988073" xyScale="0.39544755601730947" yxScale="-0.39544755601730947" yScale="0.9184885575988073" xOffset="379" yOffset="-148"/>
  </outline>
</glyph>
<glyph name="W" format="1">
  <advance width="2590"/>
  <unicode hex="0057"/>
  <outline>
    <contour>
      <point x="524" y="152" type="qcurve"/>
      <point x="363" y="152"/>
      <point x="363" y="152"/>
      <point x="351" y="186" type="qcurve"/>
      <point x="336" y="228"/>
      <point x="268" y="433"/>
      <point x="255" y="470" type="qcurve"/>
      <point x="242" y="506"/>
      <point x="242" y="506"/>
      <point x="395" y="558" type="qcurve"/>
      <point x="538" y="607"/>
      <point x="538" y="607"/>
      <point x="550" y="571" type="qcurve"/>
      <point x="576" y="496"/>
      <point x="642" y="299"/>
      <point x="661" y="247" type="qcurve"/>
      <point x="695" y="152"/>
      <point x="695" y="152"/>
    </contour>
    <contour>
      <point x="943" y="152" type="qcurve"/>
      <point x="695" y="152"/>
      <point x="695" y="152"/>
      <point x="661" y="247" type="qcurve"/>
      <point x="642" y="299"/>
      <point x="576" y="496"/>
      <point x="550" y="571" type="qcurve"/>
      <point x="538" y="607"/>
      <point x="538" y="607"/>
      <point x="690" y="659" type="qcurve"/>
      <point x="833" y="706"/>
      <point x="833" y="706"/>
      <point x="844" y="672" type="qcurve"/>
      <point x="894" y="527"/>
      <point x="953" y="344"/>
      <point x="955" y="336" type="qcurve"/>
      <point x="967" y="302"/>
      <point x="967" y="302"/>
    </contour>
    <contour>
      <point x="1029" y="152" type="qcurve"/>
      <point x="990" y="152"/>
      <point x="990" y="152"/>
      <point x="1025" y="247" type="qcurve"/>
      <point x="1043" y="299"/>
      <point x="1085" y="412"/>
      <point x="1104" y="473" type="qcurve"/>
      <point x="1116" y="510"/>
      <point x="1116" y="510"/>
      <point x="1151" y="498" type="qcurve"/>
      <point x="1187" y="487"/>
      <point x="1187" y="487"/>
      <point x="1174" y="449" type="qcurve"/>
      <point x="1152" y="382"/>
      <point x="1097" y="228"/>
      <point x="1082" y="186" type="qcurve"/>
      <point x="1070" y="152"/>
      <point x="1070" y="152"/>
    </contour>
    <contour>
      <point x="978" y="229" type="qcurve"/>
      <point x="967" y="302"/>
      <point x="967" y="302"/>
      <point x="979" y="335" type="qcurve"/>
      <point x="984" y="349"/>
      <point x="1010" y="421"/>
      <point x="1034" y="497" type="qcurve"/>
      <point x="1046" y="533"/>
      <point x="1046" y="533"/>
      <point x="1082" y="521" type="qcurve"/>
      <point x="1116" y="510"/>
      <point x="1116" y="510"/>
      <point x="1104" y="473" type="qcurve"/>
      <point x="1085" y="412"/>
      <point x="1043" y="299"/>
      <point x="1025" y="247" type="qcurve"/>
      <point x="990" y="152"/>
      <point x="990" y="152"/>
    </contour>
    <contour>
      <point x="1127" y="661" type="qcurve"/>
      <point x="1093" y="673"/>
      <point x="1093" y="673"/>
      <point x="1105" y="709" type="qcurve"/>
      <point x="1129" y="775"/>
      <point x="1144" y="829"/>
      <point x="1159" y="871" type="qcurve"/>
      <point x="1171" y="905"/>
      <point x="1171" y="905"/>
      <point x="1212" y="905" type="qcurve"/>
      <point x="1251" y="905"/>
      <point x="1251" y="905"/>
      <point x="1217" y="810" type="qcurve"/>
      <point x="1201" y="761"/>
      <point x="1196" y="748"/>
      <point x="1176" y="687" type="qcurve"/>
      <point x="1163" y="649"/>
      <point x="1163" y="649"/>
    </contour>
    <contour>
      <point x="1199" y="637" type="qcurve"/>
      <point x="1163" y="649"/>
      <point x="1163" y="649"/>
      <point x="1176" y="687" type="qcurve"/>
      <point x="1196" y="748"/>
      <point x="1201" y="761"/>
      <point x="1217" y="810" type="qcurve"/>
      <point x="1251" y="905"/>
      <point x="1251" y="905"/>
      <point x="1264" y="829" type="qcurve"/>
      <point x="1275" y="755"/>
      <point x="1275" y="755"/>
      <point x="1265" y="721" type="qcurve"/>
      <point x="1263" y="713"/>
      <point x="1255" y="690"/>
      <point x="1246" y="663" type="qcurve"/>
      <point x="1233" y="625"/>
      <point x="1233" y="625"/>
    </contour>
    <contour>
      <point x="1426" y="663" type="qcurve"/>
      <point x="1387" y="650"/>
      <point x="1387" y="650"/>
      <point x="1375" y="687" type="qcurve"/>
      <point x="1355" y="747"/>
      <point x="1349" y="761"/>
      <point x="1333" y="810" type="qcurve"/>
      <point x="1299" y="905"/>
      <point x="1299" y="905"/>
      <point x="1338" y="905" type="qcurve"/>
      <point x="1879" y="905"/>
      <point x="1879" y="905"/>
      <point x="1883" y="893" type="qcurve"/>
      <point x="1887" y="879"/>
      <point x="1893" y="860"/>
      <point x="1900" y="837" type="qcurve"/>
      <point x="1904" y="825"/>
      <point x="1903" y="825"/>
    </contour>
    <contour>
      <point x="1352" y="638" type="qcurve"/>
      <point x="1314" y="625"/>
      <point x="1314" y="625"/>
      <point x="1302" y="662" type="qcurve"/>
      <point x="1294" y="689"/>
      <point x="1287" y="713"/>
      <point x="1285" y="721" type="qcurve"/>
      <point x="1275" y="755"/>
      <point x="1275" y="755"/>
      <point x="1286" y="829" type="qcurve"/>
      <point x="1299" y="905"/>
      <point x="1299" y="905"/>
      <point x="1333" y="810" type="qcurve"/>
      <point x="1349" y="761"/>
      <point x="1355" y="747"/>
      <point x="1375" y="687" type="qcurve"/>
      <point x="1387" y="650"/>
      <point x="1387" y="650"/>
    </contour>
    <contour>
      <point x="1521" y="152" type="qcurve"/>
      <point x="1480" y="152"/>
      <point x="1480" y="152"/>
      <point x="1468" y="186" type="qcurve"/>
      <point x="1453" y="228"/>
      <point x="1397" y="383"/>
      <point x="1374" y="450" type="qcurve"/>
      <point x="1361" y="485"/>
      <point x="1361" y="485"/>
      <point x="1398" y="498" type="qcurve"/>
      <point x="1657" y="586"/>
      <point x="1657" y="586"/>
      <point x="1694" y="475" type="qcurve"/>
      <point x="1714" y="414"/>
      <point x="1754" y="299"/>
      <point x="1787" y="207" type="qcurve"/>
      <point x="1807" y="152"/>
      <point x="1807" y="152"/>
    </contour>
    <contour>
      <point x="2060" y="152" type="qcurve"/>
      <point x="1807" y="152"/>
      <point x="1807" y="152"/>
      <point x="1787" y="207" type="qcurve"/>
      <point x="1754" y="299"/>
      <point x="1714" y="414"/>
      <point x="1694" y="475" type="qcurve"/>
      <point x="1657" y="586"/>
      <point x="1657" y="586"/>
      <point x="1806" y="636" type="qcurve"/>
      <point x="1952" y="686"/>
      <point x="1952" y="686"/>
      <point x="1964" y="650" type="qcurve"/>
      <point x="1988" y="574"/>
      <point x="2014" y="495"/>
      <point x="2068" y="344" type="qcurve"/>
      <point x="2084" y="301"/>
      <point x="2084" y="301"/>
    </contour>
    <contour>
      <point x="2147" y="152" type="qcurve"/>
      <point x="2108" y="152"/>
      <point x="2108" y="152"/>
      <point x="2143" y="247" type="qcurve"/>
      <point x="2161" y="299"/>
      <point x="2220" y="478"/>
      <point x="2265" y="607" type="qcurve"/>
      <point x="2277" y="642"/>
      <point x="2277" y="642"/>
      <point x="2312" y="631" type="qcurve"/>
      <point x="2347" y="619"/>
      <point x="2347" y="619"/>
      <point x="2334" y="583" type="qcurve"/>
      <point x="2277" y="417"/>
      <point x="2215" y="228"/>
      <point x="2200" y="186" type="qcurve"/>
      <point x="2188" y="152"/>
      <point x="2188" y="152"/>
    </contour>
    <contour>
      <point x="2095" y="228" type="qcurve"/>
      <point x="2084" y="302"/>
      <point x="2084" y="302"/>
      <point x="2095" y="336" type="qcurve"/>
      <point x="2097" y="344"/>
      <point x="2145" y="487"/>
      <point x="2195" y="631" type="qcurve"/>
      <point x="2207" y="667"/>
      <point x="2207" y="667"/>
      <point x="2242" y="654" type="qcurve"/>
      <point x="2277" y="642"/>
      <point x="2277" y="642"/>
      <point x="2265" y="607" type="qcurve"/>
      <point x="2220" y="478"/>
      <point x="2161" y="299"/>
      <point x="2143" y="247" type="qcurve"/>
      <point x="2108" y="152"/>
      <point x="2108" y="152"/>
    </contour>
    <component base="BaseCrown2" xOffset="1481"/>
    <component base="BaseCrown2" xOffset="364"/>
    <component base="TopCrownW" xOffset="1023" yOffset="755"/>
    <component base="CCWTermMidWaist" xScale="0.9472102777460288" xyScale="0.32061299058567627" yxScale="-0.32061299058567627" yScale="0.9472102777460288" xOffset="271" yOffset="-128"/>
    <component base="CWTermMidWaist" xScale="0.9472102777460287" xyScale="-0.3206129905856762" yxScale="0.3206129905856762" yScale="0.9472102777460287" xOffset="1845" yOffset="144"/>
    <component base="CWWaist" xScale="0.9472102777460288" xyScale="-0.32061299058567627" yxScale="0.32061299058567627" yScale="0.9472102777460288" xOffset="684" yOffset="11"/>
    <component base="CCWWaist" xScale="0.9472102777460288" xyScale="0.32061299058567627" yxScale="-0.32061299058567627" yScale="0.9472102777460288" xOffset="1390" yOffset="-149"/>
  </outline>
</glyph>
<glyph name="X" format="1">
  <advance width="1373"/>
  <unicode hex="0058"/>
  <outline>
    <contour>
      <point x="131" y="169" type="qcurve"/>
      <point x="101" y="191"/>
      <point x="101" y="191"/>
      <point x="124" y="222" type="qcurve"/>
      <point x="147" y="253"/>
      <point x="173" y="283"/>
      <point x="196" y="315" type="qcurve" smooth="yes"/>
      <point x="218" y="346"/>
      <point x="307" y="459"/>
      <point x="351" y="517" type="qcurve"/>
      <point x="385" y="562"/>
      <point x="385" y="562"/>
      <point x="410" y="531" type="qcurve"/>
      <point x="433" y="502"/>
      <point x="433" y="502"/>
      <point x="404" y="462" type="qcurve"/>
      <point x="374" y="422"/>
      <point x="281" y="307"/>
      <point x="253" y="270" type="qcurve" smooth="yes"/>
      <point x="236" y="248"/>
      <point x="206" y="208"/>
      <point x="183" y="177" type="qcurve"/>
      <point x="160" y="147"/>
      <point x="160" y="147"/>
    </contour>
    <contour>
      <point x="189" y="124" type="qcurve"/>
      <point x="160" y="147"/>
      <point x="160" y="147"/>
      <point x="183" y="177" type="qcurve"/>
      <point x="206" y="208"/>
      <point x="236" y="248"/>
      <point x="253" y="270" type="qcurve" smooth="yes"/>
      <point x="281" y="307"/>
      <point x="374" y="422"/>
      <point x="404" y="462" type="qcurve"/>
      <point x="433" y="502"/>
      <point x="433" y="502"/>
      <point x="456" y="471" type="qcurve"/>
      <point x="480" y="440"/>
      <point x="480" y="440"/>
      <point x="454" y="407" type="qcurve"/>
      <point x="431" y="378"/>
      <point x="339" y="257"/>
      <point x="314" y="225" type="qcurve" smooth="yes"/>
      <point x="289" y="193"/>
      <point x="265" y="163"/>
      <point x="242" y="133" type="qcurve"/>
      <point x="219" y="102"/>
      <point x="219" y="102"/>
    </contour>
    <contour>
      <point x="533" y="755" type="qcurve"/>
      <point x="385" y="562"/>
      <point x="385" y="562"/>
      <point x="329" y="635" type="qcurve"/>
      <point x="307" y="663"/>
      <point x="272" y="709"/>
      <point x="229" y="765" type="qcurve"/>
      <point x="195" y="808"/>
      <point x="152" y="864"/>
      <point x="129" y="894" type="qcurve"/>
      <point x="106" y="925"/>
      <point x="106" y="924"/>
      <point x="232" y="1019" type="qcurve"/>
      <point x="352" y="1112"/>
      <point x="352" y="1112"/>
      <point x="375" y="1081" type="qcurve" smooth="yes"/>
      <point x="398" y="1051"/>
      <point x="440" y="999"/>
      <point x="475" y="952" type="qcurve"/>
      <point x="499" y="920"/>
      <point x="537" y="871"/>
      <point x="567" y="834" type="qcurve"/>
      <point x="630" y="755"/>
      <point x="630" y="755"/>
    </contour>
    <contour>
      <point x="721" y="755" type="qcurve"/>
      <point x="630" y="755"/>
      <point x="630" y="755"/>
      <point x="567" y="834" type="qcurve"/>
      <point x="537" y="871"/>
      <point x="499" y="920"/>
      <point x="475" y="952" type="qcurve" smooth="yes"/>
      <point x="440" y="998"/>
      <point x="398" y="1051"/>
      <point x="375" y="1081" type="qcurve" smooth="yes"/>
      <point x="352" y="1112"/>
      <point x="352" y="1112"/>
      <point x="471" y="1202" type="qcurve"/>
      <point x="602" y="1299"/>
      <point x="602" y="1299"/>
      <point x="626" y="1268" type="qcurve"/>
      <point x="650" y="1238"/>
      <point x="691" y="1184"/>
      <point x="725" y="1139" type="qcurve"/>
      <point x="766" y="1083"/>
      <point x="803" y="1036"/>
      <point x="825" y="1007" type="qcurve"/>
      <point x="871" y="951"/>
      <point x="871" y="951"/>
    </contour>
    <contour>
      <point x="884" y="156" type="qcurve"/>
      <point x="767" y="68"/>
      <point x="767" y="68"/>
      <point x="743" y="99" type="qcurve" smooth="yes"/>
      <point x="720" y="129"/>
      <point x="708" y="141"/>
      <point x="678" y="182" type="qcurve" smooth="yes"/>
      <point x="648" y="222"/>
      <point x="528" y="378"/>
      <point x="505" y="408" type="qcurve" smooth="yes"/>
      <point x="480" y="440"/>
      <point x="480" y="440"/>
      <point x="616" y="617" type="qcurve"/>
      <point x="732" y="617"/>
      <point x="732" y="617"/>
      <point x="859" y="461" type="qcurve"/>
      <point x="882" y="431"/>
      <point x="900" y="409"/>
      <point x="930" y="370" type="qcurve" smooth="yes"/>
      <point x="950" y="344"/>
      <point x="972" y="317"/>
      <point x="995" y="287" type="qcurve" smooth="yes"/>
      <point x="1018" y="257"/>
      <point x="1018" y="257"/>
    </contour>
    <contour>
      <point x="896" y="918" type="qcurve"/>
      <point x="873" y="948"/>
      <point x="872" y="951"/>
      <point x="895" y="982" type="qcurve" smooth="yes"/>
      <point x="906" y="997"/>
      <point x="989" y="1110"/>
      <point x="1018" y="1146" type="qcurve" smooth="yes"/>
      <point x="1044" y="1178"/>
      <point x="1077" y="1220"/>
      <point x="1088" y="1235" type="qcurve" smooth="yes"/>
      <point x="1111" y="1266"/>
      <point x="1111" y="1266"/>
      <point x="1141" y="1243" type="qcurve"/>
      <point x="1170" y="1221"/>
      <point x="1170" y="1221"/>
      <point x="1147" y="1191" type="qcurve" smooth="yes"/>
      <point x="1135" y="1175"/>
      <point x="1099" y="1127"/>
      <point x="1073" y="1096" type="qcurve"/>
      <point x="1047" y="1057"/>
      <point x="965" y="952"/>
      <point x="954" y="938" type="qcurve"/>
      <point x="919" y="889"/>
      <point x="919" y="889"/>
    </contour>
    <contour>
      <point x="1142" y="350" type="qcurve"/>
      <point x="1018" y="258"/>
      <point x="1018" y="257"/>
      <point x="995" y="287" type="qcurve" smooth="yes"/>
      <point x="972" y="317"/>
      <point x="947" y="348"/>
      <point x="930" y="370" type="qcurve" smooth="yes"/>
      <point x="901" y="408"/>
      <point x="882" y="431"/>
      <point x="859" y="461" type="qcurve"/>
      <point x="732" y="617"/>
      <point x="732" y="617"/>
      <point x="807" y="617" type="qcurve"/>
      <point x="966" y="828"/>
      <point x="966" y="828"/>
      <point x="1082" y="680" type="qcurve"/>
      <point x="1103" y="652"/>
      <point x="1130" y="617"/>
      <point x="1161" y="578" type="qcurve"/>
      <point x="1195" y="534"/>
      <point x="1218" y="506"/>
      <point x="1242" y="476" type="qcurve"/>
      <point x="1267" y="444"/>
      <point x="1267" y="444"/>
    </contour>
    <contour>
      <point x="942" y="859" type="qcurve"/>
      <point x="919" y="889"/>
      <point x="919" y="889"/>
      <point x="954" y="938" type="qcurve"/>
      <point x="965" y="952"/>
      <point x="1047" y="1057"/>
      <point x="1073" y="1096" type="qcurve"/>
      <point x="1099" y="1127"/>
      <point x="1135" y="1175"/>
      <point x="1147" y="1191" type="qcurve" smooth="yes"/>
      <point x="1170" y="1221"/>
      <point x="1170" y="1221"/>
      <point x="1200" y="1199" type="qcurve"/>
      <point x="1229" y="1177"/>
      <point x="1229" y="1177"/>
      <point x="1206" y="1146" type="qcurve" smooth="yes"/>
      <point x="1194" y="1131"/>
      <point x="1157" y="1083"/>
      <point x="1131" y="1051" type="qcurve" smooth="yes"/>
      <point x="1101" y="1014"/>
      <point x="1024" y="908"/>
      <point x="1013" y="893" type="qcurve"/>
      <point x="966" y="828"/>
      <point x="966" y="828"/>
    </contour>
    <contour>
      <point x="410" y="531" type="qcurve"/>
      <point x="385" y="562"/>
      <point x="385" y="562"/>
      <point x="533" y="755" type="qcurve"/>
      <point x="631" y="755"/>
      <point x="631" y="755"/>
      <point x="658" y="718" type="qcurve"/>
      <point x="682" y="684"/>
      <point x="682" y="684"/>
      <point x="572" y="684" type="qcurve"/>
      <point x="433" y="502"/>
      <point x="433" y="502"/>
    </contour>
    <contour>
      <point x="616" y="617" type="qcurve"/>
      <point x="480" y="440"/>
      <point x="480" y="440"/>
      <point x="456" y="471" type="qcurve"/>
      <point x="433" y="502"/>
      <point x="433" y="502"/>
      <point x="572" y="684" type="qcurve"/>
      <point x="682" y="684"/>
      <point x="682" y="684"/>
      <point x="707" y="650" type="qcurve"/>
      <point x="732" y="617"/>
      <point x="732" y="617"/>
    </contour>
    <contour>
      <point x="658" y="718" type="qcurve"/>
      <point x="631" y="755"/>
      <point x="631" y="755"/>
      <point x="721" y="755" type="qcurve"/>
      <point x="871" y="951"/>
      <point x="871" y="951"/>
      <point x="896" y="918" type="qcurve"/>
      <point x="919" y="889"/>
      <point x="919" y="889"/>
      <point x="766" y="684" type="qcurve"/>
      <point x="682" y="684"/>
      <point x="682" y="684"/>
    </contour>
    <contour>
      <point x="707" y="650" type="qcurve"/>
      <point x="682" y="684"/>
      <point x="682" y="684"/>
      <point x="766" y="684" type="qcurve"/>
      <point x="919" y="889"/>
      <point x="919" y="889"/>
      <point x="942" y="859" type="qcurve"/>
      <point x="966" y="828"/>
      <point x="966" y="828"/>
      <point x="807" y="617" type="qcurve"/>
      <point x="732" y="617"/>
      <point x="732" y="617"/>
    </contour>
    <component base="CWTerm" xScale="0.7986355100472928" xyScale="-0.6018150231520483" yxScale="0.6018150231520483" yScale="0.7986355100472928" xOffset="236" yOffset="397"/>
    <component base="CCWTerm" xScale="-0.7986355100472928" xyScale="-0.6018150231520483" yxScale="0.6018150231520483" yScale="-0.7986355100472928" xOffset="673" yOffset="1525"/>
    <component base="CCWTerm" xScale="0.7986355100472928" xyScale="0.6018150231520483" yxScale="-0.6018150231520483" yScale="0.7986355100472928" xOffset="698" yOffset="-157"/>
    <component base="CWTerm" xScale="-0.7986355100472928" xyScale="0.6018150231520483" yxScale="-0.6018150231520483" yScale="-0.7986355100472928" xOffset="1094" yOffset="971"/>
  </outline>
</glyph>
<glyph name="Y" format="1">
  <advance width="1531"/>
  <unicode hex="0059"/>
  <outline>
    <contour>
      <point x="522" y="642" type="qcurve"/>
      <point x="341" y="642"/>
      <point x="341" y="642"/>
      <point x="329" y="661" type="qcurve"/>
      <point x="261" y="764"/>
      <point x="190" y="865"/>
      <point x="111" y="991" type="qcurve"/>
      <point x="97" y="1012"/>
      <point x="97" y="1012"/>
      <point x="228" y="1092" type="qcurve"/>
      <point x="362" y="1176"/>
      <point x="362" y="1176"/>
      <point x="378" y="1152" type="qcurve"/>
      <point x="471" y="1002"/>
      <point x="604" y="764"/>
      <point x="652" y="680" type="qcurve"/>
      <point x="673" y="642"/>
      <point x="673" y="642"/>
    </contour>
    <contour>
      <point x="917" y="642" type="qcurve"/>
      <point x="673" y="642"/>
      <point x="673" y="642"/>
      <point x="652" y="680" type="qcurve"/>
      <point x="605" y="762"/>
      <point x="472" y="1001"/>
      <point x="378" y="1152" type="qcurve"/>
      <point x="362" y="1176"/>
      <point x="362" y="1176"/>
      <point x="499" y="1264" type="qcurve"/>
      <point x="626" y="1342"/>
      <point x="626" y="1342"/>
      <point x="656" y="1291" type="qcurve"/>
      <point x="726" y="1162"/>
      <point x="900" y="828"/>
      <point x="941" y="749" type="qcurve"/>
      <point x="964" y="699"/>
      <point x="964" y="699"/>
    </contour>
    <contour>
      <point x="554" y="152" type="qcurve"/>
      <point x="390" y="152"/>
      <point x="390" y="152"/>
      <point x="390" y="209" type="qcurve"/>
      <point x="390" y="265"/>
      <point x="390" y="378"/>
      <point x="390" y="433" type="qcurve"/>
      <point x="390" y="491"/>
      <point x="390" y="491"/>
      <point x="554" y="491" type="qcurve"/>
      <point x="718" y="491"/>
      <point x="718" y="491"/>
      <point x="718" y="433" type="qcurve"/>
      <point x="718" y="378"/>
      <point x="718" y="265"/>
      <point x="718" y="209" type="qcurve"/>
      <point x="718" y="152"/>
      <point x="718" y="152"/>
    </contour>
    <contour>
      <point x="882" y="152" type="qcurve"/>
      <point x="718" y="152"/>
      <point x="718" y="152"/>
      <point x="718" y="209" type="qcurve"/>
      <point x="718" y="265"/>
      <point x="718" y="378"/>
      <point x="718" y="433" type="qcurve"/>
      <point x="718" y="491"/>
      <point x="718" y="491"/>
      <point x="882" y="491" type="qcurve"/>
      <point x="1045" y="491"/>
      <point x="1045" y="491"/>
      <point x="1045" y="433" type="qcurve"/>
      <point x="1045" y="378"/>
      <point x="1045" y="265"/>
      <point x="1045" y="209" type="qcurve"/>
      <point x="1045" y="152"/>
      <point x="1045" y="152"/>
    </contour>
    <contour>
      <point x="986" y="671" type="qcurve"/>
      <point x="964" y="699"/>
      <point x="964" y="699"/>
      <point x="992" y="744" type="qcurve"/>
      <point x="1039" y="822"/>
      <point x="1196" y="1074"/>
      <point x="1267" y="1187" type="qcurve"/>
      <point x="1307" y="1250"/>
      <point x="1307" y="1250"/>
      <point x="1339" y="1230" type="qcurve"/>
      <point x="1370" y="1211"/>
      <point x="1370" y="1211"/>
      <point x="1332" y="1149" type="qcurve"/>
      <point x="1263" y="1038"/>
      <point x="1089" y="768"/>
      <point x="1030" y="675" type="qcurve"/>
      <point x="1009" y="642"/>
      <point x="1009" y="642"/>
    </contour>
    <contour>
      <point x="1052" y="642" type="qcurve"/>
      <point x="1009" y="642"/>
      <point x="1009" y="642"/>
      <point x="1030" y="675" type="qcurve"/>
      <point x="1089" y="768"/>
      <point x="1263" y="1038"/>
      <point x="1332" y="1149" type="qcurve"/>
      <point x="1370" y="1211"/>
      <point x="1370" y="1211"/>
      <point x="1403" y="1190" type="qcurve"/>
      <point x="1433" y="1171"/>
      <point x="1433" y="1171"/>
      <point x="1395" y="1110" type="qcurve"/>
      <point x="1329" y="998"/>
      <point x="1175" y="764"/>
      <point x="1107" y="661" type="qcurve"/>
      <point x="1094" y="642"/>
      <point x="1094" y="642"/>
    </contour>
    <contour>
      <point x="677" y="491" type="qcurve" smooth="yes"/>
      <point x="390" y="491"/>
      <point x="390" y="491"/>
      <point x="390" y="529" type="qcurve"/>
      <point x="390" y="567"/>
      <point x="390" y="567"/>
      <point x="553" y="567" type="qcurve"/>
      <point x="963" y="567"/>
      <point x="963" y="567"/>
      <point x="963" y="529" type="qcurve"/>
      <point x="963" y="491"/>
      <point x="963" y="491"/>
    </contour>
    <contour>
      <point x="431" y="567" type="qcurve"/>
      <point x="390" y="567"/>
      <point x="390" y="567"/>
      <point x="366" y="605" type="qcurve"/>
      <point x="341" y="642"/>
      <point x="341" y="642"/>
      <point x="522" y="642" type="qcurve"/>
      <point x="673" y="642"/>
      <point x="673" y="642"/>
      <point x="693" y="607" type="qcurve"/>
      <point x="715" y="567"/>
      <point x="715" y="567"/>
    </contour>
    <contour>
      <point x="1004" y="491" type="qcurve" smooth="yes"/>
      <point x="963" y="491"/>
      <point x="963" y="491"/>
      <point x="963" y="529" type="qcurve"/>
      <point x="963" y="567"/>
      <point x="963" y="567"/>
      <point x="1004" y="567" type="qcurve" smooth="yes"/>
      <point x="1045" y="567"/>
      <point x="1045" y="567"/>
      <point x="1045" y="529" type="qcurve"/>
      <point x="1045" y="491"/>
      <point x="1045" y="491"/>
    </contour>
    <contour>
      <point x="1004" y="567" type="qcurve"/>
      <point x="963" y="567"/>
      <point x="963" y="567"/>
      <point x="987" y="606" type="qcurve"/>
      <point x="1009" y="642"/>
      <point x="1009" y="642"/>
      <point x="1052" y="642" type="qcurve"/>
      <point x="1094" y="642"/>
      <point x="1094" y="642"/>
      <point x="1069" y="605" type="qcurve"/>
      <point x="1045" y="567"/>
      <point x="1045" y="567"/>
    </contour>
    <contour>
      <point x="715" y="567" type="qcurve"/>
      <point x="673" y="642"/>
      <point x="673" y="642"/>
      <point x="917" y="642" type="qcurve"/>
      <point x="964" y="699"/>
      <point x="964" y="699"/>
      <point x="1009" y="642" type="qcurve"/>
      <point x="963" y="567"/>
      <point x="963" y="567"/>
    </contour>
    <component base="BaseTerminal" xOffset="144"/>
    <component base="CWTerm" xScale="0.848048096156426" xyScale="-0.5299192642332049" yxScale="0.5299192642332049" yScale="0.848048096156426" xOffset="511" yOffset="307"/>
    <component base="CCWTerm" xScale="0.8475799498429241" xyScale="0.5306677195988715" yxScale="-0.5306677195988715" yScale="0.8475799498429241" xOffset="596" yOffset="-117"/>
  </outline>
</glyph>
<glyph name="BaseElementV2" format="1">
  <advance width="1148"/>
  <outline>
    <contour>
      <point x="410" y="0" type="qcurve" smooth="yes"/>
      <point x="246" y="0"/>
      <point x="246" y="0"/>
      <point x="246" y="38" type="qcurve"/>
      <point x="246" y="76"/>
      <point x="246" y="76"/>
      <point x="410" y="76" type="qcurve" smooth="yes"/>
      <point x="574" y="76"/>
      <point x="574" y="76"/>
      <point x="574" y="38" type="qcurve"/>
      <point x="574" y="0"/>
      <point x="574" y="0"/>
    </contour>
    <contour>
      <point x="410" y="76" type="qcurve" smooth="yes"/>
      <point x="246" y="76"/>
      <point x="246" y="76"/>
      <point x="246" y="114" type="qcurve"/>
      <point x="246" y="152"/>
      <point x="246" y="152"/>
      <point x="410" y="152" type="qcurve" smooth="yes"/>
      <point x="574" y="152"/>
      <point x="574" y="152"/>
      <point x="574" y="114" type="qcurve"/>
      <point x="574" y="76"/>
      <point x="574" y="76"/>
    </contour>
    <contour>
      <point x="738" y="0" type="qcurve" smooth="yes"/>
      <point x="574" y="0"/>
      <point x="574" y="0"/>
      <point x="574" y="38" type="qcurve"/>
      <point x="574" y="76"/>
      <point x="574" y="76"/>
      <point x="738" y="76" type="qcurve" smooth="yes"/>
      <point x="902" y="76"/>
      <point x="902" y="76"/>
      <point x="902" y="38" type="qcurve"/>
      <point x="902" y="0"/>
      <point x="902" y="0"/>
    </contour>
    <contour>
      <point x="738" y="76" type="qcurve" smooth="yes"/>
      <point x="574" y="76"/>
      <point x="574" y="76"/>
      <point x="574" y="114" type="qcurve"/>
      <point x="574" y="152"/>
      <point x="574" y="152"/>
      <point x="738" y="152" type="qcurve" smooth="yes"/>
      <point x="902" y="152"/>
      <point x="902" y="152"/>
      <point x="902" y="114" type="qcurve"/>
      <point x="902" y="76"/>
      <point x="902" y="76"/>
    </contour>
  </outline>
</glyph>
<glyph name="CCWTopMid" format="1">
  <advance width="1680"/>
  <outline>
    <contour>
      <point x="684" y="758" type="qcurve" smooth="yes"/>
      <point x="528" y="758"/>
      <point x="528" y="758"/>
      <point x="528" y="795" type="qcurve" smooth="yes"/>
      <point x="528" y="833"/>
      <point x="528" y="878"/>
      <point x="528" y="993" type="qcurve" smooth="yes"/>
      <point x="528" y="1104"/>
      <point x="528" y="1144"/>
      <point x="528" y="1182" type="qcurve" smooth="yes"/>
      <point x="528" y="1220"/>
      <point x="528" y="1220"/>
      <point x="684" y="1220" type="qcurve" smooth="yes"/>
      <point x="840" y="1220"/>
      <point x="840" y="1220"/>
      <point x="840" y="1182" type="qcurve" smooth="yes"/>
      <point x="840" y="1144"/>
      <point x="840" y="1103"/>
      <point x="840" y="993" type="qcurve" smooth="yes"/>
      <point x="840" y="876"/>
      <point x="840" y="833"/>
      <point x="840" y="795" type="qcurve" smooth="yes"/>
      <point x="840" y="758"/>
      <point x="840" y="758"/>
    </contour>
    <contour>
      <point x="996" y="758" type="qcurve" smooth="yes"/>
      <point x="840" y="758"/>
      <point x="840" y="758"/>
      <point x="840" y="795" type="qcurve" smooth="yes"/>
      <point x="840" y="833"/>
      <point x="840" y="878"/>
      <point x="840" y="993" type="qcurve" smooth="yes"/>
      <point x="840" y="1104"/>
      <point x="840" y="1144"/>
      <point x="840" y="1182" type="qcurve" smooth="yes"/>
      <point x="840" y="1220"/>
      <point x="840" y="1220"/>
      <point x="996" y="1220" type="qcurve" smooth="yes"/>
      <point x="1152" y="1220"/>
      <point x="1152" y="1220"/>
      <point x="1152" y="1182" type="qcurve" smooth="yes"/>
      <point x="1152" y="1144"/>
      <point x="1152" y="1103"/>
      <point x="1152" y="993" type="qcurve" smooth="yes"/>
      <point x="1152" y="876"/>
      <point x="1152" y="833"/>
      <point x="1152" y="795" type="qcurve" smooth="yes"/>
      <point x="1152" y="758"/>
      <point x="1152" y="758"/>
    </contour>
  </outline>
</glyph>
<glyph name="MidStemBot" format="1">
  <advance width="1148"/>
  <outline>
    <contour>
      <point x="410" y="152" type="qcurve" smooth="yes"/>
      <point x="246" y="152"/>
      <point x="246" y="152"/>
      <point x="246" y="190" type="qcurve" smooth="yes"/>
      <point x="246" y="228"/>
      <point x="246" y="265"/>
      <point x="246" y="380" type="qcurve" smooth="yes"/>
      <point x="246" y="491"/>
      <point x="246" y="532"/>
      <point x="246" y="570" type="qcurve" smooth="yes"/>
      <point x="246" y="608"/>
      <point x="246" y="608"/>
      <point x="410" y="608" type="qcurve" smooth="yes"/>
      <point x="574" y="608"/>
      <point x="574" y="608"/>
      <point x="574" y="570" type="qcurve" smooth="yes"/>
      <point x="574" y="532"/>
      <point x="574" y="490"/>
      <point x="574" y="380" type="qcurve" smooth="yes"/>
      <point x="574" y="263"/>
      <point x="574" y="228"/>
      <point x="574" y="190" type="qcurve" smooth="yes"/>
      <point x="574" y="152"/>
      <point x="574" y="152"/>
    </contour>
    <contour>
      <point x="738" y="152" type="qcurve" smooth="yes"/>
      <point x="574" y="152"/>
      <point x="574" y="152"/>
      <point x="574" y="190" type="qcurve" smooth="yes"/>
      <point x="574" y="228"/>
      <point x="574" y="265"/>
      <point x="574" y="380" type="qcurve" smooth="yes"/>
      <point x="574" y="491"/>
      <point x="574" y="532"/>
      <point x="574" y="570" type="qcurve" smooth="yes"/>
      <point x="574" y="608"/>
      <point x="574" y="608"/>
      <point x="738" y="608" type="qcurve"/>
      <point x="902" y="608"/>
      <point x="902" y="608"/>
      <point x="902" y="570" type="qcurve" smooth="yes"/>
      <point x="902" y="532"/>
      <point x="902" y="490"/>
      <point x="902" y="380" type="qcurve" smooth="yes"/>
      <point x="902" y="263"/>
      <point x="902" y="228"/>
      <point x="902" y="190" type="qcurve" smooth="yes"/>
      <point x="902" y="152"/>
      <point x="902" y="152"/>
    </contour>
  </outline>
</glyph>
<glyph name="MidStemTop" format="1">
  <advance width="1148"/>
  <outline>
    <contour>
      <point x="411" y="760" type="qcurve"/>
      <point x="246" y="760"/>
      <point x="246" y="760"/>
      <point x="246" y="798" type="qcurve" smooth="yes"/>
      <point x="246" y="836"/>
      <point x="246" y="877"/>
      <point x="246" y="992" type="qcurve" smooth="yes"/>
      <point x="246" y="1103"/>
      <point x="246" y="1140"/>
      <point x="246" y="1178" type="qcurve" smooth="yes"/>
      <point x="246" y="1216"/>
      <point x="246" y="1216"/>
      <point x="411" y="1216" type="qcurve"/>
      <point x="577" y="1216"/>
      <point x="577" y="1216"/>
      <point x="577" y="1178" type="qcurve" smooth="yes"/>
      <point x="577" y="1140"/>
      <point x="577" y="1102"/>
      <point x="577" y="992" type="qcurve" smooth="yes"/>
      <point x="577" y="875"/>
      <point x="577" y="836"/>
      <point x="577" y="798" type="qcurve" smooth="yes"/>
      <point x="577" y="760"/>
      <point x="577" y="760"/>
    </contour>
    <contour>
      <point x="743" y="760" type="qcurve"/>
      <point x="577" y="760"/>
      <point x="577" y="760"/>
      <point x="577" y="798" type="qcurve" smooth="yes"/>
      <point x="577" y="836"/>
      <point x="577" y="877"/>
      <point x="577" y="992" type="qcurve" smooth="yes"/>
      <point x="577" y="1103"/>
      <point x="577" y="1140"/>
      <point x="577" y="1178" type="qcurve" smooth="yes"/>
      <point x="577" y="1216"/>
      <point x="577" y="1216"/>
      <point x="743" y="1216" type="qcurve"/>
      <point x="908" y="1216"/>
      <point x="908" y="1216"/>
      <point x="908" y="1178" type="qcurve" smooth="yes"/>
      <point x="908" y="1140"/>
      <point x="908" y="1102"/>
      <point x="908" y="992" type="qcurve" smooth="yes"/>
      <point x="908" y="875"/>
      <point x="908" y="836"/>
      <point x="908" y="798" type="qcurve" smooth="yes"/>
      <point x="908" y="760"/>
      <point x="908" y="760"/>
    </contour>
  </outline>
</glyph>
<glyph name="RightUJoint" format="1">
  <advance width="1390"/>
  <outline>
    <contour>
      <point x="77.0" y="-23.0" type="qcurve"/>
      <point x="199.0" y="-23.0"/>
      <point x="413.0" y="2.0"/>
      <point x="503.0" y="26.0" type="qcurve" smooth="yes"/>
      <point x="746.0" y="90.0"/>
      <point x="995.0" y="363.0"/>
      <point x="995.0" y="542.0" type="qcurve"/>
      <point x="995.0" y="608.0"/>
      <point x="995" y="608"/>
      <point x="713" y="608" type="qcurve"/>
      <point x="421" y="608"/>
      <point x="421.0" y="608.0"/>
      <point x="421.0" y="551.0" type="qcurve"/>
      <point x="421.0" y="426.0"/>
      <point x="392.0" y="249.0"/>
      <point x="337.0" y="178.0" type="qcurve" smooth="yes"/>
      <point x="288.0" y="115.0"/>
      <point x="148.0" y="54.0"/>
      <point x="68.0" y="51.0" type="qcurve"/>
      <point x="50.0" y="51.0"/>
      <point x="50.0" y="51.0"/>
      <point x="50.0" y="15.0" type="qcurve"/>
      <point x="50.0" y="-24.0"/>
      <point x="50.0" y="-24.0"/>
    </contour>
    <contour>
      <point x="68" y="51" type="qcurve"/>
      <point x="148" y="54"/>
      <point x="288" y="115"/>
      <point x="337" y="178" type="qcurve" smooth="yes"/>
      <point x="392" y="249"/>
      <point x="421" y="426"/>
      <point x="421" y="551" type="qcurve"/>
      <point x="421" y="608"/>
      <point x="421" y="608"/>
      <point x="379" y="608" type="qcurve"/>
      <point x="339" y="608"/>
      <point x="339" y="608"/>
      <point x="339" y="560" type="qcurve"/>
      <point x="339" y="411"/>
      <point x="307" y="280"/>
      <point x="276" y="235" type="qcurve" smooth="yes"/>
      <point x="240" y="182"/>
      <point x="129" y="128"/>
      <point x="66" y="125" type="qcurve"/>
      <point x="50" y="124"/>
      <point x="50" y="124"/>
      <point x="50" y="86" type="qcurve"/>
      <point x="50" y="51"/>
      <point x="50" y="51"/>
    </contour>
  </outline>
</glyph>
<glyph name="RoundDualyNW" format="1">
  <advance width="653"/>
  <outline>
    <contour>
      <point x="41" y="760" type="qcurve"/>
      <point x="0" y="760"/>
      <point x="0" y="760"/>
      <point x="4" y="802" type="qcurve"/>
      <point x="18" y="906"/>
      <point x="119" y="1115"/>
      <point x="201" y="1195" type="qcurve" smooth="yes"/>
      <point x="284" y="1276"/>
      <point x="485" y="1383"/>
      <point x="610" y="1398" type="qcurve"/>
      <point x="653" y="1401"/>
      <point x="653" y="1401"/>
      <point x="653" y="1361" type="qcurve"/>
      <point x="653" y="1323"/>
      <point x="653" y="1323"/>
      <point x="611" y="1319" type="qcurve"/>
      <point x="506" y="1306"/>
      <point x="330" y="1215"/>
      <point x="260" y="1146" type="qcurve"/>
      <point x="190" y="1077"/>
      <point x="104" y="894"/>
      <point x="88" y="800" type="qcurve"/>
      <point x="83" y="760"/>
      <point x="83" y="760"/>
    </contour>
    <contour>
      <point x="126" y="760" type="qcurve"/>
      <point x="83" y="760"/>
      <point x="83" y="760"/>
      <point x="88" y="800" type="qcurve"/>
      <point x="104" y="894"/>
      <point x="190" y="1077"/>
      <point x="260" y="1146" type="qcurve"/>
      <point x="330" y="1215"/>
      <point x="506" y="1306"/>
      <point x="611" y="1319" type="qcurve"/>
      <point x="653" y="1323"/>
      <point x="653" y="1323"/>
      <point x="653" y="1286" type="qcurve"/>
      <point x="653" y="1274"/>
      <point x="654" y="1251"/>
      <point x="654" y="1239" type="qcurve"/>
      <point x="655" y="1213"/>
      <point x="658" y="1149"/>
      <point x="661" y="1091" type="qcurve" smooth="yes"/>
      <point x="664" y="1033"/>
      <point x="675" y="878"/>
      <point x="678" y="797" type="qcurve"/>
      <point x="678" y="760"/>
      <point x="678" y="760"/>
    </contour>
  </outline>
</glyph>
